<svg width="443" height="154" viewBox="0 0 443 154" fill="none" xmlns="http://www.w3.org/2000/svg">
<path d="M19.7995 52.841V52.9684V53.0957V53.223V53.3504V53.4777V53.605V53.7323V53.8597C19.7995 53.8597 19.7358 53.8597 19.6085 53.8597C19.4812 53.8597 19.3538 53.9233 19.1628 53.987C18.9718 54.0507 18.7172 54.1143 18.5262 54.2416C18.2715 54.369 18.0169 54.4963 17.7622 54.6873C17.5076 54.8783 17.2529 55.1329 16.9983 55.3876C16.7436 55.7059 16.5526 56.0242 16.3616 56.4062C16.1706 56.7882 15.9796 57.2975 15.916 57.8068C15.7887 58.3161 15.725 58.9528 15.725 59.6531L14.0061 60.9264L12.3508 62.0723L10.6955 63.2183L9.04028 64.3642L7.38502 65.5102L5.72975 66.7834L4.07449 67.9294L2.41923 69.0753H3.8835H5.34777H6.81204H8.27631H9.74058H11.2049H12.6691H14.1334L13.8787 70.0303L13.6241 70.9853L13.3694 71.9402L13.1148 72.8952L12.8601 73.8501L12.6055 74.8051L12.3508 75.7601L12.0961 76.715L10.6955 77.9883L9.29493 79.2616L7.89433 80.5348L6.49372 81.8081L5.09311 83.0814L3.69251 84.3547L2.2919 85.628L0.891295 86.9012H4.45647H7.95799H11.4595H14.961H18.4625H21.9641H25.4656H28.9671L28.3941 86.3283L27.8211 85.7553L27.2482 85.1823L26.6752 84.6093L26.1022 84.0364L25.5292 83.4634L24.9563 82.8904L24.3833 82.3174L24.8926 79.3252L25.4019 76.333L25.9112 73.3408L26.4205 70.3486L26.9298 67.3564L27.4391 64.3642L27.9485 61.372L28.4578 58.3798L31.5773 61.8813L34.6968 65.3828L37.8164 68.8843L40.9359 72.3859L44.0554 75.8874L47.175 79.3889L50.2945 82.8904L53.414 86.3919L56.6609 82.8904L59.9078 79.3889L63.1546 75.8874L66.4015 72.3859L69.6483 68.8843L72.8952 65.3828L76.1421 61.8813L79.3889 58.3798L80.0256 61.372L80.6622 64.3642L81.2988 67.3564L81.9355 70.3486L82.5721 73.3408L83.2087 76.333L83.8454 79.3252L84.482 82.3174L83.9727 82.9541L83.4634 83.5907L82.9541 84.2274L82.4448 84.864L81.9355 85.5006L81.4262 86.1373L80.9168 86.7739L80.4075 87.4106H83.7181H87.0286H90.3391H93.6496H96.9602H100.271H103.581H106.892L105.491 86.2009L104.091 84.9913L102.69 83.7817L101.289 82.5721L99.8887 81.3625L98.4881 80.1529L98.0424 78.3066L96.6418 77.097L96.4508 76.0784L96.2598 75.0597L96.0689 74.0411L95.8779 73.0225L95.6869 72.0039L95.4959 70.9853L95.3049 69.9666L95.1139 68.948L96.5782 68.8843L98.0424 68.8207L99.5067 68.757L100.971 68.6934L102.435 68.6297L103.9 68.566L105.364 68.5024L106.828 68.4387L105.236 67.4201L103.645 66.4015L102.053 65.3828L100.462 64.3642L98.8701 63.3456L97.2785 62.327L95.6869 61.3083L94.0953 60.2897C94.0953 60.2897 94.0953 60.2261 94.0953 60.0351C94.0953 59.8441 94.0316 59.6531 94.0316 59.3348C93.9679 59.0801 93.9043 58.6981 93.8406 58.3798C93.777 57.9978 93.6496 57.6795 93.5223 57.2975C93.395 56.9155 93.204 56.5335 93.013 56.2152C92.822 55.8332 92.5037 55.5149 92.249 55.2603C91.9307 55.0056 91.6124 54.751 91.1667 54.56C90.7211 54.369 90.2754 54.3053 89.7661 54.3053V54.1143V53.9233V53.7323V53.5413V53.3504V53.1594V52.9684V52.841H90.9757H92.1854H93.395H94.6046H95.8142H97.0238H98.2334H99.443L100.907 51.3768L102.372 49.9125L103.836 48.4482L105.3 46.984L106.764 45.5197L108.229 44.0554L109.693 42.5911L111.157 41.1269H107.592H104.027H100.462H96.8965H93.3313H89.7661H86.201H82.6358L79.1343 44.9467L75.6327 48.7665L72.1312 52.5864L68.6297 56.4062L65.1282 60.2261L61.6267 64.0459L58.1252 67.8657L54.6236 71.6856L51.3131 67.8657L48.0026 64.0459L44.6921 60.2261L41.3815 56.4062L38.071 52.5864L34.7605 48.7665L31.45 44.9467L28.1395 41.1269H24.6379H21.1364H17.6349H14.1334H10.6319H7.13036H3.50152H0L1.14595 42.5911L2.2919 44.0554L3.43785 45.5197L4.5838 46.984L5.72975 48.4482L6.8757 49.9125L8.02166 51.3768L9.1676 52.841H10.5045H11.8415H13.1784H14.5154H15.8523H17.1893H18.4625H19.7995Z" fill="#CD242B"/>
<path d="M11.9051 101.99H20.8181H29.731H38.6439H47.6206H56.5335H65.4465H74.3594H83.2724L82.3811 103.136L81.4261 104.281L80.4711 105.427L79.5162 106.573L78.6249 107.719L77.6699 108.865L76.715 110.011L75.76 111.157H72.8951H70.0303H67.1654H64.3005H61.372H58.5071H55.6422H52.7773V110.139V109.056V108.038V107.019V105.937V104.918V103.899V102.881L51.4404 104.027L50.1035 105.236L48.7665 106.446L47.4296 107.592L46.0926 108.802L44.692 110.011L43.3551 111.157L42.0181 112.367V117.46V122.617V127.71V132.867V137.96V143.116V148.21V153.303L44.1827 151.138L46.4109 148.974L48.5755 146.809L50.7401 144.644L52.9047 142.48L55.0692 140.252L57.2975 138.087L59.4621 135.922H58.5708H57.7431H56.9155H56.0242H55.1966H54.3053H53.4776H52.65V134.267V132.612V130.957V129.301V127.646V125.991V124.336V122.68H56.1515H59.7167H63.2819H66.7834H70.3486H73.9138H77.4789H80.9805L84.482 118.67L87.9198 114.722L91.3577 110.712L94.7955 106.764L98.2334 102.817L101.735 98.8064L105.173 94.8592L108.611 90.9121H95.1138H81.6808H68.184H54.6873H41.1905H27.7574H14.2607H0.763916L2.16452 92.3127L3.56513 93.6496L4.96573 95.0502L6.30268 96.4508L7.70328 97.8514L9.10389 99.252L10.5045 100.653L11.9051 101.99Z" fill="#CD242B"/>
<path d="M20.6907 111.476L22.9189 113.704L25.1471 115.932L27.3754 118.224L29.54 120.452L31.7682 122.744L33.9964 124.972L36.2247 127.201L38.4529 129.492V126.118V122.68V119.306V115.932V112.558V109.184V105.809V102.372L37.1796 103.518L35.9064 104.663L34.6331 105.809L33.2961 106.955L32.0229 108.038L30.7496 109.184L29.4763 110.33L28.203 111.476H27.3117H26.3568H25.4018H24.4468H23.5556H22.6006H21.6456H20.6907Z" fill="#CD242B"/>
<path d="M36.0337 33.6146C35.97 33.6782 35.97 33.7419 35.9064 33.8055C35.8427 33.8692 35.8427 33.9329 35.779 33.9965C35.7154 34.0602 35.7154 34.1239 35.6517 34.1875C35.5881 34.2512 35.5881 34.3149 35.5244 34.3785C35.4607 34.4422 35.4607 34.5058 35.3971 34.5695C35.3971 34.6332 35.3334 34.6968 35.3334 34.7605C35.3334 34.8242 35.2697 34.8878 35.2697 34.9515C35.2697 35.0152 35.2061 35.0788 35.2061 35.1425L33.4871 33.6146L31.8319 31.832L30.113 30.304L28.394 28.7761L26.6751 27.2482L24.9562 25.7202L23.2373 24.1923L21.5183 22.6644V22.9827V23.301V23.6193V23.9376V24.256V24.5743V24.8289V25.1472L23.1736 26.5479L24.8289 27.9485L26.4841 29.3491L28.1394 30.7497L29.7946 32.1503L31.4499 33.5509L33.1052 34.9515L34.7604 36.3521C34.6968 36.5431 34.6331 36.7341 34.5694 36.9251C34.5058 37.1161 34.4421 37.3071 34.3784 37.4981C34.3148 37.689 34.2511 37.88 34.2511 38.071C34.1874 38.262 34.1874 38.453 34.1238 38.644C34.0601 38.835 34.0601 39.026 33.9965 39.217C33.9965 39.408 33.9328 39.599 33.9328 39.8536C33.9328 40.0446 33.8691 40.2356 33.8691 40.4903C33.8691 40.6812 33.8691 40.8722 33.8691 41.1269V41.1906V41.2542V41.3179V41.3815V41.4452V41.5089V41.5725V41.6362L35.5881 43.4825L37.307 45.3287L39.0259 47.175L40.7448 49.0212L42.4638 50.8675L44.1827 52.7137L45.9016 54.56L47.6205 56.4062L48.5118 57.3612L49.4031 58.3162L50.2944 59.2711L51.1857 60.2261L52.077 61.181L52.9683 62.136L53.8596 63.0909L54.7509 64.0459L55.6422 63.0909L56.5335 62.136L57.4248 61.181L58.3161 60.2261L59.2074 59.2711L60.0987 58.3162L60.99 57.3612L61.8813 56.4062L63.7912 54.4327L65.7011 52.4591L67.611 50.4855L69.5209 48.5119L71.4308 46.5383L73.3408 44.5647L75.2507 42.5912L77.1606 40.6176C77.1606 40.3629 77.1606 40.1719 77.1606 39.9809C77.1606 39.79 77.1606 39.5353 77.0969 39.3443C77.0333 39.1533 77.0333 38.8987 77.0333 38.7077C76.9696 38.5167 76.9696 38.262 76.9059 38.071C76.8423 37.88 76.8423 37.6254 76.7786 37.4344C76.7149 37.2434 76.6513 36.9887 76.5876 36.7977C76.524 36.6068 76.4603 36.3521 76.3966 36.1611C76.333 35.9701 76.2693 35.7791 76.142 35.5245L77.7972 34.1239L79.4525 32.7233L81.1078 31.3227L82.763 29.922L84.4183 28.5214L86.0735 27.1208L87.7288 25.7202L89.3841 24.3196V24.0013V23.683V23.3647V23.5557V23.2373V22.919V22.6007V22.2824L87.6651 23.8103L85.9462 25.3382L84.2273 26.8662L82.5084 28.3941L80.7894 29.922L79.0705 31.45L77.3516 32.9779L75.6327 34.5058C75.6327 34.4422 75.569 34.3785 75.569 34.3149C75.569 34.2512 75.5053 34.1875 75.5053 34.1239C75.4417 34.0602 75.4417 33.9965 75.378 33.9329C75.3143 33.8692 75.3143 33.8055 75.2507 33.7419C75.187 33.6782 75.187 33.6146 75.1234 33.5509C75.0597 33.4872 75.0597 33.4236 74.996 33.4236C74.9324 33.3599 74.9324 33.2962 74.8687 33.2962C74.805 33.2326 74.805 33.1689 74.7414 33.1689L76.524 31.5136L78.3065 29.8584L80.0891 28.2031L81.8717 26.5479L83.6543 24.8926L85.4369 23.2373L87.2195 21.5821L89.0021 19.9268L89.0657 19.1628L89.1294 18.3989L89.1931 17.6349L89.2567 16.8709L89.3204 16.107L89.3841 15.343L89.4477 14.579L89.5114 13.8151H88.8111H88.1108H87.4105H86.7102H86.0099H84.6729H83.9726H83.2723L81.5534 15.6613L79.8345 17.5076L78.1156 19.3538L76.3966 21.2001L74.6777 23.0463L72.9588 24.8926L71.2399 26.7388L69.5209 28.5851C69.4573 28.5214 69.3936 28.5214 69.3299 28.4578C69.2663 28.3941 69.2026 28.3941 69.1389 28.3304C69.0753 28.2668 69.0116 28.2668 68.948 28.2031C68.8843 28.1395 68.8206 28.1395 68.757 28.0758C68.6933 28.0121 68.6296 28.0121 68.566 27.9485C68.5023 27.8848 68.4386 27.8848 68.375 27.8211C68.3113 27.7575 68.2476 27.7575 68.184 27.6938C68.1203 27.6301 68.0567 27.6301 67.993 27.5665L69.5209 25.8476L71.0489 24.1286L72.5768 22.4097L74.1047 20.6908L75.6327 18.9718L77.1606 17.2529L78.6885 15.534L80.2165 13.8151H79.8981H79.5798H79.2615H78.9432H78.6249H78.3065H77.9882H77.6699L76.2693 15.4067L74.8687 16.9983L73.4681 18.5899L72.0675 20.1815L70.6669 21.7731L69.2663 23.3647L67.8657 24.9563L66.4651 26.5479C66.2741 26.4205 66.0194 26.3569 65.8284 26.2295C65.6374 26.1022 65.3828 26.0385 65.1918 25.9749C65.0008 25.9112 64.7461 25.7839 64.4915 25.7202C64.2368 25.6566 64.0458 25.5292 63.7912 25.4656C63.5365 25.4019 63.3455 25.3382 63.0909 25.2109C62.8362 25.1472 62.6452 25.0836 62.3906 25.0199C62.1359 24.9563 61.8813 24.8926 61.6903 24.8289C61.4356 24.7653 61.181 24.7016 60.9263 24.6379L61.1173 22.346L61.3083 20.0541L61.4993 17.7622L61.6903 15.4703L61.8813 13.1784L62.0722 10.8865L62.2632 8.59463L62.4542 6.30273L62.1996 6.11174L61.9449 5.92074L61.6903 6.36639L61.4356 6.1754L61.181 5.98441L60.9263 5.79342L60.6716 5.60243L60.417 5.41143L60.2897 7.83066L60.1623 10.2499L60.035 12.6691L59.9077 15.0884L59.844 17.6349L59.7167 20.0541L59.5894 22.4734L59.462 24.8926C59.3984 24.8926 59.3347 24.8926 59.271 24.8926C59.2074 24.8926 59.1437 24.8926 59.08 24.8926C59.0164 24.8926 58.9527 24.8926 58.889 24.8926C58.8254 24.8926 58.7617 24.8926 58.6981 24.8926C58.6344 24.8926 58.5707 24.8926 58.5071 24.8926C58.4434 24.8926 58.3797 24.8926 58.3161 24.8926C58.2524 24.8926 58.1887 24.8926 58.1251 24.8926C58.0614 24.8926 57.9978 24.8926 57.9341 24.8926L58.0614 22.346L58.1887 19.7995L58.3161 17.2529L58.4434 14.7064L58.5707 12.1598L58.6981 9.61325L58.8254 7.0667L58.9527 4.52014L58.4434 3.81984L57.8704 3.24686L57.2975 2.73755L56.7245 2.16457L56.1515 1.5916L55.5785 1.01862L55.0056 0.445647L54.4326 0L53.9233 0.572975L53.414 1.14595L52.9046 1.71893L52.3953 2.2919L51.886 2.86488L51.3767 3.43785L50.8674 4.01083L50.3581 4.5838L50.4854 7.13036L50.6127 9.67692L50.7401 12.2235L50.8674 14.77L50.9947 17.3166L51.1221 19.8631L51.2494 22.4097L51.3767 24.9563C51.313 24.9563 51.2494 24.9563 51.1857 24.9563C51.1221 24.9563 51.0584 24.9563 50.9947 24.9563C50.9311 24.9563 50.8674 24.9563 50.8037 24.9563C50.7401 24.9563 50.6764 24.9563 50.6127 24.9563C50.5491 24.9563 50.4854 24.9563 50.4217 24.9563C50.3581 24.9563 50.2944 24.9563 50.2308 25.0199C50.1671 25.0199 50.1034 25.0199 50.0398 25.0836C49.9761 25.0836 49.9124 25.0836 49.8488 25.1472L49.7214 22.728L49.6578 20.1815L49.5305 17.7622L49.4031 15.2793L49.2758 12.8601L49.1485 10.4409L49.0211 8.02166L48.8938 5.60243L48.6392 5.72975L48.3845 5.98441L48.1298 6.1754L47.8752 6.36639L47.6205 6.55738L47.3659 6.74838L47.1112 6.93937L46.8566 7.13036L47.1112 9.54959L47.3022 11.8415L47.4932 14.1334L47.6842 16.4253L47.8752 18.7172L48.0662 21.0091L48.2572 23.301L48.4482 25.5929C48.2572 25.6566 48.0025 25.7202 47.8115 25.7839C47.6205 25.8476 47.3659 25.9112 47.1749 25.9749C46.9839 26.0385 46.7929 26.1022 46.5382 26.1659C46.3473 26.2295 46.1563 26.2932 45.9016 26.3569C45.7106 26.4205 45.5196 26.4842 45.3286 26.6115C45.1376 26.6752 44.9467 26.8025 44.7557 26.8662C44.5647 26.9298 44.3737 27.0572 44.1827 27.1208C43.9917 27.1845 43.8007 27.3118 43.6097 27.3755L42.2091 25.7839L40.7448 24.065L39.3442 22.4734L37.9436 20.8818L36.543 19.2902L35.1424 17.6986L33.7418 16.107L32.4685 14.5154H32.1502H31.8319H31.5136H31.1952H30.8769H30.5586H30.2403H29.922L31.4499 16.2343L32.9778 17.9532L34.5058 19.6722L36.0337 21.3911L37.5616 23.11L39.0896 24.8289L40.6175 26.5479L42.1454 28.2668C42.0818 28.3304 42.0181 28.3304 41.9544 28.3941C41.8908 28.4578 41.8271 28.4578 41.7635 28.5214C41.6998 28.5851 41.6361 28.5851 41.5725 28.6488C41.5088 28.7124 41.4451 28.7124 41.3815 28.7761C41.3178 28.8398 41.2541 28.8398 41.1905 28.9034C41.1268 28.9671 41.0632 28.9671 40.9995 29.0307C40.9358 29.0944 40.8722 29.0944 40.8085 29.1581C40.7448 29.2217 40.6812 29.2217 40.6175 29.2854L38.8986 27.4391L37.0523 25.4656L35.3334 23.6193L33.6145 21.7731L31.8955 19.9268L30.1766 18.0806L28.4577 16.2343L26.7388 14.388H26.0385H25.4655H24.7652H24.0649H23.3646H22.6643H21.964H21.2637L21.3273 15.152L21.391 15.916L21.4547 16.6799L21.5183 17.4439L21.582 18.2079L21.6457 18.9718L21.7093 19.7358L21.773 20.4998L23.6192 22.155L25.4655 23.8103L27.3117 25.4656L29.158 27.1208L31.0043 28.7761L32.8505 30.4314L34.6968 32.0866L36.0337 33.6146Z" fill="#CD242B"/>
<path d="M179.216 97.0269L177.844 72.4705C177.648 68.8132 177.518 64.5681 177.648 59.9965H177.387C176.538 64.6987 175.558 68.6173 174.252 72.6012L166.088 97.0269H156.749L148.651 72.6012C147.345 68.8132 146.169 64.5681 145.32 60.0618H145.124C145.32 64.764 145.255 68.552 144.994 72.4705L143.622 97.0269H125.466L130.625 23.8151H149.435L158.774 50.5266C160.145 54.4452 161.647 59.8005 162.758 64.1763H162.888C163.868 59.8005 165.37 54.5105 166.742 50.5266L175.885 23.8151H193.061L198.351 97.0269H179.216Z" fill="white"/>
<path d="M238.19 97.0269L234.99 82.0057H221.275L217.944 97.0269H200.115L220.164 23.8151H237.341L257.391 97.0269H238.19ZM229.047 52.5512C228.72 50.7225 228.198 46.6734 228.198 46.6734H228.002C228.002 46.6734 227.479 50.7878 227.153 52.5512L224.671 66.0702H231.463L229.047 52.5512Z" fill="white"/>
<path d="M304.348 97.0269L286.976 69.8582C284.102 65.3518 280.968 60.1924 278.812 55.9473L278.616 56.0779C278.812 60.323 278.943 65.7437 278.943 69.5969V97.0269H260.983V23.8804H278.029L292.527 47.2612C294.683 50.7879 297.556 55.6208 299.319 59.2128H299.515C299.319 55.4248 298.993 51.3103 298.993 47.5224V23.8804H317.149V97.0922H304.348V97.0269Z" fill="white"/>
<path d="M367.568 97.0269L350.196 69.8582C347.322 65.3518 344.187 60.1924 342.032 55.9473L341.836 56.0779C342.032 60.323 342.162 65.7437 342.162 69.5969V97.0269H324.202V23.8804H341.248L355.747 47.2612C357.902 50.7879 360.776 55.6208 362.539 59.2128H362.735C362.539 55.4248 362.212 51.3103 362.212 47.5224V23.8804H380.368V97.0922H367.568V97.0269Z" fill="white"/>
<path d="M422.95 67.5724V97.0922H404.141V68.1601L383.83 23.8804H404.141L411.26 40.0771C412.109 42.167 413.219 45.4978 413.937 48.1102H414.133C414.917 45.4978 416.158 42.167 417.007 40.0771L423.995 23.8804H443L422.95 67.5724Z" fill="white"/>
</svg>
