<svg width="170" height="72" viewBox="0 0 170 72" fill="none" xmlns="http://www.w3.org/2000/svg">
<path d="M13.1529 28.1088L13.1332 28.1891L13.1134 28.2693L13.0924 28.3509L13.0727 28.4311L13.0529 28.5114L13.0331 28.5929L13.0134 28.6732L12.9924 28.7535C12.9658 28.7565 12.9394 28.761 12.9133 28.7671C12.8397 28.7846 12.7671 28.8065 12.696 28.8325C12.5851 28.8746 12.4777 28.9254 12.3749 28.9844C12.2358 29.0632 12.1039 29.1541 11.9809 29.2561C11.8242 29.3848 11.6799 29.5279 11.5499 29.6834C11.3861 29.8759 11.2398 30.0826 11.1127 30.301C10.9541 30.5705 10.817 30.8522 10.7027 31.1432C10.5611 31.5024 10.4443 31.8709 10.3532 32.2461L9.47258 32.9451L8.59325 33.6441L7.71392 34.3432L6.83459 35.041L5.95402 35.74L5.07468 36.439L4.19535 37.138L3.31478 37.837H3.93229H4.5498H5.16731H5.78482H6.40233H7.01984H7.63735H8.25486L8.00785 38.4014L7.76085 38.9646L7.51385 39.529L7.26684 40.0922L7.01984 40.6566L6.77283 41.221L6.52583 41.7841L6.27883 42.3485L5.49336 43.1278L4.70912 43.9084L3.92364 44.6889L3.13941 45.4682L2.35517 46.2487L1.5697 47.0293L0.78547 47.8086L0 48.5891L1.50919 48.5965L3.01961 48.6051L4.5288 48.6138L6.03799 48.6212L7.54719 48.6298L9.05762 48.6373L10.5668 48.6459L12.076 48.6533L11.9241 48.3063L11.7722 47.9605L11.6055 47.6431L11.4536 47.296L11.3016 46.949L11.1497 46.6019L10.9966 46.2561L10.8447 45.9091L11.5227 44.101L12.2007 42.2942L12.8788 40.4874L13.5568 38.6793L14.2348 36.8725L14.9128 35.0656L15.5909 33.2576L16.2689 31.4508L17.0976 33.5429L17.9263 35.635L18.755 37.7271L19.5837 39.8192L20.4124 41.9114L21.2398 44.0035L22.0685 46.0956L22.8972 48.1877L24.809 46.0758L26.7208 43.964L28.6327 41.8521L30.5445 39.7402L32.4575 37.6271L34.3693 35.5152L36.2799 33.4033L38.1929 31.2914L38.0287 33.0699L37.8619 34.8619L37.7014 36.6514L37.5384 38.4385L37.3741 40.2243L37.2111 42.0114L37.0468 43.7985L36.8838 45.5855L36.5874 45.956L36.2898 46.3265L35.9934 46.697L35.6969 47.0676L35.4005 47.4381L35.1041 47.8086L34.8077 48.1791L34.5113 48.5496L35.9304 48.557L37.3506 48.5644L38.7697 48.5718L40.1887 48.5792L41.6077 48.5866L43.0268 48.594L44.447 48.6027L45.8661 48.6101L45.4363 47.8925L45.0053 47.175L44.5755 46.4575L44.1457 45.7399L43.7159 45.0224L43.2849 44.3048L42.8551 43.5885L42.4253 42.871L42.4945 42.2596L42.5636 41.6421L42.6328 41.032L42.702 40.4207L42.7724 39.8032L42.8415 39.1918L42.9107 38.5817L42.9798 37.9704L43.6146 37.9284L44.2495 37.8852L44.8843 37.842L45.5191 37.8L46.1539 37.7568L46.7887 37.7148L47.4247 37.6715L48.0595 37.6283L47.5371 37.0108L47.0159 36.3933L46.4947 35.7758L45.9735 35.1583L45.4524 34.5408L44.9312 33.9233L44.4088 33.3057L43.8876 32.6882C43.8876 32.6882 43.9012 32.6327 43.9197 32.5339C43.9382 32.4351 43.9642 32.2955 43.9876 32.1275C44.0111 31.9596 44.0358 31.757 44.0518 31.5508C44.0693 31.331 44.0755 31.1105 44.0704 30.8901C44.066 30.6684 44.0437 30.4474 44.0037 30.2293C43.967 30.0282 43.9013 29.8335 43.8086 29.6513C43.7247 29.4865 43.6002 29.3458 43.4467 29.2425C43.2757 29.135 43.0768 29.0801 42.8749 29.0845L42.9008 28.9807L42.9268 28.877L42.9527 28.7732L42.9786 28.6695L43.0033 28.5658L43.0293 28.4632L43.0552 28.3595L43.0811 28.2558H43.5974H44.1148H44.6311H45.1485H45.6648H46.1823H46.6985H47.216L48.0669 27.3715L48.9191 26.4885L49.77 25.6042L50.6221 24.7211L51.4731 23.8369L52.3252 22.9538L53.1762 22.0708L54.0283 21.1865L52.4944 21.1791L50.9593 21.1705L49.4254 21.1618L47.8915 21.1544L46.3576 21.1458L44.8237 21.1371L43.2886 21.1297L41.7547 21.1211L39.6885 23.3935L37.6211 25.6659L35.5549 27.9396L33.4887 30.212L31.4213 32.4845L29.3551 34.7989L27.289 37.0713L25.2215 39.345L24.3842 37.0565L23.5468 34.768L22.7095 32.4795L21.8722 30.191L21.0336 27.9038L20.2012 25.6091L19.3638 23.3206L18.5265 21.0321L17.0173 21.0247L15.5081 21.0161L13.9989 21.0074L12.4897 21L10.9805 20.9914L9.47011 20.984L7.96092 20.9753L6.45173 20.9679L6.71603 21.8571L6.98031 22.7463L7.24337 23.6368L7.50766 24.526L7.77196 25.4152L8.03626 26.3044L8.30055 27.1949L8.56485 28.0841H9.13913H9.7134H10.2877H10.862H11.4363H12.0106H12.5848L13.1529 28.1088Z" fill="#CD242B"/>
<path d="M21.8168 16.301L21.7476 16.3788L21.6785 16.4566L21.6106 16.5344L21.5439 16.6135L21.4772 16.6925L21.4117 16.7715L21.3487 16.8518C21.3265 16.8777 21.3055 16.9049 21.2845 16.9321L20.6312 16.1738L19.9778 15.4155L19.3233 14.6572L18.67 13.8989L18.0167 13.1406L17.3633 12.3823L16.7088 11.624L16.0554 10.8657L16.0159 11.025L15.9764 11.1855L15.9356 11.3461L15.8961 11.5067L15.8566 11.666L15.8171 11.8265L15.7776 11.9871L15.738 12.1464L16.3642 12.8405L16.9903 13.5333L17.6177 14.2262L18.2439 14.919L18.8713 15.6119L19.4974 16.3047L20.1236 16.9988L20.751 17.6916C20.6929 17.783 20.6374 17.8756 20.583 17.9683C20.5287 18.0609 20.4768 18.1548 20.4262 18.2486C20.3755 18.3425 20.3274 18.4376 20.2817 18.5327C20.236 18.6278 20.1915 18.7241 20.1483 18.8204C20.1051 18.9168 20.0668 19.0143 20.0248 19.1119C19.9828 19.2095 19.9507 19.3083 19.9173 19.4058C19.884 19.5034 19.8519 19.6047 19.8222 19.7035C19.7926 19.8023 19.7654 19.9035 19.7407 20.0048C19.7367 20.019 19.7334 20.0335 19.7308 20.048L19.7197 20.0913C19.7197 20.1061 19.7136 20.1197 19.7099 20.1345C19.7062 20.1493 19.7098 20.1629 19.7 20.1777C19.6901 20.1925 19.7 20.2074 19.6913 20.2209C19.6827 20.2345 19.6852 20.2506 19.6827 20.2642C19.6802 20.2778 19.6827 20.2938 19.674 20.3074C19.6654 20.321 19.674 20.3358 19.6654 20.3506L25.717 36.5923L40.6496 20.116C40.6767 20.0085 40.7002 19.9011 40.7212 19.7936C40.7422 19.6862 40.7607 19.58 40.7768 19.4738C40.7928 19.3675 40.8052 19.2626 40.8151 19.1576C40.825 19.0526 40.8324 18.9476 40.8373 18.8439C40.8422 18.7402 40.8373 18.6376 40.8373 18.5351C40.8373 18.4326 40.8373 18.3314 40.8274 18.2301C40.8175 18.1288 40.8138 18.0288 40.8027 17.93C40.7916 17.8312 40.778 17.7311 40.762 17.6336L41.7203 16.9556L42.6787 16.2775L43.6371 15.5995L44.5967 14.9215L45.5551 14.2435L46.5135 13.5667L47.4718 12.8886L48.4314 12.2106L48.471 12.0501L48.5105 11.8895L48.55 11.7302L48.5895 11.5696L48.629 11.4091L48.6698 11.2498L48.7093 11.0892L48.7488 10.9287L47.7287 11.6697L46.7073 12.4107L45.6872 13.1517L44.6671 13.8927L43.6457 14.6337L42.6256 15.3747L41.6055 16.1157L40.5841 16.8568C40.5767 16.8296 40.5681 16.8036 40.5594 16.7765C40.5508 16.7493 40.5421 16.7234 40.5323 16.6974C40.5224 16.6715 40.515 16.6456 40.5051 16.6196C40.4952 16.5937 40.4866 16.5665 40.4767 16.5406L40.447 16.4628C40.4359 16.4381 40.4261 16.4121 40.4162 16.3862L40.3841 16.3096L40.3507 16.2331L41.4264 15.4439L42.5021 14.6559L43.5778 13.8668L44.6535 13.0776L45.7292 12.2884L46.8049 11.5005L47.8806 10.7113L48.9575 9.92213L49.065 9.56274L49.1737 9.20335L49.2824 8.84396L49.391 8.48457L49.4985 8.12518L49.6072 7.76579L49.7158 7.4064L49.8245 7.04701H49.475H49.1255H48.776H48.4265H48.077H47.7423H47.3915H47.042L46.0009 7.92387L44.9598 8.80197L43.9187 9.67883L42.8763 10.5569L41.8352 11.4338L40.7941 12.3119L39.7517 13.1887L38.7106 14.0656L38.6353 14.0026L38.5599 13.9409L38.4821 13.8791L38.4043 13.8174L38.324 13.7581C38.2981 13.7371 38.2709 13.7173 38.2438 13.6988L38.1623 13.6395L38.0795 13.5827L39.0218 12.7639L39.9641 11.9463L40.9065 11.1287L41.8488 10.3112L42.7899 9.49234L43.7322 8.67476L44.6745 7.85718L45.6168 7.0396H44.3386L43.4741 7.81025L42.6095 8.57967L41.745 9.34908L40.8805 10.1197L40.016 10.8891L39.1515 11.6598L38.287 12.4292L37.4225 13.1986C37.3323 13.148 37.2397 13.0998 37.1458 13.0517C37.052 13.0035 36.9569 12.9566 36.8605 12.9121C36.7642 12.8676 36.6654 12.8232 36.5666 12.78C36.4678 12.7367 36.3653 12.6972 36.2628 12.6565C36.1603 12.6157 36.0566 12.5799 35.9516 12.5428C35.8466 12.5058 35.7391 12.4724 35.6317 12.4391C35.5243 12.4058 35.4143 12.3736 35.3032 12.344C35.192 12.3144 35.0809 12.2847 34.9673 12.2575L35.3242 11.146L35.6799 10.0345L36.0368 8.923L36.3925 7.81149L36.7482 6.69997L37.1051 5.58845L37.4608 4.47694L37.8165 3.36542L37.7201 3.28514L37.6238 3.2061L37.5262 3.12583L37.4299 3.04679L37.3336 2.96651L37.2372 2.88747L37.1397 2.80843L37.0433 2.72815L36.6901 3.89895L36.3357 5.07098L35.9825 6.24178L35.628 7.41381L35.2748 8.5846L34.9216 9.7554L34.5671 10.9274L34.2139 12.0982L34.1373 12.0859L34.0595 12.0735L33.9817 12.0624L33.9039 12.0513L33.8249 12.0402L33.7471 12.0303L33.668 12.0204L33.5878 12.0105L33.9459 10.7755L34.3041 9.54051L34.6634 8.30549L35.0216 7.07047L35.3798 5.83546L35.7379 4.60044L36.0961 3.36542L36.4542 2.1304L36.2406 1.86487L36.0269 1.59811L35.8145 1.33135L35.6008 1.06582L35.3872 0.799056L35.1735 0.532292L34.9599 0.266764L34.7474 0L34.4325 0.272938L34.1176 0.545876L33.8039 0.818813L33.4889 1.09175L33.1753 1.36469L32.8603 1.63763L32.5454 1.90934L32.2317 2.18227L31.9847 3.41112L31.7377 4.63996L31.4907 5.8688L31.2437 7.10382L30.9967 8.33143L30.7497 9.56027L30.5027 10.7891L30.2557 12.018L30.1618 12.0303L30.068 12.0427L29.9741 12.0562L29.8815 12.0711L29.7888 12.0859L29.695 12.1019L29.6023 12.118L29.5097 12.134L29.7394 10.9509L29.9691 9.76775L30.1976 8.5846L30.4273 7.40146L30.6571 6.21831L30.8855 5.03516L31.1152 3.85202L31.345 2.66887L31.2017 2.77508L31.0597 2.88129L30.9164 2.98751L30.7731 3.09372L30.6311 3.19993L30.4879 3.30614L30.3458 3.41235L30.2026 3.51856L30.0815 4.66466L29.8901 5.76382L29.6999 6.86299L29.5097 7.96092L29.3195 9.06009L29.1281 10.1593L28.9379 11.2584L28.7477 12.3576C28.6366 12.3848 28.5267 12.4119 28.418 12.4416C28.3093 12.4712 28.1994 12.5008 28.0907 12.533C27.982 12.5651 27.8746 12.5972 27.7671 12.6318C27.6597 12.6663 27.5522 12.6997 27.446 12.7367C27.3398 12.7738 27.2336 12.8108 27.1274 12.8491C27.0212 12.8874 26.9187 12.9269 26.8137 12.9726C26.7087 13.0183 26.6062 13.0554 26.5037 13.0961C26.4012 13.1369 26.2987 13.1826 26.1974 13.2283L25.7219 12.4551L25.2477 11.682L24.7722 10.9089L24.2967 10.1358L23.8225 9.3639L23.347 8.59078L22.8715 7.81766L22.3973 7.04454H21.119L21.6513 7.86706L22.1836 8.68958L22.7171 9.51334L23.2494 10.3359L23.7829 11.1584L24.3152 11.9809L24.8475 12.8047L25.3811 13.6272L25.2711 13.6852L25.1612 13.7445L25.0525 13.8038L24.9439 13.8643L24.8364 13.9261L24.7302 13.9878L24.624 14.0508L24.519 14.115L23.9163 13.2295L23.3124 12.3452L22.7097 11.461L22.1058 10.5755L21.5031 9.69118L20.8992 8.80567L20.2953 7.9214L19.6926 7.03713H19.3431H18.9935H18.644H18.2945H17.945H17.5955H17.246H16.8965L16.8261 7.39652L16.7569 7.75591L16.6865 8.1153L16.6161 8.47469L16.547 8.83531L16.4766 9.1947L16.4074 9.55409L16.337 9.91348L17.0225 10.715L17.7079 11.5178L18.3946 12.3193L19.08 13.1208L19.7654 13.9236L20.4509 14.7251L21.1363 15.5266L21.8168 16.301Z" fill="#CD242B"/>
<path d="M47.3086 48.6313L68.1199 21.3189H68.6448L75.882 48.7844L70.1811 48.7536L69.1116 44.431L56.1736 44.3618L53.0045 48.6597L47.3086 48.6313ZM59.8601 39.8059L67.6987 39.8479L65.8462 31.5473L59.8601 39.8059Z" fill="#CD242B"/>
<path d="M102.401 48.929L88.4011 32.5329L84.3614 48.8351L79.1113 48.8042L85.9039 21.414H86.4659L100.401 38.0732L104.506 21.5116L109.756 21.5387L102.963 48.929H102.401Z" fill="#CD242B"/>
<path d="M132.255 49.0881L118.255 32.6994L114.215 49.0016L108.964 48.9732L115.756 21.583H116.318L130.253 38.2409L134.358 21.6793L139.608 21.7077L132.816 49.098L132.255 49.0881Z" fill="#CD242B"/>
<path d="M169.007 21.8584C168.019 23.0045 166.888 24.312 165.614 25.7808L161.7 30.28C160.369 31.8106 159.057 33.3169 157.764 34.7989C156.47 36.2809 155.324 37.6193 154.324 38.814L152.813 44.9088L149.493 47.59L146.5 49.1646L149.073 38.7905C148.154 35.9343 147.132 33.0901 146.006 30.2578C144.881 27.4254 143.846 24.5808 142.902 21.7238L149.015 21.7571C149.674 23.6368 150.344 25.5787 151.026 27.5827C151.707 29.5867 152.377 31.529 153.036 33.4095C153.802 32.5376 154.609 31.6039 155.458 30.6085C156.307 29.6131 157.156 28.6107 158.006 27.6012L160.53 24.6137C161.361 23.6307 162.148 22.7032 162.892 21.8312L169.007 21.8584Z" fill="#CD242B"/>
<path d="M34.4902 52.4598C34.4902 52.3989 34.5144 52.3405 34.5575 52.2974C34.6006 52.2543 34.659 52.2301 34.72 52.2301H52.277C52.3379 52.2301 52.3963 52.2543 52.4394 52.2974C52.4825 52.3405 52.5067 52.3989 52.5067 52.4598V68.068C52.5067 68.1289 52.4825 68.1873 52.4394 68.2304C52.3963 68.2735 52.3379 68.2977 52.277 68.2977H34.72C34.659 68.2977 34.6006 68.2735 34.5575 68.2304C34.5144 68.1873 34.4902 68.1289 34.4902 68.068V52.4598Z" fill="#D4B372"/>
<path d="M35.3813 53.354C35.3813 53.2931 35.4056 53.2347 35.4486 53.1916C35.4917 53.1485 35.5501 53.1243 35.6111 53.1243H51.3884C51.4491 53.1246 51.5072 53.149 51.55 53.192C51.5929 53.2351 51.6169 53.2933 51.6169 53.354V67.1751C51.617 67.2053 51.6113 67.2352 51.5999 67.2631C51.5885 67.291 51.5717 67.3164 51.5505 67.3379C51.5293 67.3593 51.504 67.3764 51.4762 67.3881C51.4484 67.3998 51.4186 67.4059 51.3884 67.406H35.6111C35.55 67.4057 35.4916 67.3812 35.4486 67.338C35.4055 67.2947 35.3813 67.2361 35.3813 67.1751V53.354Z" fill="url(#paint0_radial_11_3120)"/>
<path fill-rule="evenodd" clip-rule="evenodd" d="M41.4508 60.2033V65.2669C41.4508 65.378 41.4224 65.4472 41.3273 65.4472C41.2322 65.4472 41.1878 65.378 41.1878 65.2669V64.5987H40.9408C40.7605 64.5987 40.1812 65.0458 39.8132 65.3286C39.6897 65.4188 39.5983 65.4929 39.544 65.5312C39.1348 65.2914 38.7039 65.0909 38.2571 64.9322L38.0718 65.1039C37.9483 65.2126 37.8631 65.2978 37.7989 65.3632L37.7359 65.4274C37.6803 65.4855 37.6494 65.5176 37.6124 65.5176C37.5731 65.5129 37.5365 65.4951 37.5085 65.4671C37.4805 65.4391 37.4627 65.4025 37.458 65.3632C37.458 65.2941 37.6124 65.1273 38.3225 64.3999C38.8165 63.8985 39.008 63.2995 39.008 62.3794C39.008 60.8604 38.3522 59.5623 37.5976 59.5623C37.3506 59.5623 37.2271 59.6599 37.1801 59.9119C37.1665 60.0354 37.1097 60.0798 37.0566 60.0798C36.9455 60.0798 36.8887 59.897 36.8887 59.5858C36.8887 58.8893 37.3827 58.3323 37.978 58.3323C38.2078 58.3406 38.4293 58.4205 38.6115 58.5608C38.7498 58.6509 38.8696 58.7287 39.0117 58.7102V57.6925C39.0151 57.568 38.9903 57.4444 38.9392 57.3308C38.8881 57.2173 38.8119 57.1167 38.7165 57.0367C38.5485 56.8984 37.684 56.3118 37.358 56.3118C37.3081 56.3128 37.2585 56.3211 37.211 56.3365C37.1819 56.346 37.1515 56.3514 37.1209 56.3525C37.0789 56.3525 37.064 56.3402 37.064 56.3118C37.064 56.2834 37.0863 56.2488 37.148 56.1759L37.174 56.1451L38.2768 55.0582L38.304 55.0372C38.3342 55.0078 38.3743 54.9907 38.4164 54.9891C38.6387 54.9891 39.2562 55.4078 39.7626 55.7511C40.1121 55.9882 40.4072 56.1895 40.4813 56.1895C40.616 56.1895 41.0124 55.9425 41.4409 55.6757C41.9473 55.3608 42.4994 55.0175 42.7179 55.0175C42.8229 55.0175 42.9291 55.1027 43.6454 55.6807L43.7924 55.798L43.9159 55.903C44.0873 56.0535 44.2693 56.1913 44.4606 56.3155C44.6853 56.4538 44.6977 56.4822 44.6977 56.7465C44.8372 56.7181 44.9916 56.6082 45.8697 55.8956C46.1167 55.6881 46.8577 55.0866 46.9182 55.0866C46.9788 55.0866 47.6024 55.3337 48.5114 55.7128C48.7782 55.824 48.8189 55.8524 48.8189 56.0191V63.2291C48.8189 63.465 48.8473 63.5502 48.9424 63.6317C49.3599 63.9948 49.6131 64.1332 49.7526 64.1332C49.8047 64.1327 49.8546 64.1124 49.8922 64.0763C49.9626 63.9788 49.9774 63.9664 50.0157 63.9664C50.054 63.9664 50.1009 64.0232 50.1009 64.0763C50.1009 64.1616 49.4735 64.9409 48.8301 65.4435C48.441 65.3052 47.7692 64.8445 47.3925 64.4555C47.269 64.3172 47.2406 64.2888 47.2406 64.0516V58.8917C47.2406 58.294 47.4333 57.8864 48.1335 56.954C48.504 56.481 48.5238 56.3365 48.4534 56.3365C48.2336 56.4619 48.0216 56.6005 47.8186 56.7514C47.6259 56.8848 47.4481 57.0083 47.3777 57.0479L47.2887 56.9972C46.6058 56.6057 46.3822 56.4773 45.9932 56.4773C45.7721 56.4773 45.6165 56.5884 45.6165 56.7305V65.3039C45.6165 65.4139 45.5597 65.4991 45.477 65.4991C45.3942 65.4991 45.3658 65.4299 45.3658 65.32V64.6864C44.9731 64.7507 44.6248 65.0705 44.3976 65.2842C44.2741 65.3978 44.1852 65.4806 44.137 65.4806C43.9851 65.4806 43.0761 64.3937 43.0761 64.3085V60.2033H41.4508ZM41.2038 56.6489C41.2038 56.3686 41.1754 56.2784 41.1211 56.2784C40.9976 56.2784 40.548 56.5588 40.548 56.6489V60.5084C40.548 62.3819 40.3344 62.6079 39.8515 63.113L39.8231 63.1427C39.5983 63.3786 39.544 63.4354 39.376 63.6367C39.6712 64.0393 40.6468 64.2221 41.2075 64.1937V56.6489H41.2038ZM43.086 58.8819H41.4508V56.5353C41.4508 56.3525 41.5336 56.255 41.6892 56.255C42.0375 56.255 43.086 57.0491 43.086 57.343V58.8819ZM45.3757 56.8997C45.3757 56.8712 45.3634 56.8589 45.3189 56.8589C45.2633 56.8656 45.2101 56.885 45.1633 56.9157L44.8434 57.1108C44.6631 57.2208 44.6063 57.2776 44.6063 57.3578V58.7584C44.6063 58.8559 44.7298 58.9251 44.8311 58.9251H45.3757V56.8997ZM44.8434 60.1774H45.3732V64.2171C44.857 64.1764 44.6186 63.9121 44.6186 63.3526V60.496C44.6186 60.2885 44.6915 60.1749 44.8434 60.1749V60.1774Z" fill="white"/>
<path d="M67.7038 65.0038V64.4937C66.575 64.3702 66.5034 64.2751 66.4688 62.9339L66.3391 57.4801C66.3107 56.2698 66.3676 56.1537 67.5248 56.0363V55.5263H64.6175L61.777 61.9125L58.9859 55.5263H55.9922V56.0413C57.2358 56.1586 57.3371 56.3624 57.221 58.0247L57.0049 60.8924C56.9588 61.8161 56.8574 62.7362 56.7011 63.6477C56.6134 64.1578 56.3392 64.4209 55.5291 64.4937V65.0038H59.0007V64.4937C58.046 64.406 57.757 64.2751 57.699 63.6181C57.6409 63.1661 57.6409 62.4819 57.699 61.2716L57.8719 57.4653H57.9299L60.8804 64.9013H61.2855L64.4817 57.3195H64.5546L64.583 62.9339C64.5978 64.2751 64.5113 64.3764 63.4257 64.4937V65.0038H67.7038Z" fill="white"/>
<path d="M78.6305 65.004V64.494C77.719 64.3705 77.5313 64.1877 77.0398 62.9045C76.0987 60.3962 75.2021 57.8594 74.2771 55.3079L73.536 55.4969L70.572 62.9922C70.0941 64.2161 69.9211 64.3766 68.9665 64.494L68.9517 65.004H72.1948V64.494C71.1389 64.363 71.1105 64.158 71.313 63.459C71.4872 62.8748 71.6749 62.3475 71.8342 61.8979H74.6105C74.8279 62.4957 75.044 63.1083 75.1897 63.5455C75.4207 64.1877 75.3478 64.363 74.4957 64.494V65.004H78.6305ZM74.3351 61.1248H72.0787C72.4492 60.0899 72.8197 59.0401 73.2211 57.9755H73.2643L74.3351 61.1248Z" fill="white"/>
<path d="M90.1221 55.5263H86.5936V56.0413C87.6496 56.0993 87.9522 56.3476 88.025 56.9749C88.0547 57.3973 88.1411 58.0865 88.1411 59.3659V61.9323H88.0831L82.5589 55.5312H79.8826V56.0413C80.4902 56.0993 80.8224 56.2166 81.083 56.5662C81.3436 56.9157 81.3868 57.1837 81.3868 58.126V61.174C81.3951 61.9783 81.3468 62.7823 81.2423 63.5798C81.1843 64.2072 80.8521 64.4443 80.0419 64.4987V65.0087H83.5851V64.4987C82.5156 64.4542 82.2686 64.1776 82.197 63.5366C82.1128 62.752 82.0741 61.9631 82.0809 61.174V57.8938H82.1241L88.1411 65.1545H88.8352V59.361C88.8311 58.5523 88.8748 57.744 88.9661 56.9404C89.0378 56.2698 89.3366 56.0759 90.1221 56.0363V55.5263Z" fill="white"/>
<path d="M97.2164 57.7866C97.1003 56.8825 96.999 56.2403 96.941 55.7019C96.2997 55.453 95.6194 55.3197 94.9316 55.3079C92.8778 55.3079 91.6193 56.5614 91.6193 58.1657C91.6193 59.565 92.6456 60.3529 94.1363 61.1112C95.2206 61.6942 95.8566 62.2339 95.8566 63.0934C95.8566 64.0123 95.2922 64.6249 94.4104 64.6249C93.0223 64.6249 92.1689 62.9922 91.8799 62.0585L91.3735 62.2191C91.4748 63.1083 91.6625 64.3334 91.7922 64.6977C92.079 64.8246 92.374 64.9319 92.6752 65.0188C93.1499 65.1567 93.642 65.2253 94.1363 65.2226C96.2469 65.2226 97.6499 63.9246 97.6499 62.2586C97.6499 60.8161 96.6088 59.9985 95.0909 59.255C93.8176 58.614 93.2965 58.1435 93.2965 57.3457C93.2965 56.5145 93.8905 55.9019 94.6994 55.9019C95.8863 55.9019 96.421 56.9813 96.7249 57.899L97.2164 57.7866Z" fill="white"/>
<path d="M103.241 65.0038V64.4937C102.17 64.3912 102.041 64.2887 102.041 63.0648V57.4801C102.041 56.2451 102.164 56.1388 103.241 56.0363V55.5263H98.9026V56.0413C99.9721 56.1438 100.103 56.2451 100.103 57.485V63.0698C100.103 64.2937 99.9721 64.3962 98.9026 64.4987V65.0087L103.241 65.0038Z" fill="white"/>
<path d="M109.57 55.308C106.257 55.308 104.492 57.778 104.492 60.2801C104.492 63.0799 106.503 65.2202 109.395 65.2202C112.112 65.2202 114.357 63.3096 114.357 60.1566C114.357 57.2766 112.201 55.308 109.57 55.308ZM109.309 55.9255C110.973 55.9255 112.15 57.6755 112.15 60.5765C112.15 63.259 111.038 64.615 109.662 64.615C107.81 64.615 106.712 62.5007 106.712 60.0072C106.706 57.4803 107.848 55.9181 109.309 55.9181V55.9255Z" fill="white"/>
<path d="M125.849 55.5263H122.319V56.0413C123.375 56.0993 123.677 56.3476 123.752 56.9749C123.78 57.3973 123.868 58.0865 123.868 59.3659V61.9323H123.81L118.284 55.5312H115.609V56.0413C116.216 56.0993 116.549 56.2166 116.81 56.5662C117.07 56.9157 117.112 57.1837 117.112 58.126V61.174C117.12 61.9783 117.072 62.7823 116.968 63.5798C116.911 64.2072 116.577 64.4443 115.767 64.4987V65.0087H119.31V64.4987C118.241 64.4542 117.995 64.1776 117.922 63.5366C117.839 62.7519 117.8 61.9631 117.807 61.174V57.8938H117.851L123.868 65.1545H124.561V59.361C124.555 58.5524 124.596 57.7442 124.684 56.9404C124.757 56.2698 125.055 56.0759 125.841 56.0363L125.849 55.5263Z" fill="white"/>
<path d="M130.249 60.0933C129.178 59.5524 128.565 58.7702 128.409 57.7468C128.244 56.7836 128.364 55.7931 128.756 54.8976C129.162 54.0194 129.643 53.1781 130.194 52.3831C130.831 51.4415 131.587 50.5859 132.443 49.8378C133.35 49.0497 134.344 48.3696 135.407 47.8111C136.397 47.2629 137.472 46.8831 138.586 46.6872C140.48 46.3883 141.776 46.7095 142.475 47.6505C143.174 48.5916 143.153 49.8962 142.411 51.5643C142.051 52.3802 141.422 53.2645 140.527 54.2171C139.631 55.1697 138.847 55.8391 138.174 56.2253L136.494 57.2602C136.459 57.3318 136.686 57.5019 137.176 57.7703C137.666 58.0387 138.083 58.6307 138.428 59.5462C138.659 60.2094 138.748 60.7812 138.695 61.2752C138.642 61.7693 138.437 62.4078 138.078 63.2105C137.544 64.4159 137.039 65.3306 136.562 65.9547C136.275 66.3261 135.775 66.8806 135.064 67.6183C134.54 68.1836 133.974 68.7087 133.371 69.1892C132.364 69.9067 131.288 70.5223 130.16 71.0269C129.339 71.4209 128.465 71.6942 127.566 71.8383C126.659 71.9982 125.734 72.0397 124.816 71.9618C124.24 71.9009 123.801 71.7305 123.501 71.4506C123.044 71.0208 122.755 70.6223 122.636 70.2551C122.513 69.7974 122.479 69.3201 122.537 68.8496C122.629 68.0199 122.852 67.21 123.197 66.45C123.797 65.0923 124.853 63.7803 126.363 62.514C127.323 61.7071 128.618 60.9002 130.249 60.0933ZM131.087 60.8134C130.896 60.8446 130.353 61.2563 129.458 62.0484C128.279 63.0877 127.337 64.3686 126.697 65.8041C126.021 67.3322 125.869 68.4659 126.24 69.2053C126.611 69.9447 127.331 70.2299 128.4 70.0612C129.542 69.8775 130.613 69.388 131.499 68.6446C132.442 67.8696 133.186 66.881 133.671 65.7608C134.083 64.8305 134.222 64.0664 134.09 63.4686C133.957 62.8709 133.457 62.2715 132.588 61.6705C131.718 61.0694 131.217 60.7837 131.087 60.8134ZM135.577 56.6723L136.105 56.2376C136.711 55.7569 137.262 55.2115 137.749 54.6111C138.356 53.8104 138.865 52.9397 139.264 52.0176C139.848 50.7002 139.984 49.7373 139.671 49.1289C139.358 48.5204 138.726 48.2936 137.775 48.4484C136.826 48.599 135.882 49.0543 134.942 49.8143C134.002 50.5742 133.324 51.4252 132.908 52.3671C132.614 53.0315 132.511 53.6078 132.599 54.0961C132.687 54.5843 132.984 55.0335 133.488 55.4435C133.711 55.6641 134.407 56.0738 135.577 56.6723Z" fill="white"/>
<path d="M146.128 57.3653C145.057 56.8252 144.444 56.043 144.286 55.0188C144.122 54.055 144.243 53.0643 144.635 52.1683C145.04 51.2901 145.521 50.4491 146.073 49.6551C146.71 48.7134 147.466 47.8579 148.322 47.1097C149.228 46.321 150.223 45.6404 151.286 45.0818C152.276 44.534 153.35 44.1542 154.464 43.9579C156.362 43.6591 157.659 43.9802 158.354 44.9213C159.05 45.8623 159.028 47.1673 158.289 48.8363C157.928 49.6514 157.3 50.5352 156.406 51.4878C155.511 52.4405 154.728 53.1098 154.059 53.496L152.378 54.5322C152.342 54.6038 152.57 54.773 153.061 55.0422C153.553 55.3115 153.969 55.9067 154.312 56.8169C154.543 57.4814 154.632 58.0577 154.579 58.546C154.526 59.0342 154.32 59.6797 153.961 60.4825C153.428 61.687 152.922 62.6013 152.445 63.2254C152.157 63.5984 151.658 64.1529 150.947 64.889C150.422 65.4542 149.857 65.9797 149.255 66.4612C148.248 67.178 147.172 67.7936 146.044 68.2989C145.224 68.6914 144.353 68.9643 143.456 69.1091C142.549 69.2688 141.624 69.3104 140.706 69.2326C140.13 69.1716 139.691 69.0012 139.391 68.7213C138.932 68.2902 138.65 67.8926 138.526 67.5245C138.401 67.0675 138.367 66.5904 138.426 66.1203C138.517 65.29 138.741 64.4796 139.087 63.7194C139.687 62.3618 140.743 61.0498 142.253 59.7835C143.204 58.9782 144.495 58.1722 146.128 57.3653ZM146.965 58.0865C146.774 58.1162 146.231 58.5279 145.336 59.3216C144.158 60.3628 143.216 61.6448 142.576 63.0809C141.899 64.6099 141.746 65.7436 142.118 66.4822C142.489 67.2207 143.209 67.5064 144.278 67.3393C145.42 67.1552 146.491 66.6653 147.378 65.9215C148.32 65.1464 149.065 64.1579 149.55 63.0377C149.962 62.109 150.101 61.3453 149.969 60.7468C149.836 60.1482 149.335 59.5484 148.466 58.9474C147.596 58.3438 147.096 58.0569 146.965 58.0865ZM151.454 53.9418L151.983 53.5083C152.589 53.0276 153.14 52.4817 153.627 51.8806C154.235 51.0805 154.744 50.2097 155.142 49.287C155.727 47.9697 155.862 47.0068 155.548 46.3983C155.235 45.7899 154.604 45.5622 153.655 45.7154C152.707 45.8644 151.762 46.3197 150.822 47.0813C149.882 47.8429 149.204 48.6934 148.789 49.6328C148.494 50.2973 148.391 50.8736 148.479 51.3619C148.567 51.8501 148.864 52.2993 149.368 52.7093C149.594 52.9332 150.289 53.3441 151.454 53.9418Z" fill="white"/>
<defs>
<radialGradient id="paint0_radial_11_3120" cx="0" cy="0" r="1" gradientUnits="userSpaceOnUse" gradientTransform="translate(43.8911 53.872) scale(28.7678 25.303)">
<stop stop-color="#BF2026"/>
<stop offset="0.51" stop-color="#BE2126"/>
<stop offset="1" stop-color="#C62127"/>
</radialGradient>
</defs>
</svg>
