<svg width="166" height="40" viewBox="0 0 166 40" fill="none" xmlns="http://www.w3.org/2000/svg">
<rect x="0.588379" width="45.1164" height="40" fill="#D3B271"/>
<rect x="2.81665" y="2.22217" width="40.6604" height="35.5556" fill="url(#paint0_radial_147_8468)"/>
<path fill-rule="evenodd" clip-rule="evenodd" d="M17.5598 19.8385V34.2464C17.5598 34.5604 17.4781 34.7578 17.1969 34.7578C16.9157 34.7578 16.7977 34.5604 16.7977 34.2464V32.3445H16.081C15.5658 32.3445 13.9062 33.6151 12.851 34.4229L12.851 34.423C12.5128 34.6819 12.2367 34.8933 12.0803 35C10.9191 34.3272 9.47664 33.6543 8.39708 33.2955C8.2037 33.4751 8.02641 33.6379 7.86582 33.7854C7.52917 34.0945 7.26591 34.3362 7.08164 34.5245C7.01288 34.5925 6.95387 34.6536 6.90224 34.707L6.90221 34.707C6.74273 34.872 6.65363 34.9641 6.56454 34.9641C6.36496 34.9641 6.12002 34.7309 6.12002 34.5245C6.12002 34.3272 6.56454 33.8517 8.60574 31.7793C10.0028 30.3529 10.5653 28.6483 10.5653 26.0287C10.5653 21.7045 8.68738 18.0084 6.52825 18.0084C5.81157 18.0084 5.44869 18.2865 5.33075 19.0042C5.29447 19.363 5.13117 19.4797 4.96788 19.4797C4.65036 19.4797 4.48706 18.9593 4.48706 18.0891C4.48706 16.1065 5.88414 14.5185 7.60782 14.5185C8.40842 14.5185 8.95107 14.8683 9.42007 15.1706C9.81732 15.4266 10.1617 15.6486 10.5653 15.5951V12.6974C10.5653 11.9438 10.2841 11.3068 9.72159 10.8313C9.24077 10.4366 6.76413 8.76794 5.83878 8.76794C5.66168 8.76794 5.53255 8.80423 5.41835 8.83632C5.32781 8.86176 5.24665 8.88457 5.15839 8.88457C5.04045 8.88457 4.99509 8.84868 4.99509 8.76794C4.99509 8.6645 5.05932 8.58929 5.2384 8.37958L5.31261 8.29246L8.46966 5.19737C8.49863 5.17668 8.52474 5.15712 8.54901 5.13894C8.66156 5.05463 8.7345 5 8.86882 5C9.50683 5 11.276 6.1938 12.7232 7.17037C13.7248 7.84624 14.5722 8.41806 14.7837 8.41806C15.1667 8.41806 16.3021 7.71552 17.531 6.95511C18.9805 6.05819 20.5601 5.08074 21.1886 5.08074C21.4868 5.08074 21.793 5.32607 23.8435 6.96884L24.264 7.30562C24.3629 7.38349 24.4865 7.48619 24.6274 7.60331L24.6276 7.60351L24.6277 7.60354C25.0549 7.95869 25.6416 8.44641 26.1872 8.77691C26.8313 9.17165 26.8676 9.25239 26.8676 10.006C27.2668 9.92524 27.7113 9.61124 30.2242 7.58373C30.9409 6.99163 33.0638 5.27811 33.2271 5.27811C33.4267 5.27811 35.1866 5.99581 37.7903 7.0634C38.5523 7.37739 38.6702 7.45813 38.6702 7.93361V28.4599C38.6702 29.1328 38.7519 29.375 39.0331 29.6083C40.2306 30.6399 40.9564 31.0347 41.3556 31.0347C41.4735 31.0347 41.6368 30.9898 41.7547 30.8732C41.9543 30.5951 41.9997 30.5592 42.1176 30.5592C42.2355 30.5592 42.3625 30.7207 42.3625 30.8732C42.3625 31.1154 40.5663 33.3313 38.7247 34.7667C37.6088 34.372 35.6856 33.0622 34.606 31.9498C34.2431 31.555 34.1706 31.4743 34.1706 30.8014V16.1065C34.1706 14.4019 34.7239 13.2446 36.7288 10.5891C37.7721 9.24342 37.8447 8.83971 37.6451 8.83971C37.5479 8.83971 36.6428 9.46032 35.8251 10.021L35.825 10.0211L35.8249 10.0212C35.2698 10.4018 34.7551 10.7548 34.5606 10.8672L34.3073 10.7229C32.3489 9.60703 31.7107 9.24342 30.5962 9.24342C29.9612 9.24342 29.5166 9.55742 29.5166 9.96112V34.372C29.5166 34.686 29.3533 34.9282 29.1175 34.9282C28.9179 34.9282 28.7999 34.7309 28.7999 34.4169V32.5867C27.6732 32.7685 26.6861 33.6786 26.0259 34.2872C25.6762 34.6097 25.4183 34.8475 25.28 34.8475C24.8446 34.8475 22.2409 31.7524 22.2409 31.5102V19.8385H17.5598ZM16.8343 9.71892C16.8343 8.92047 16.7527 8.65134 16.5984 8.65134C16.2446 8.65134 14.9564 9.44978 14.9564 9.71892V20.7087C14.9564 26.041 14.3455 26.6784 12.9611 28.123L12.8789 28.2087C12.2348 28.8816 12.0806 29.0431 11.5998 29.5993C12.4435 30.7476 15.2376 31.268 16.8434 31.1872V9.71892H16.8343ZM22.2406 16.0706H17.5595V9.40493C17.5595 8.8846 17.7953 8.60649 18.2399 8.60649C19.2378 8.60649 22.2406 10.8673 22.2406 11.7016V16.0706ZM28.8003 10.4276C28.8003 10.3469 28.764 10.311 28.637 10.311C28.519 10.311 28.3195 10.3918 28.1924 10.4725L27.2762 11.0287C26.7591 11.3427 26.5958 11.5042 26.5958 11.7464V15.7117C26.5958 15.9898 26.9587 16.1872 27.2399 16.1872H28.8003V10.4276ZM27.2759 19.7577H28.791V31.2679C27.3122 31.1513 26.6318 30.3977 26.6318 28.8098V20.6728C26.6318 20.0807 26.8405 19.7577 27.2759 19.7577Z" fill="white"/>
<path d="M52.5852 26.4536H57.4592C57.5694 27.3671 57.8282 28.0825 58.2358 28.5998C58.8526 29.4033 59.7283 29.805 60.8628 29.805C61.8541 29.805 62.6637 29.4913 63.2915 28.864C63.9194 28.2366 64.2333 27.4497 64.2333 26.5031C64.2333 25.8318 64.0846 25.2759 63.7872 24.8357C63.5008 24.3954 63.0382 24.0047 62.3993 23.6635C62.0579 23.4764 60.8573 22.9811 58.7975 22.1777C57.3986 21.6384 56.3522 21.0715 55.6583 20.4772C54.9754 19.8829 54.4412 19.1399 54.0557 18.2484C53.6702 17.3569 53.4774 16.3884 53.4774 15.3428C53.4774 14.011 53.7968 12.7838 54.4357 11.6612C55.0745 10.5275 55.9667 9.65254 57.1123 9.03619C58.2688 8.40883 59.4859 8.09515 60.7637 8.09515C61.9092 8.09515 62.9666 8.32078 63.9359 8.77204C64.9052 9.2233 65.6983 9.77911 66.3151 10.4395C66.9319 11.0999 67.389 11.8098 67.6864 12.5692C67.9838 13.3176 68.1711 14.2036 68.2482 15.2272H63.5228C63.3797 14.3027 63.1539 13.6533 62.8454 13.2791C62.3718 12.7068 61.6889 12.4206 60.7967 12.4206C59.9926 12.4206 59.3483 12.6628 58.8636 13.147C58.379 13.6203 58.1366 14.2422 58.1366 15.0126C58.1366 15.8491 58.423 16.5094 58.9958 16.9937C59.4254 17.3569 60.3506 17.7807 61.7715 18.2649C63.1924 18.7382 64.2168 19.1455 64.8446 19.4866C65.8029 20.0039 66.5574 20.5873 67.1081 21.2366C67.6699 21.875 68.0995 22.6234 68.3969 23.4819C68.7053 24.3294 68.8595 25.2759 68.8595 26.3215C68.8595 28.952 67.8571 31.0157 65.8525 32.5126C64.4095 33.5912 62.7408 34.1305 60.8463 34.1305C59.877 34.1305 58.9352 33.9764 58.021 33.6682C57.1178 33.3601 56.3137 32.9363 55.6088 32.397C54.9038 31.8467 54.331 31.2413 53.8905 30.581C53.4499 29.9206 53.1249 29.2217 52.9156 28.4843C52.7614 27.945 52.6513 27.2681 52.5852 26.4536Z" fill="white"/>
<path d="M72.2135 33.6187V8.59044H78.5084C80.0945 8.59044 81.3227 8.67298 82.1928 8.83808C83.063 8.99216 83.834 9.25632 84.5059 9.63053C85.1888 9.99374 85.8167 10.5 86.3895 11.1494C86.9732 11.7988 87.4248 12.5582 87.7443 13.4277C88.0637 14.2862 88.2234 15.2602 88.2234 16.3499C88.2234 18.0008 87.8324 19.4371 87.0503 20.6588C86.2793 21.8805 85.288 22.7555 84.0764 23.2838C82.8757 23.8121 81.0198 24.0763 78.5084 24.0763H76.8562V33.6187H72.2135ZM76.8562 19.7508H78.3432C80.3038 19.7508 81.6641 19.4701 82.4241 18.9088C83.1952 18.3365 83.5807 17.478 83.5807 16.3333C83.5807 15.6069 83.3934 14.9741 83.0189 14.4348C82.6444 13.8955 82.1212 13.5102 81.4493 13.2791C80.7885 13.048 79.8081 12.9324 78.5084 12.9324H76.8562V19.7508Z" fill="white"/>
<path d="M88.5538 21.1706C88.5538 19.4316 88.8788 17.7697 89.5287 16.1848C90.1785 14.5999 91.0707 13.2351 92.2052 12.0904C93.3398 10.9458 94.5954 10.0433 95.9723 9.38289C97.7567 8.5244 99.6512 8.09515 101.656 8.09515C103.528 8.09515 105.269 8.45836 106.877 9.18477C108.485 9.90018 109.829 10.8137 110.908 11.9253C111.999 13.026 112.852 14.2256 113.469 15.5244C114.317 17.2854 114.741 19.1565 114.741 21.1376C114.741 22.6124 114.51 24.0047 114.047 25.3145C113.596 26.6242 112.99 27.7854 112.23 28.798C111.481 29.7995 110.578 30.7075 109.52 31.522C108.474 32.3365 107.262 32.9748 105.886 33.4371C104.509 33.8994 103.099 34.1305 101.656 34.1305C99.6953 34.1305 97.9164 33.7618 96.3192 33.0244C94.7221 32.2759 93.3783 31.3514 92.2878 30.2508C91.2084 29.1391 90.3713 27.945 89.7765 26.6682C88.9614 24.9072 88.5538 23.0747 88.5538 21.1706ZM93.1966 21.1376C93.1966 22.3373 93.4169 23.4544 93.8574 24.489C94.298 25.5236 94.8763 26.4206 95.5923 27.18C96.3192 27.9395 97.1949 28.5668 98.2193 29.0621C99.2547 29.5574 100.4 29.805 101.656 29.805C103.11 29.805 104.503 29.4253 105.836 28.6659C107.169 27.9064 108.215 26.8388 108.975 25.4631C109.735 24.0873 110.115 22.6399 110.115 21.1211C110.115 19.6022 109.735 18.1549 108.975 16.7791C108.215 15.3923 107.169 14.3192 105.836 13.5598C104.514 12.8003 103.121 12.4206 101.656 12.4206C100.378 12.4206 99.2326 12.6683 98.2193 13.1635C97.2169 13.6478 96.3413 14.2752 95.5923 15.0456C94.8433 15.8161 94.254 16.7406 93.8244 17.8192C93.4058 18.8868 93.1966 19.9929 93.1966 21.1376Z" fill="white"/>
<path d="M118.013 33.6187V8.59044H125.696C127.601 8.59044 129.165 8.84358 130.388 9.34987C131.225 9.69106 131.974 10.1918 132.635 10.8522C133.296 11.5016 133.819 12.2115 134.204 12.9819C134.744 14.0385 135.014 15.1942 135.014 16.4489C135.014 17.5605 134.805 18.6061 134.386 19.5857C133.979 20.5653 133.455 21.3797 132.817 22.0291C132.178 22.6675 131.495 23.1627 130.768 23.5149C130.041 23.8671 129.171 24.1588 128.157 24.3899L134.964 33.6187H129.347L122.722 24.0432H122.655V33.6187H118.013ZM122.655 12.9324V20.5763H125.629C126.555 20.5763 127.397 20.4002 128.157 20.048C128.719 19.7838 129.182 19.3546 129.545 18.7602C129.909 18.1659 130.09 17.5 130.09 16.7626C130.09 16.0362 129.909 15.3648 129.545 14.7484C129.182 14.1321 128.697 13.6753 128.091 13.3782C127.485 13.081 126.665 12.9324 125.629 12.9324H122.655Z" fill="white"/>
<path d="M139.525 33.6187V12.9324H134.882V8.59044H148.827V12.9324H144.151V33.6187H139.525Z" fill="white"/>
<path d="M149.306 26.4536H154.18C154.29 27.3671 154.549 28.0825 154.956 28.5998C155.573 29.4033 156.449 29.805 157.583 29.805C158.575 29.805 159.384 29.4913 160.012 28.864C160.64 28.2366 160.954 27.4497 160.954 26.5031C160.954 25.8318 160.805 25.2759 160.508 24.8357C160.221 24.3954 159.759 24.0047 159.12 23.6635C158.778 23.4764 157.578 22.9811 155.518 22.1777C154.119 21.6384 153.073 21.0715 152.379 20.4772C151.696 19.8829 151.162 19.1399 150.776 18.2484C150.391 17.3569 150.198 16.3884 150.198 15.3428C150.198 14.011 150.517 12.7838 151.156 11.6612C151.795 10.5275 152.687 9.65254 153.833 9.03619C154.989 8.40883 156.206 8.09515 157.484 8.09515C158.63 8.09515 159.687 8.32078 160.656 8.77204C161.626 9.2233 162.419 9.77911 163.036 10.4395C163.652 11.0999 164.109 11.8098 164.407 12.5692C164.704 13.3176 164.892 14.2036 164.969 15.2272H160.243C160.1 14.3027 159.874 13.6533 159.566 13.2791C159.092 12.7068 158.409 12.4206 157.517 12.4206C156.713 12.4206 156.069 12.6628 155.584 13.147C155.099 13.6203 154.857 14.2422 154.857 15.0126C154.857 15.8491 155.143 16.5094 155.716 16.9937C156.146 17.3569 157.071 17.7807 158.492 18.2649C159.913 18.7382 160.937 19.1455 161.565 19.4866C162.523 20.0039 163.278 20.5873 163.829 21.2366C164.39 21.875 164.82 22.6234 165.117 23.4819C165.426 24.3294 165.58 25.2759 165.58 26.3215C165.58 28.952 164.578 31.0157 162.573 32.5126C161.13 33.5912 159.461 34.1305 157.567 34.1305C156.597 34.1305 155.656 33.9764 154.741 33.6682C153.838 33.3601 153.034 32.9363 152.329 32.397C151.624 31.8467 151.051 31.2413 150.611 30.581C150.17 29.9206 149.845 29.2217 149.636 28.4843C149.482 27.945 149.372 27.2681 149.306 26.4536Z" fill="white"/>
<defs>
<radialGradient id="paint0_radial_147_8468" cx="0" cy="0" r="1" gradientUnits="userSpaceOnUse" gradientTransform="translate(24.0418 4.10008) scale(72.1873 63.1242)">
<stop stop-color="#C01617"/>
<stop offset="0.5051" stop-color="#BE181B"/>
<stop offset="1" stop-color="#C7120C"/>
</radialGradient>
</defs>
</svg>
