<svg width="132" height="40" viewBox="0 0 132 40" fill="none" xmlns="http://www.w3.org/2000/svg">
<path d="M125.66 30.5995C126.598 30.4598 126.803 29.9731 126.803 29.1399V28.2621C126.803 27.3389 126.063 26.8765 124.584 26.8749C123.104 26.8734 122.365 27.3358 122.365 28.2621V29.2964C122.365 30.0235 122.526 30.4036 123.38 30.5491C122.526 30.7397 122.365 31.271 122.365 32.048V33.1837C122.365 34.1177 123.104 34.5838 124.584 34.5819C126.063 34.5799 126.803 34.1139 126.803 33.1837V32.0596C126.803 31.2021 126.598 30.7171 125.66 30.5995ZM124.573 30.1133C124.246 30.1133 124.084 29.9563 124.084 29.6498V28.1734C124.084 27.8716 124.246 27.7261 124.573 27.7261C124.9 27.7261 125.072 27.8773 125.072 28.1734V29.6498C125.072 29.9563 124.906 30.1133 124.573 30.1133ZM124.573 33.6866C124.246 33.6866 124.084 33.5302 124.084 33.2231V31.5497C124.084 31.231 124.246 31.0746 124.573 31.0746C124.9 31.0746 125.072 31.231 125.072 31.5497V33.2219C125.072 33.5302 124.906 33.6866 124.573 33.6866Z" fill="white"/>
<path d="M130.749 30.5995C131.687 30.4598 131.893 29.9731 131.893 29.1399V28.2621C131.893 27.3389 131.153 26.8765 129.672 26.8749C128.189 26.8749 127.451 27.3385 127.451 28.2621V29.2963C127.451 30.0235 127.612 30.4036 128.467 30.5491C127.612 30.7397 127.451 31.271 127.451 32.048V33.1837C127.451 34.1177 128.189 34.5818 129.672 34.5818C131.155 34.5818 131.893 34.1183 131.893 33.1837V32.0596C131.893 31.2021 131.687 30.7171 130.749 30.5995ZM129.661 30.1133C129.333 30.1133 129.172 29.9563 129.172 29.6498V28.1734C129.172 27.8715 129.333 27.7261 129.661 27.7261C129.989 27.7261 130.161 27.8773 130.161 28.1734V29.6498C130.166 29.9563 129.999 30.1133 129.661 30.1133ZM129.661 33.6866C129.333 33.6866 129.172 33.5302 129.172 33.2231V31.5497C129.172 31.231 129.333 31.0746 129.661 31.0746C129.989 31.0746 130.161 31.231 130.161 31.5497V33.2219C130.166 33.5302 129.999 33.6866 129.661 33.6866Z" fill="white"/>
<path d="M113.009 26.9856C113.009 26.9562 113.021 26.9281 113.042 26.9073C113.062 26.8866 113.091 26.8749 113.12 26.8749H121.606C121.635 26.8749 121.663 26.8866 121.684 26.9074C121.705 26.9281 121.716 26.9563 121.716 26.9856V34.5245C121.716 34.5391 121.714 34.5535 121.708 34.567C121.703 34.5805 121.694 34.5928 121.684 34.6031C121.674 34.6134 121.662 34.6217 121.648 34.6273C121.635 34.6328 121.62 34.6357 121.606 34.6357H113.12C113.105 34.6357 113.091 34.6329 113.077 34.6273C113.064 34.6217 113.052 34.6135 113.041 34.6031C113.031 34.5928 113.023 34.5806 113.017 34.5671C113.012 34.5536 113.009 34.5391 113.009 34.5245V26.9856Z" fill="#D4B372"/>
<path d="M113.438 27.4172C113.438 27.3877 113.45 27.3594 113.471 27.3386C113.492 27.3177 113.52 27.306 113.55 27.306H121.176C121.19 27.306 121.205 27.3089 121.218 27.3144C121.231 27.32 121.244 27.3283 121.254 27.3386C121.264 27.3489 121.272 27.3612 121.278 27.3747C121.283 27.3882 121.286 27.4026 121.286 27.4172V34.0933C121.286 34.1079 121.283 34.1224 121.278 34.1359C121.272 34.1493 121.264 34.1616 121.254 34.172C121.244 34.1823 121.231 34.1905 121.218 34.1961C121.205 34.2017 121.19 34.2046 121.176 34.2046H113.55C113.52 34.2046 113.492 34.1929 113.471 34.172C113.45 34.1511 113.438 34.1228 113.438 34.0933V27.4172Z" fill="url(#paint0_radial_254_9232)"/>
<path fill-rule="evenodd" clip-rule="evenodd" d="M116.373 30.7251V33.172C116.373 33.2253 116.359 33.2589 116.312 33.2589C116.265 33.2589 116.244 33.2253 116.244 33.172V32.8492H116.122C116.035 32.8492 115.756 33.0648 115.578 33.2021C115.52 33.2461 115.474 33.282 115.447 33.3C115.25 33.1842 115.041 33.0873 114.826 33.0103L114.736 33.0932C114.678 33.1459 114.635 33.1864 114.604 33.2189C114.592 33.2299 114.582 33.2403 114.574 33.2496C114.546 33.2774 114.531 33.2931 114.516 33.2931C114.497 33.2908 114.479 33.2822 114.466 33.2688C114.452 33.2554 114.443 33.2378 114.441 33.2189C114.441 33.1853 114.516 33.103 114.86 32.7554C115.096 32.5132 115.191 32.224 115.191 31.7796C115.191 31.0461 114.874 30.4185 114.51 30.4185C114.389 30.4185 114.327 30.4661 114.308 30.5877C114.301 30.6486 114.274 30.6683 114.246 30.6683C114.193 30.6683 114.165 30.5802 114.165 30.4324C114.165 30.0958 114.401 29.8264 114.692 29.8264C114.803 29.8305 114.91 29.8692 114.998 29.937C115.065 29.9805 115.123 30.0182 115.191 30.0095V29.5175C115.193 29.4575 115.181 29.3978 115.156 29.343C115.132 29.2882 115.095 29.2397 115.049 29.2012C114.968 29.134 114.55 28.8506 114.393 28.8506C114.369 28.851 114.346 28.8549 114.323 28.8622C114.308 28.8673 114.294 28.8702 114.279 28.8709C114.258 28.8709 114.251 28.8645 114.251 28.8506C114.251 28.8367 114.262 28.8205 114.292 28.7851L114.305 28.7701L114.837 28.2451L114.851 28.2353C114.865 28.2209 114.884 28.2124 114.905 28.2115C115.012 28.2115 115.311 28.4143 115.555 28.58C115.724 28.6959 115.867 28.7915 115.903 28.7915C115.967 28.7915 116.159 28.6722 116.366 28.5435C116.611 28.3911 116.877 28.2254 116.983 28.2254C117.034 28.2254 117.085 28.2671 117.432 28.5458L117.501 28.6038L117.562 28.6542C117.645 28.7267 117.733 28.7933 117.825 28.8535C117.934 28.9207 117.941 28.9341 117.941 29.0621C118.008 29.0482 118.083 28.9949 118.507 28.6513C118.628 28.5505 118.986 28.2596 119.014 28.2596C119.042 28.2596 119.345 28.3819 119.784 28.5626C119.913 28.616 119.933 28.6299 119.933 28.7104V32.1869C119.933 32.3028 119.947 32.3422 119.994 32.3816C120.196 32.5554 120.319 32.6238 120.386 32.6238C120.411 32.6236 120.436 32.6136 120.454 32.596C120.487 32.5491 120.495 32.5427 120.515 32.5427C120.535 32.5427 120.556 32.5705 120.556 32.596C120.556 32.6371 120.253 33.0132 119.942 33.2571C119.754 33.1899 119.429 32.9674 119.247 32.7791C119.185 32.7119 119.173 32.698 119.173 32.5838V30.0923C119.173 29.8026 119.266 29.6068 119.605 29.1566C119.778 28.9283 119.793 28.8593 119.759 28.8593C119.653 28.92 119.551 28.987 119.452 29.0598C119.358 29.1247 119.271 29.1844 119.238 29.2035L119.196 29.1792C118.865 28.9897 118.758 28.9283 118.57 28.9283C118.463 28.9283 118.387 28.9816 118.387 29.0499V33.1917C118.387 33.245 118.36 33.2861 118.32 33.2861C118.28 33.2861 118.266 33.2525 118.266 33.1992V32.8886C118.076 32.9193 117.91 33.074 117.798 33.1783C117.74 33.2334 117.695 33.2734 117.672 33.2734C117.599 33.2734 117.159 32.7484 117.159 32.7073V30.7268L116.373 30.7251ZM116.25 29.0082C116.25 28.8726 116.236 28.8269 116.21 28.8269C116.152 28.8269 115.933 28.9624 115.933 29.0082V30.8728C115.933 31.7773 115.83 31.8856 115.597 32.1307L115.583 32.1452C115.474 32.2611 115.448 32.2866 115.367 32.381C115.509 32.5763 115.981 32.6644 116.252 32.6505V29.0082H116.25ZM117.163 30.0859H116.373V28.9549C116.373 28.8668 116.413 28.8193 116.489 28.8193C116.657 28.8193 117.164 29.2029 117.164 29.3443L117.163 30.0859ZM118.27 29.1282C118.27 29.1148 118.264 29.1085 118.242 29.1085C118.216 29.1117 118.19 29.1213 118.167 29.1363L118.012 29.2301C117.926 29.2834 117.897 29.3113 117.897 29.3524V30.0251C117.897 30.072 117.958 30.1056 118.005 30.1056H118.269L118.27 29.1282ZM118.012 30.7111H118.266V32.6644C118.016 32.6447 117.902 32.5166 117.902 32.2472V30.8664C117.904 30.7662 117.939 30.7111 118.012 30.7111Z" fill="white"/>
<path d="M108.319 30.5438C108.319 30.5999 108.308 30.6553 108.288 30.7078C108.268 30.7651 108.239 30.8192 108.203 30.8683C108.167 30.9168 108.123 30.9586 108.073 30.9917C108.023 31.0253 107.965 31.0441 107.906 31.0462C107.971 31.0515 108.034 31.0697 108.092 31.0995C108.154 31.1314 108.21 31.1744 108.257 31.2264C108.306 31.2808 108.347 31.3428 108.377 31.41C108.408 31.4798 108.424 31.5555 108.424 31.632C108.427 31.7522 108.406 31.8719 108.361 31.9837C108.324 32.0736 108.266 32.1531 108.191 32.2154C108.117 32.2755 108.031 32.3188 107.939 32.3423C107.838 32.3684 107.735 32.3812 107.631 32.3806H106.456V29.8357H107.576C107.673 29.8351 107.77 29.8451 107.865 29.8653C107.951 29.8829 108.032 29.9197 108.102 29.9731C108.172 30.0304 108.227 30.1048 108.262 30.1892C108.304 30.3023 108.324 30.4229 108.319 30.5438ZM106.943 30.8723H107.541C107.585 30.8735 107.628 30.8637 107.668 30.8439C107.703 30.8262 107.733 30.8013 107.758 30.7709C107.783 30.7403 107.803 30.7053 107.816 30.6678C107.829 30.6305 107.835 30.5913 107.835 30.5519C107.835 30.5148 107.828 30.478 107.814 30.4436C107.8 30.4101 107.781 30.3793 107.756 30.3526C107.733 30.327 107.705 30.3058 107.675 30.29C107.644 30.274 107.61 30.2656 107.576 30.2657H106.943V30.8723ZM107.631 31.9501C107.672 31.9498 107.711 31.9396 107.747 31.9205C107.784 31.9005 107.818 31.8734 107.844 31.8406C107.872 31.8071 107.894 31.7696 107.91 31.7293C107.926 31.6901 107.935 31.6482 107.935 31.6059C107.935 31.5652 107.927 31.5248 107.911 31.4875C107.894 31.4503 107.87 31.4171 107.839 31.3903C107.766 31.329 107.672 31.298 107.577 31.3034H106.939V31.9501H107.631Z" fill="#FFFEFF"/>
<path d="M110.85 29.8398C110.785 29.9464 110.71 30.0681 110.625 30.2048L110.366 30.6237L110.106 31.0444C110.02 31.1823 109.945 31.3069 109.88 31.4181V32.3811H109.393V31.4181C109.242 31.1539 109.082 30.8909 108.913 30.629C108.744 30.3671 108.583 30.104 108.43 29.8398H108.995C109.1 30.0136 109.206 30.1932 109.315 30.3786C109.424 30.5641 109.531 30.7437 109.635 30.9175C109.686 30.8364 109.739 30.7495 109.795 30.6568C109.851 30.5641 109.906 30.4708 109.962 30.3769L110.127 30.0988L110.282 29.8398H110.85Z" fill="#FFFEFF"/>
<path d="M44.1272 35.6295V35.1302C43.0038 35.0054 42.9414 34.8806 42.879 33.57L42.7542 28.0779C42.7542 26.8922 42.7542 26.7673 43.9399 26.6425V26.0808H41.0067L38.1359 32.509L35.3274 26.0808H32.3318V26.5801C33.58 26.7049 33.7048 26.8922 33.58 28.5772L33.3303 31.448C33.2055 33.0083 33.1431 33.7572 33.0183 34.1941C32.9559 34.6933 32.6438 34.943 31.8325 35.0678V35.5671H35.3274V35.0678C34.3913 35.0054 34.0793 34.8182 34.0168 34.1941C33.9544 33.7572 33.9544 33.0707 34.0168 31.8225L34.2041 28.0155H34.2665L37.1997 35.5047H37.6366L40.8195 27.8907H40.8819V33.5076C40.8819 34.8806 40.8195 34.943 39.6961 35.0678V35.5671H44.1272V35.6295Z" fill="white"/>
<path d="M55.0487 35.6295V35.1302C54.1126 35.0054 53.9253 34.8182 53.4261 33.5076C52.4899 31.0112 51.5538 28.4524 50.68 25.8936L49.9311 26.0808L46.9979 33.57C46.4986 34.8182 46.3738 34.943 45.3752 35.0678V35.5671H48.6205V35.0678C47.5596 34.943 47.5596 34.7557 47.7468 34.0068C47.934 33.4451 48.1213 32.8835 48.2461 32.4466H51.0545C51.2417 33.0707 51.4914 33.6324 51.6162 34.1317C51.8658 34.7557 51.8034 34.943 50.9297 35.0678V35.5671H55.0487V35.6295ZM50.7425 31.6977H48.4957C48.8702 30.6367 49.2446 29.5758 49.6191 28.5148H49.6815L50.7425 31.6977Z" fill="white"/>
<path d="M66.5945 26.0808H63.0372V26.5801C64.0981 26.6425 64.4102 26.8922 64.4726 27.5163C64.4726 27.9531 64.5974 28.6396 64.5974 29.8878V32.4466H64.535L59.043 26.0808H56.3594V26.5801C56.9835 26.6425 57.2955 26.7673 57.5451 27.0794C57.7948 27.3914 57.8572 27.7035 57.8572 28.6396V31.6977C57.8572 33.0083 57.7948 33.6324 57.7324 34.1316C57.67 34.7557 57.3579 35.0054 56.5466 35.0678V35.5671H60.1039V35.0678C59.043 35.0054 58.7933 34.7557 58.7309 34.1316C58.6685 33.6948 58.6061 33.0707 58.6061 31.7601V28.4524H58.6685L64.7222 35.7543H65.4087V29.9502C65.4087 28.6396 65.4711 27.9531 65.5335 27.5163C65.596 26.8298 65.908 26.6425 66.7193 26.5801V26.0808H66.5945Z" fill="white"/>
<path d="M73.7091 28.3276C73.5843 27.3915 73.5219 26.7674 73.4595 26.2057C73.2098 26.0809 72.3985 25.8312 71.4624 25.8312C69.4029 25.8312 68.1547 27.0794 68.1547 28.7021C68.1547 30.1375 69.2156 30.8864 70.651 31.6353C71.712 32.197 72.3985 32.7587 72.3985 33.6324C72.3985 34.5685 71.8368 35.1926 70.9631 35.1926C69.5901 35.1926 68.7163 33.57 68.4043 32.6339L67.905 32.8211C68.0298 33.6948 68.2171 34.943 68.3419 35.3175C68.5291 35.3799 68.8412 35.5047 69.2156 35.6295C69.6525 35.7543 70.1518 35.8167 70.7135 35.8167C72.8354 35.8167 74.2708 34.5061 74.2708 32.8211C74.2708 31.3857 73.2098 30.5743 71.712 29.8254C70.4638 29.2013 69.9021 28.7021 69.9021 27.8907C69.9021 27.0794 70.5262 26.4553 71.3375 26.4553C72.5233 26.4553 73.085 27.5163 73.3971 28.4524L73.7091 28.3276Z" fill="white"/>
<path d="M79.7629 35.6295V35.1302C78.702 35.0054 78.5772 34.943 78.5772 33.6948V28.0779C78.5772 26.8298 78.702 26.7049 79.7629 26.6425V26.0808H75.3943V26.5801C76.4552 26.7049 76.5801 26.7673 76.5801 28.0155V33.6324C76.5801 34.8806 76.4552 34.943 75.3943 35.0678V35.5671H79.7629V35.6295Z" fill="white"/>
<path d="M86.1286 25.8936C82.8209 25.8936 81.011 28.39 81.011 30.8864C81.011 33.6948 83.0081 35.8791 85.9413 35.8791C88.6873 35.8791 90.9341 33.9444 90.9341 30.824C90.9341 27.8283 88.8122 25.8936 86.1286 25.8936ZM85.8789 26.4553C87.564 26.4553 88.7497 28.2028 88.7497 31.136C88.7497 33.8196 87.6264 35.1926 86.2534 35.1926C84.3811 35.1926 83.3201 33.0707 83.3201 30.5743C83.2577 28.0779 84.4435 26.4553 85.8789 26.4553Z" fill="white"/>
<path d="M102.48 26.0808H98.9223V26.5801C99.9833 26.6425 100.295 26.8922 100.358 27.5163C100.358 27.9531 100.483 28.6396 100.483 29.8878V32.4466H100.42L94.8657 26.0808H92.1821V26.5801C92.8062 26.6425 93.1183 26.7673 93.3679 27.0794C93.6175 27.3914 93.68 27.7035 93.68 28.6396V31.6977C93.68 33.0083 93.6175 33.6324 93.5551 34.1316C93.4927 34.7557 93.1807 35.0054 92.3694 35.0678V35.5671H95.9267V35.0678C94.8657 35.0054 94.6161 34.7557 94.5537 34.1316C94.4913 33.6948 94.4289 33.0707 94.4289 31.7601V28.4524H94.4913L100.545 35.7543H101.231V29.9502C101.231 28.6396 101.294 27.9531 101.356 27.5163C101.419 26.8298 101.731 26.6425 102.542 26.5801V26.0808H102.48Z" fill="white"/>
<path d="M5.16611 13.7874V13.8206V13.8538V13.887V13.9203V13.9535V13.9867V14.0199V14.0532C5.16611 14.0532 5.1495 14.0532 5.11628 14.0532C5.08306 14.0532 5.04983 14.0698 5 14.0864C4.95017 14.103 4.88372 14.1196 4.83389 14.1528C4.76744 14.186 4.701 14.2193 4.63455 14.2691C4.56811 14.3189 4.50166 14.3854 4.43522 14.4518C4.36877 14.5349 4.31894 14.6179 4.2691 14.7176C4.21927 14.8173 4.16944 14.9502 4.15282 15.0831C4.1196 15.2159 4.10299 15.3821 4.10299 15.5648L3.65449 15.897L3.22259 16.196L2.7907 16.495L2.3588 16.794L1.92691 17.093L1.49502 17.4253L1.06312 17.7243L0.631229 18.0233H1.01329H1.39535H1.77741H2.15947H2.54153H2.92359H3.30565H3.68771L3.62126 18.2724L3.55482 18.5216L3.48837 18.7708L3.42193 19.0199L3.35548 19.2691L3.28904 19.5183L3.22259 19.7674L3.15615 20.0166L2.7907 20.3488L2.42525 20.6811L2.0598 21.0133L1.69435 21.3455L1.3289 21.6777L0.963455 22.01L0.598007 22.3422L0.232558 22.6744H1.16279H2.07641H2.99003H3.90365H4.81728H5.7309H6.64452H7.55814L7.40864 22.5249L7.25914 22.3754L7.10964 22.2259L6.96013 22.0764L6.81063 21.9269L6.66113 21.7774L6.51163 21.6279L6.36213 21.4784L6.49502 20.6977L6.62791 19.9169L6.7608 19.1362L6.89369 18.3555L7.02658 17.5748L7.15947 16.794L7.29236 16.0133L7.42525 15.2326L8.2392 16.1462L9.05316 17.0598L9.86711 17.9734L10.6811 18.887L11.495 19.8007L12.309 20.7143L13.1229 21.6279L13.9369 22.5415L14.7841 21.6279L15.6312 20.7143L16.4784 19.8007L17.3256 18.887L18.1728 17.9734L19.0199 17.0598L19.8671 16.1462L20.7143 15.2326L20.8804 16.0133L21.0465 16.794L21.2126 17.5748L21.3787 18.3555L21.5449 19.1362L21.711 19.9169L21.8771 20.6977L22.0432 21.4784L21.9103 21.6445L21.7774 21.8106L21.6445 21.9767L21.5116 22.1429L21.3787 22.309L21.2458 22.4751L21.113 22.6412L20.9801 22.8073H21.8439H22.7076H23.5714H24.4352H25.299H26.1628H27.0266H27.8904L27.5249 22.4917L27.1595 22.1761L26.794 21.8605L26.4286 21.5449L26.0631 21.2292L25.6977 20.9136L25.5814 20.4319L25.216 20.1163L25.1661 19.8505L25.1163 19.5847L25.0664 19.3189L25.0166 19.0532L24.9668 18.7874L24.9169 18.5216L24.8671 18.2558L24.8173 17.99L25.1993 17.9734L25.5814 17.9568L25.9635 17.9402L26.3455 17.9236L26.7276 17.907L27.1096 17.8904L27.4917 17.8738L27.8738 17.8571L27.4585 17.5914L27.0432 17.3256L26.6279 17.0598L26.2126 16.794L25.7973 16.5282L25.3821 16.2625L24.9668 15.9967L24.5515 15.7309C24.5515 15.7309 24.5515 15.7143 24.5515 15.6645C24.5515 15.6146 24.5349 15.5648 24.5349 15.4817C24.5183 15.4153 24.5017 15.3156 24.4851 15.2326C24.4684 15.1329 24.4352 15.0498 24.402 14.9502C24.3688 14.8505 24.3189 14.7508 24.2691 14.6678C24.2193 14.5681 24.1362 14.4851 24.0698 14.4186C23.9867 14.3522 23.9037 14.2857 23.7874 14.2359C23.6711 14.186 23.5548 14.1694 23.4219 14.1694V14.1196V14.0698V14.0199V13.9701V13.9203V13.8704V13.8206V13.7874H23.7375H24.0532H24.3688H24.6844H25H25.3156H25.6312H25.9468L26.3289 13.4053L26.711 13.0233L27.093 12.6412L27.4751 12.2591L27.8571 11.8771L28.2392 11.495L28.6213 11.113L29.0033 10.7309H28.0731H27.1429H26.2126H25.2824H24.3522H23.4219H22.4917H21.5615L20.6478 11.7276L19.7342 12.7243L18.8206 13.7209L17.907 14.7176L16.9934 15.7143L16.0797 16.711L15.1661 17.7076L14.2525 18.7043L13.3887 17.7076L12.5249 16.711L11.6611 15.7143L10.7973 14.7176L9.93356 13.7209L9.06977 12.7243L8.20598 11.7276L7.34219 10.7309H6.42857H5.51495H4.60133H3.68771H2.77409H1.86047H0.913621H0L0.299003 11.113L0.598007 11.495L0.89701 11.8771L1.19601 12.2591L1.49502 12.6412L1.79402 13.0233L2.09302 13.4053L2.39203 13.7874H2.74086H3.0897H3.43854H3.78738H4.13621H4.48505H4.81728H5.16611Z" fill="#CD242B"/>
<path d="M3.1062 26.6113H5.43178H7.75736H10.0829H12.4251H14.7507H17.0763H19.4019H21.7275L21.4949 26.9103L21.2457 27.2093L20.9966 27.5083L20.7474 27.8073L20.5148 28.1063L20.2657 28.4053L20.0165 28.7043L19.7673 29.0033H19.0198H18.2723H17.5248H16.7773H16.0132H15.2657H14.5182H13.7706V28.7375V28.4551V28.1894V27.9236V27.6412V27.3754V27.1096V26.8438L13.4218 27.1428L13.073 27.4585L12.7241 27.7741L12.3753 28.0731L12.0265 28.3887L11.661 28.7043L11.3122 29.0033L10.9633 29.3189V30.6478V31.9933V33.3222V34.6678V35.9967V37.3422V38.6711V40L11.5281 39.4352L12.1095 38.8704L12.6743 38.3056L13.2391 37.7409L13.8039 37.1761L14.3687 36.5947L14.9501 36.0299L15.5148 35.4651H15.2823H15.0663H14.8504H14.6178H14.4019H14.1693H13.9534H13.7374V35.0332V34.6013V34.1694V33.7375V33.3056V32.8737V32.4418V32.01H14.651H15.5813H16.5115H17.4251H18.3554H19.2856H20.2158H21.1295L22.0431 30.9634L22.9401 29.9335L23.8371 28.887L24.7341 27.8571L25.6311 26.8272L26.5447 25.7807L27.4417 24.7508L28.3388 23.7209H24.8172H21.3122H17.7906H14.269H10.7474H7.24241H3.72081H0.199219L0.564667 24.0864L0.930116 24.4352L1.29556 24.8007L1.6444 25.1661L2.00985 25.5315L2.3753 25.897L2.74075 26.2624L3.1062 26.6113Z" fill="#CD242B"/>
<path d="M5.39868 29.0864L5.98008 29.6678L6.56147 30.2492L7.14287 30.8472L7.70765 31.4286L8.28905 32.0266L8.87044 32.608L9.45184 33.1894L10.0332 33.7874V32.907V32.01V31.1296V30.2492V29.3688V28.4884V27.608V26.711L9.70101 27.01L9.36878 27.309L9.03656 27.608L8.68772 27.907L8.35549 28.1894L8.02327 28.4884L7.69104 28.7874L7.35881 29.0864H7.12626H6.87709H6.62792H6.37875H6.14619H5.89702H5.64785H5.39868Z" fill="#CD242B"/>
<path d="M9.40192 8.77077C9.3853 8.78738 9.38531 8.80399 9.36869 8.8206C9.35208 8.83721 9.35208 8.85382 9.33547 8.87043C9.31886 8.88704 9.31886 8.90366 9.30225 8.92027C9.28564 8.93688 9.28564 8.95349 9.26903 8.9701C9.25241 8.98671 9.25241 9.00332 9.2358 9.01994C9.2358 9.03655 9.21919 9.05316 9.21919 9.06977C9.21919 9.08638 9.20258 9.10299 9.20258 9.1196C9.20258 9.13621 9.18597 9.15283 9.18597 9.16944L8.73746 8.77077L8.30557 8.30565L7.85707 7.90698L7.40856 7.50831L6.96006 7.10964L6.51155 6.71097L6.06305 6.31229L5.61454 5.91362V5.99668V6.07974V6.16279V6.24585V6.3289V6.41196V6.47841V6.56146L6.04643 6.92691L6.47833 7.29236L6.91022 7.65781L7.34212 8.02326L7.77401 8.38871L8.2059 8.75415L8.6378 9.1196L9.06969 9.48505C9.05308 9.53489 9.03647 9.58472 9.01986 9.63455C9.00325 9.68439 8.98663 9.73422 8.97002 9.78406C8.95341 9.83389 8.9368 9.88372 8.9368 9.93356C8.92019 9.98339 8.92019 10.0332 8.90358 10.0831C8.88697 10.1329 8.88697 10.1827 8.87036 10.2326C8.87036 10.2824 8.85374 10.3322 8.85374 10.3987C8.85374 10.4485 8.83713 10.4983 8.83713 10.5648C8.83713 10.6146 8.83713 10.6645 8.83713 10.7309V10.7475V10.7641V10.7807V10.7973V10.814V10.8306V10.8472V10.8638L9.28564 11.3455L9.73414 11.8272L10.1826 12.309L10.6312 12.7907L11.0797 13.2724L11.5282 13.7542L11.9767 14.2359L12.4252 14.7176L12.6577 14.9668L12.8903 15.216L13.1228 15.4651L13.3554 15.7143L13.588 15.9635L13.8205 16.2126L14.0531 16.4618L14.2856 16.711L14.5182 16.4618L14.7508 16.2126L14.9833 15.9635L15.2159 15.7143L15.4484 15.4651L15.681 15.216L15.9135 14.9668L16.1461 14.7176L16.6444 14.2027L17.1428 13.6877L17.6411 13.1728L18.1395 12.6578L18.6378 12.1429L19.1361 11.6279L19.6345 11.113L20.1328 10.598C20.1328 10.5316 20.1328 10.4817 20.1328 10.4319C20.1328 10.3821 20.1328 10.3156 20.1162 10.2658C20.0996 10.2159 20.0996 10.1495 20.0996 10.0997C20.083 10.0498 20.083 9.98339 20.0664 9.93356C20.0498 9.88372 20.0498 9.81728 20.0331 9.76744C20.0165 9.71761 19.9999 9.65117 19.9833 9.60133C19.9667 9.5515 19.9501 9.48505 19.9335 9.43522C19.9169 9.38538 19.9003 9.33555 19.867 9.2691L20.2989 8.90366L20.7308 8.53821L21.1627 8.17276L21.5946 7.80731L22.0265 7.44186L22.4584 7.07641L22.8903 6.71097L23.3222 6.34552V6.26246V6.1794V6.09635V6.14618V6.06312V5.98007V5.89701V5.81395L22.8737 6.21263L22.4252 6.6113L21.9767 7.00997L21.5282 7.40864L21.0797 7.80731L20.6312 8.20598L20.1826 8.60465L19.7341 9.00332C19.7341 8.98671 19.7175 8.9701 19.7175 8.95349C19.7175 8.93688 19.7009 8.92027 19.7009 8.90366C19.6843 8.88704 19.6843 8.87043 19.6677 8.85382C19.6511 8.83721 19.6511 8.8206 19.6345 8.80399C19.6179 8.78738 19.6179 8.77077 19.6013 8.75415C19.5846 8.73754 19.5846 8.72093 19.568 8.72093C19.5514 8.70432 19.5514 8.68771 19.5348 8.68771C19.5182 8.6711 19.5182 8.65449 19.5016 8.65449L19.9667 8.22259L20.4318 7.7907L20.8969 7.35881L21.3621 6.92691L21.8272 6.49502L22.2923 6.06312L22.7574 5.63123L23.2225 5.19934L23.2391 5L23.2557 4.80067L23.2724 4.60133L23.289 4.40199L23.3056 4.20266L23.3222 4.00332L23.3388 3.80399L23.3554 3.60465H23.1727H22.99H22.8072H22.6245H22.4418H22.0929H21.9102H21.7275L21.279 4.08638L20.8305 4.56811L20.382 5.04983L19.9335 5.53156L19.485 6.01329L19.0365 6.49502L18.588 6.97675L18.1395 7.45847C18.1228 7.44186 18.1062 7.44186 18.0896 7.42525C18.073 7.40864 18.0564 7.40864 18.0398 7.39203C18.0232 7.37542 18.0066 7.37542 17.99 7.35881C17.9733 7.34219 17.9567 7.34219 17.9401 7.32558C17.9235 7.30897 17.9069 7.30897 17.8903 7.29236C17.8737 7.27575 17.8571 7.27575 17.8405 7.25914C17.8238 7.24253 17.8072 7.24253 17.7906 7.22591C17.774 7.2093 17.7574 7.2093 17.7408 7.19269L18.1395 6.74419L18.5381 6.29568L18.9368 5.84718L19.3355 5.39867L19.7341 4.95017L20.1328 4.50166L20.5315 4.05316L20.9302 3.60465H20.8471H20.764H20.681H20.5979H20.5149H20.4318H20.3488H20.2657L19.9003 4.01993L19.5348 4.43522L19.1694 4.8505L18.8039 5.26578L18.4385 5.68106L18.073 6.09635L17.7076 6.51163L17.3421 6.92691C17.2923 6.89369 17.2258 6.87708 17.176 6.84386C17.1262 6.81063 17.0597 6.79402 17.0099 6.77741C16.9601 6.7608 16.8936 6.72758 16.8272 6.71097C16.7607 6.69435 16.7109 6.66113 16.6444 6.64452C16.578 6.62791 16.5282 6.6113 16.4617 6.57807C16.3953 6.56146 16.3454 6.54485 16.279 6.52824C16.2125 6.51163 16.1461 6.49502 16.0963 6.47841C16.0298 6.4618 15.9634 6.44518 15.8969 6.42857L15.9468 5.83057L15.9966 5.23256L16.0464 4.63455L16.0963 4.03655L16.1461 3.43854L16.1959 2.84053L16.2458 2.24253L16.2956 1.64452L16.2292 1.59468L16.1627 1.54485L16.0963 1.66113L16.0298 1.6113L15.9634 1.56146L15.8969 1.51163L15.8305 1.46179L15.764 1.41196L15.7308 2.04319L15.6976 2.67442L15.6644 3.30565L15.6312 3.93688L15.6145 4.60133L15.5813 5.23256L15.5481 5.86379L15.5149 6.49502C15.4983 6.49502 15.4817 6.49502 15.465 6.49502C15.4484 6.49502 15.4318 6.49502 15.4152 6.49502C15.3986 6.49502 15.382 6.49502 15.3654 6.49502C15.3488 6.49502 15.3321 6.49502 15.3155 6.49502C15.2989 6.49502 15.2823 6.49502 15.2657 6.49502C15.2491 6.49502 15.2325 6.49502 15.2159 6.49502C15.1993 6.49502 15.1826 6.49502 15.166 6.49502C15.1494 6.49502 15.1328 6.49502 15.1162 6.49502L15.1494 5.83057L15.1826 5.16611L15.2159 4.50166L15.2491 3.83721L15.2823 3.17276L15.3155 2.50831L15.3488 1.84385L15.382 1.1794L15.2491 0.996678L15.0996 0.847176L14.9501 0.714286L14.8006 0.564784L14.6511 0.415282L14.5016 0.265781L14.3521 0.116279L14.2026 0L14.0697 0.149502L13.9368 0.299003L13.8039 0.448505L13.671 0.598007L13.5381 0.747508L13.4052 0.89701L13.2723 1.04651L13.1395 1.19601L13.1727 1.86047L13.2059 2.52492L13.2391 3.18937L13.2723 3.85382L13.3056 4.51827L13.3388 5.18273L13.372 5.84718L13.4052 6.51163C13.3886 6.51163 13.372 6.51163 13.3554 6.51163C13.3388 6.51163 13.3222 6.51163 13.3056 6.51163C13.289 6.51163 13.2723 6.51163 13.2557 6.51163C13.2391 6.51163 13.2225 6.51163 13.2059 6.51163C13.1893 6.51163 13.1727 6.51163 13.1561 6.51163C13.1395 6.51163 13.1228 6.51163 13.1062 6.52824C13.0896 6.52824 13.073 6.52824 13.0564 6.54485C13.0398 6.54485 13.0232 6.54485 13.0066 6.56146L12.9733 5.93023L12.9567 5.26578L12.9235 4.63455L12.8903 3.98671L12.8571 3.35548L12.8238 2.72425L12.7906 2.09302L12.7574 1.46179L12.691 1.49502L12.6245 1.56146L12.5581 1.6113L12.4916 1.66113L12.4252 1.71096L12.3587 1.7608L12.2923 1.81063L12.2258 1.86047L12.2923 2.49169L12.3421 3.0897L12.3919 3.68771L12.4418 4.28572L12.4916 4.88372L12.5415 5.48173L12.5913 6.07974L12.6411 6.67774C12.5913 6.69435 12.5248 6.71096 12.475 6.72758C12.4252 6.74419 12.3587 6.7608 12.3089 6.77741C12.2591 6.79402 12.2092 6.81063 12.1428 6.82724C12.0929 6.84385 12.0431 6.86047 11.9767 6.87708C11.9268 6.89369 11.877 6.9103 11.8272 6.94352C11.7773 6.96013 11.7275 6.99336 11.6777 7.00997C11.6278 7.02658 11.578 7.0598 11.5282 7.07641C11.4783 7.09302 11.4285 7.12625 11.3787 7.14286L11.0132 6.72758L10.6312 6.27907L10.2657 5.86379L9.90026 5.44851L9.53481 5.03322L9.16936 4.61794L8.80391 4.20266L8.47168 3.78738H8.38863H8.30557H8.22251H8.13946H8.0564H7.97334H7.89029H7.80723L8.2059 4.23588L8.60457 4.68439L9.00325 5.13289L9.40192 5.5814L9.80059 6.0299L10.1993 6.47841L10.5979 6.92691L10.9966 7.37542C10.98 7.39203 10.9634 7.39203 10.9468 7.40864C10.9302 7.42525 10.9135 7.42525 10.8969 7.44186C10.8803 7.45847 10.8637 7.45847 10.8471 7.47508C10.8305 7.4917 10.8139 7.4917 10.7973 7.50831C10.7807 7.52492 10.764 7.52492 10.7474 7.54153C10.7308 7.55814 10.7142 7.55814 10.6976 7.57475C10.681 7.59136 10.6644 7.59136 10.6478 7.60798C10.6312 7.62459 10.6145 7.62459 10.5979 7.6412L10.1494 7.15947L9.6677 6.64452L9.21919 6.16279L8.77069 5.68106L8.32218 5.19934L7.87368 4.71761L7.42517 4.23588L6.97667 3.75415H6.79394H6.64444H6.46172H6.27899H6.09627H5.91354H5.73082H5.5481L5.56471 3.95349L5.58132 4.15282L5.59793 4.35216L5.61454 4.5515L5.63115 4.75083L5.64776 4.95017L5.66437 5.1495L5.68099 5.34884L6.16271 5.78073L6.64444 6.21263L7.12617 6.64452L7.6079 7.07641L8.08962 7.50831L8.57135 7.9402L9.05308 8.3721L9.40192 8.77077Z" fill="#CD242B"/>
<path d="M37.4109 14.6936H36.0341V20.0461H32.3542V5.62256H37.4109C39.8041 5.62256 41.4896 7.56543 41.4896 10.1516C41.4896 12.7378 39.8041 14.6936 37.4109 14.6936ZM36.9477 8.87783H36.0341V11.567H36.9477C37.398 11.567 37.8741 11.0909 37.8741 10.216C37.8741 9.32816 37.3851 8.87783 36.9477 8.87783Z" fill="white"/>
<path d="M47.6656 20.0461L47.0351 17.0868H44.3202L43.664 20.0461H40.1643L44.1144 5.62256H47.4983L51.4484 20.0461H47.6656ZM45.8642 11.2839C45.7999 10.9236 45.697 10.1259 45.697 10.1259H45.6584C45.6584 10.1259 45.5554 10.9365 45.4911 11.2839L45.0022 13.9473H46.3403L45.8642 11.2839Z" fill="white"/>
<path d="M59.7217 9.52117C59.2585 9.22524 58.6409 9.01937 57.9461 9.01937C56.1062 9.01937 55.257 10.8464 55.257 12.8794C55.257 14.9123 56.1448 16.7651 58.1777 16.7651C58.731 16.7651 59.4515 16.6236 59.889 16.3791L59.5931 19.9303C59.0913 20.1619 58.2806 20.2906 57.4314 20.2906C54.2534 20.2906 51.397 17.6401 51.397 12.8279C51.397 8.05437 54.2534 5.36523 57.4314 5.36523C58.6795 5.36523 59.7346 5.66117 60.3908 6.06004L59.7217 9.52117Z" fill="white"/>
<path d="M71.6491 23.3529C71.4947 23.3786 71.3917 23.3786 71.2502 23.3786C70.2723 23.3786 69.2173 23.0569 68.1879 22.2463C67.2615 21.5258 66.2193 20.728 65.5245 20.3034C62.7582 19.763 60.4937 16.9967 60.4937 12.8408C60.4937 8.29883 63.1571 5.28802 66.541 5.28802C69.8992 5.28802 72.5883 8.29883 72.5883 12.8408C72.5883 16.0703 70.8771 18.5536 69.2687 19.2355V19.2612C69.6676 19.3513 69.8992 19.4156 70.7098 19.9174C71.2631 20.252 71.9579 20.4836 72.4082 20.4836C72.8585 20.4836 73.0901 20.4321 73.3989 20.3292L71.6491 23.3529ZM66.541 9.01936C65.3187 9.01936 64.4051 10.6277 64.4051 12.8665C64.4051 15.131 65.3187 16.7136 66.541 16.7136C67.7633 16.7136 68.6769 15.131 68.6769 12.8665C68.6769 10.6277 67.7633 9.01936 66.541 9.01936Z" fill="white"/>
<path d="M78.9574 20.342C76.1396 20.342 73.7593 18.605 73.7593 15.6586V5.62256H77.5936V15.3626C77.5936 16.4048 78.3527 16.8037 79.0089 16.8037C79.6394 16.8037 80.4114 16.392 80.4114 15.3755V5.62256H84.1813V15.6586C84.1556 18.605 81.7624 20.342 78.9574 20.342Z" fill="white"/>
<path d="M85.7253 20.0461V5.62256H89.5596V20.0461H85.7253Z" fill="white"/>
<path d="M97.9229 20.0461L97.2924 17.0868H94.5904L93.9342 20.0461H90.4216L94.3717 5.62256H97.7556L101.706 20.0461H97.9229ZM96.1216 11.2839C96.0572 10.9236 95.9543 10.1259 95.9543 10.1259H95.9157C95.9157 10.1259 95.8128 10.9365 95.7484 11.2839L95.2595 13.9473H96.5976L96.1216 11.2839Z" fill="white"/>
<path d="M107.715 20.3935C104.331 20.3935 101.667 17.3827 101.667 12.8408C101.667 8.29883 104.331 5.28802 107.715 5.28802C111.073 5.28802 113.762 8.29883 113.762 12.8408C113.775 17.3827 111.086 20.3935 107.715 20.3935ZM107.715 9.01936C106.492 9.01936 105.579 10.6277 105.579 12.8665C105.579 15.131 106.492 16.7136 107.715 16.7136C108.937 16.7136 109.85 15.131 109.85 12.8665C109.85 10.6277 108.95 9.01936 107.715 9.01936Z" fill="white"/>
<defs>
<radialGradient id="paint0_radial_254_9232" cx="0" cy="0" r="1" gradientUnits="userSpaceOnUse" gradientTransform="translate(117.545 27.7013) scale(13.9137 12.2307)">
<stop stop-color="#BF2026"/>
<stop offset="0.51" stop-color="#BE2126"/>
<stop offset="1" stop-color="#C62127"/>
</radialGradient>
</defs>
</svg>
