<svg width="62" height="32" viewBox="0 0 62 32" fill="none" xmlns="http://www.w3.org/2000/svg">
<path d="M4.13289 11.0299V11.0565V11.0831V11.1096V11.1362V11.1628V11.1894V11.2159V11.2425C4.13289 11.2425 4.1196 11.2425 4.09302 11.2425C4.06645 11.2425 4.03987 11.2558 4 11.2691C3.96013 11.2824 3.90698 11.2957 3.86711 11.3223C3.81395 11.3488 3.7608 11.3754 3.70764 11.4153C3.65449 11.4551 3.60133 11.5083 3.54817 11.5615C3.49502 11.6279 3.45515 11.6944 3.41528 11.7741C3.37542 11.8538 3.33555 11.9601 3.32226 12.0664C3.29568 12.1728 3.28239 12.3056 3.28239 12.4518L2.92359 12.7176L2.57807 12.9568L2.23256 13.196L1.88704 13.4352L1.54153 13.6744L1.19601 13.9402L0.850498 14.1794L0.504983 14.4186H0.810631H1.11628H1.42193H1.72758H2.03322H2.33887H2.64452H2.95017L2.89701 14.6179L2.84385 14.8173L2.7907 15.0166L2.73754 15.2159L2.68439 15.4153L2.63123 15.6146L2.57807 15.814L2.52492 16.0133L2.23256 16.2791L1.9402 16.5449L1.64784 16.8106L1.35548 17.0764L1.06312 17.3422L0.770764 17.608L0.478405 17.8738L0.186047 18.1395H0.930233H1.66113H2.39203H3.12292H3.85382H4.58472H5.31562H6.04651L5.92691 18.0199L5.80731 17.9003L5.68771 17.7807L5.56811 17.6611L5.44851 17.5415L5.3289 17.4219L5.2093 17.3023L5.0897 17.1827L5.19601 16.5581L5.30233 15.9336L5.40864 15.309L5.51495 14.6844L5.62126 14.0598L5.72758 13.4352L5.83389 12.8106L5.9402 12.186L6.59136 12.9169L7.24253 13.6478L7.89369 14.3787L8.54485 15.1096L9.19601 15.8405L9.84718 16.5714L10.4983 17.3023L11.1495 18.0332L11.8272 17.3023L12.505 16.5714L13.1827 15.8405L13.8605 15.1096L14.5382 14.3787L15.2159 13.6478L15.8937 12.9169L16.5714 12.186L16.7043 12.8106L16.8372 13.4352L16.9701 14.0598L17.103 14.6844L17.2359 15.309L17.3688 15.9336L17.5017 16.5581L17.6346 17.1827L17.5282 17.3156L17.4219 17.4485L17.3156 17.5814L17.2093 17.7143L17.103 17.8472L16.9967 17.9801L16.8904 18.113L16.7841 18.2458H17.4751H18.1661H18.8571H19.5482H20.2392H20.9302H21.6213H22.3123L22.0199 17.9934L21.7276 17.7409L21.4352 17.4884L21.1429 17.2359L20.8505 16.9834L20.5581 16.7309L20.4651 16.3455L20.1728 16.093L20.1329 15.8804L20.093 15.6678L20.0532 15.4552L20.0133 15.2425L19.9734 15.0299L19.9336 14.8173L19.8937 14.6047L19.8538 14.392L20.1595 14.3787L20.4651 14.3654L20.7708 14.3522L21.0764 14.3389L21.3821 14.3256L21.6877 14.3123L21.9934 14.299L22.299 14.2857L21.9668 14.0731L21.6346 13.8605L21.3023 13.6478L20.9701 13.4352L20.6379 13.2226L20.3057 13.01L19.9734 12.7973L19.6412 12.5847C19.6412 12.5847 19.6412 12.5714 19.6412 12.5316C19.6412 12.4917 19.6279 12.4518 19.6279 12.3854C19.6146 12.3322 19.6013 12.2525 19.588 12.186C19.5748 12.1063 19.5482 12.0399 19.5216 11.9601C19.495 11.8804 19.4552 11.8007 19.4153 11.7342C19.3754 11.6545 19.309 11.588 19.2558 11.5349C19.1894 11.4817 19.1229 11.4286 19.0299 11.3887C18.9369 11.3488 18.8439 11.3355 18.7375 11.3355V11.2957V11.2558V11.2159V11.1761V11.1362V11.0963V11.0565V11.0299H18.99H19.2425H19.495H19.7475H20H20.2525H20.505H20.7575L21.0631 10.7243L21.3688 10.4186L21.6744 10.113L21.9801 9.80731L22.2857 9.50166L22.5914 9.19601L22.897 8.89037L23.2027 8.58472H22.4585H21.7143H20.9701H20.2259H19.4817H18.7375H17.9934H17.2492L16.5183 9.38206L15.7874 10.1794L15.0565 10.9767L14.3256 11.7741L13.5947 12.5714L12.8638 13.3688L12.1329 14.1661L11.402 14.9635L10.711 14.1661L10.0199 13.3688L9.3289 12.5714L8.63788 11.7741L7.94685 10.9767L7.25582 10.1794L6.56479 9.38206L5.87376 8.58472H5.14286H4.41196H3.68106H2.95017H2.21927H1.48837H0.730897H0L0.239203 8.89037L0.478405 9.19601L0.717608 9.50166L0.956811 9.80731L1.19601 10.113L1.43522 10.4186L1.67442 10.7243L1.91362 11.0299H2.19269H2.47176H2.75083H3.0299H3.30897H3.58804H3.85382H4.13289Z" fill="#CD242B"/>
<path d="M2.48501 21.289H4.34547H6.20594H8.0664H9.94016H11.8006H13.6611H15.5216H17.382L17.196 21.5282L16.9966 21.7674L16.7973 22.0066L16.598 22.2458L16.4119 22.4851L16.2126 22.7243L16.0132 22.9635L15.8139 23.2027H15.2159H14.6179H14.0199H13.4219H12.8106H12.2126H11.6146H11.0166V22.99V22.7641V22.5515V22.3389V22.113V21.9003V21.6877V21.4751L10.7375 21.7143L10.4584 21.9668L10.1794 22.2193L9.90029 22.4585L9.62122 22.711L9.32886 22.9635L9.04979 23.2027L8.77072 23.4552V24.5183V25.5947V26.6578V27.7342V28.7973V29.8738V30.9369V32L9.22255 31.5482L9.68766 31.0963L10.1395 30.6445L10.5913 30.1927L11.0431 29.7409L11.495 29.2757L11.9601 28.8239L12.4119 28.3721H12.2259H12.0531H11.8804H11.6943H11.5216H11.3355H11.1627H10.99V28.0266V27.6811V27.3355V26.99V26.6445V26.299V25.9535V25.608H11.7209H12.4651H13.2093H13.9402H14.6843H15.4285H16.1727H16.9036L17.6345 24.7708L18.3521 23.9468L19.0697 23.1096L19.7873 22.2857L20.5049 21.4618L21.2358 20.6246L21.9534 19.8007L22.6711 18.9767H19.8538H17.0498H14.2325H11.4152H8.59796H5.79398H2.9767H0.159424L0.451783 19.2691L0.744141 19.5482L1.0365 19.8405L1.31557 20.1329L1.60793 20.4252L1.90029 20.7176L2.19265 21.01L2.48501 21.289Z" fill="#CD242B"/>
<path d="M4.31885 23.2691L4.78396 23.7342L5.24908 24.1993L5.7142 24.6777L6.16602 25.1429L6.63114 25.6213L7.09626 26.0864L7.56137 26.5515L8.02649 27.0299V26.3256V25.608V24.9037V24.1993V23.495V22.7907V22.0864V21.3688L7.76071 21.608L7.49493 21.8472L7.22915 22.0864L6.95008 22.3256L6.6843 22.5515L6.41852 22.7907L6.15273 23.0299L5.88695 23.2691H5.70091H5.50157H5.30224H5.1029H4.91685H4.71752H4.51818H4.31885Z" fill="#CD242B"/>
<path d="M7.52153 7.01661C7.50824 7.0299 7.50824 7.04319 7.49496 7.05648C7.48167 7.06977 7.48167 7.08306 7.46838 7.09635C7.45509 7.10964 7.45509 7.12292 7.4418 7.13621C7.42851 7.1495 7.42851 7.16279 7.41522 7.17608C7.40193 7.18937 7.40193 7.20266 7.38864 7.21595C7.38864 7.22924 7.37535 7.24253 7.37535 7.25582C7.37535 7.2691 7.36207 7.28239 7.36207 7.29568C7.36207 7.30897 7.34878 7.32226 7.34878 7.33555L6.98997 7.01661L6.64446 6.64452L6.28565 6.32558L5.92685 6.00665L5.56804 5.68771L5.20924 5.36877L4.85044 5.04983L4.49163 4.7309V4.79734V4.86379V4.93023V4.99668V5.06312V5.12957V5.18273V5.24917L4.83715 5.54153L5.18266 5.83389L5.52818 6.12625L5.87369 6.41861L6.21921 6.71096L6.56472 7.00332L6.91024 7.29568L7.25575 7.58804C7.24246 7.62791 7.22917 7.66778 7.21589 7.70764C7.2026 7.74751 7.18931 7.78738 7.17602 7.82724C7.16273 7.86711 7.14944 7.90698 7.14944 7.94685C7.13615 7.98671 7.13615 8.02658 7.12286 8.06645C7.10957 8.10631 7.10957 8.14618 7.09628 8.18605C7.09628 8.22591 7.08299 8.26578 7.08299 8.31894C7.08299 8.35881 7.06971 8.39867 7.06971 8.45183C7.06971 8.4917 7.06971 8.53156 7.06971 8.58472V8.59801V8.6113V8.62459V8.63788V8.65116V8.66445V8.67774V8.69103L7.42851 9.07641L7.78731 9.4618L8.14612 9.84718L8.50492 10.2326L8.86373 10.6179L9.22253 11.0033L9.58133 11.3887L9.94014 11.7741L10.1262 11.9734L10.3122 12.1728L10.4983 12.3721L10.6843 12.5714L10.8704 12.7708L11.0564 12.9701L11.2425 13.1694L11.4285 13.3688L11.6146 13.1694L11.8006 12.9701L11.9867 12.7708L12.1727 12.5714L12.3587 12.3721L12.5448 12.1728L12.7308 11.9734L12.9169 11.7741L13.3156 11.3621L13.7142 10.9502L14.1129 10.5382L14.5116 10.1262L14.9102 9.71429L15.3089 9.30233L15.7076 8.89037L16.1063 8.47841C16.1063 8.42525 16.1063 8.38538 16.1063 8.34552C16.1063 8.30565 16.1063 8.25249 16.093 8.21263C16.0797 8.17276 16.0797 8.1196 16.0797 8.07974C16.0664 8.03987 16.0664 7.98671 16.0531 7.94685C16.0398 7.90698 16.0398 7.85382 16.0265 7.81395C16.0132 7.77409 15.9999 7.72093 15.9867 7.68106C15.9734 7.6412 15.9601 7.58804 15.9468 7.54817C15.9335 7.50831 15.9202 7.46844 15.8936 7.41528L16.2391 7.12292L16.5847 6.83057L16.9302 6.53821L17.2757 6.24585L17.6212 5.95349L17.9667 5.66113L18.3122 5.36877L18.6577 5.07641V5.00997V4.94352V4.87708V4.91694V4.8505V4.78405V4.71761V4.65116L18.2989 4.9701L17.9401 5.28904L17.5813 5.60797L17.2225 5.92691L16.8637 6.24585L16.5049 6.56479L16.1461 6.88372L15.7873 7.20266C15.7873 7.18937 15.774 7.17608 15.774 7.16279C15.774 7.1495 15.7607 7.13621 15.7607 7.12292C15.7474 7.10964 15.7474 7.09635 15.7342 7.08306C15.7209 7.06977 15.7209 7.05648 15.7076 7.04319C15.6943 7.0299 15.6943 7.01661 15.681 7.00332C15.6677 6.99003 15.6677 6.97675 15.6544 6.97675C15.6411 6.96346 15.6411 6.95017 15.6278 6.95017C15.6146 6.93688 15.6146 6.92359 15.6013 6.92359L15.9734 6.57807L16.3455 6.23256L16.7175 5.88704L17.0896 5.54153L17.4617 5.19601L17.8338 4.8505L18.2059 4.50498L18.578 4.15947L18.5913 4L18.6046 3.84053L18.6179 3.68106L18.6312 3.5216L18.6445 3.36213L18.6577 3.20266L18.671 3.04319L18.6843 2.88372H18.5381H18.392H18.2458H18.0996H17.9534H17.6744H17.5282H17.382L17.0232 3.2691L16.6644 3.65449L16.3056 4.03987L15.9468 4.42525L15.588 4.81063L15.2292 5.19601L14.8704 5.5814L14.5116 5.96678C14.4983 5.95349 14.485 5.95349 14.4717 5.9402C14.4584 5.92691 14.4451 5.92691 14.4318 5.91362C14.4185 5.90033 14.4053 5.90033 14.392 5.88704C14.3787 5.87376 14.3654 5.87375 14.3521 5.86047C14.3388 5.84718 14.3255 5.84718 14.3122 5.83389C14.2989 5.8206 14.2857 5.8206 14.2724 5.80731C14.2591 5.79402 14.2458 5.79402 14.2325 5.78073C14.2192 5.76744 14.2059 5.76744 14.1926 5.75415L14.5116 5.39535L14.8305 5.03655L15.1494 4.67774L15.4684 4.31894L15.7873 3.96013L16.1063 3.60133L16.4252 3.24253L16.7441 2.88372H16.6777H16.6112H16.5448H16.4783H16.4119H16.3455H16.279H16.2126L15.9202 3.21595L15.6278 3.54817L15.3355 3.8804L15.0431 4.21263L14.7508 4.54485L14.4584 4.87708L14.1661 5.2093L13.8737 5.54153C13.8338 5.51495 13.7807 5.50166 13.7408 5.47508C13.7009 5.44851 13.6478 5.43522 13.6079 5.42193C13.568 5.40864 13.5149 5.38206 13.4617 5.36877C13.4086 5.35548 13.3687 5.3289 13.3156 5.31562C13.2624 5.30233 13.2225 5.28904 13.1694 5.26246C13.1162 5.24917 13.0764 5.23588 13.0232 5.22259C12.97 5.2093 12.9169 5.19601 12.877 5.18273C12.8239 5.16944 12.7707 5.15615 12.7175 5.14286L12.7574 4.66445L12.7973 4.18605L12.8371 3.70764L12.877 3.22924L12.9169 2.75083L12.9568 2.27243L12.9966 1.79402L13.0365 1.31561L12.9833 1.27575L12.9302 1.23588L12.877 1.3289L12.8239 1.28904L12.7707 1.24917L12.7175 1.2093L12.6644 1.16944L12.6112 1.12957L12.5847 1.63455L12.5581 2.13954L12.5315 2.64452L12.5049 3.1495L12.4916 3.68106L12.4651 4.18605L12.4385 4.69103L12.4119 5.19601C12.3986 5.19601 12.3853 5.19601 12.372 5.19601C12.3587 5.19601 12.3455 5.19601 12.3322 5.19601C12.3189 5.19601 12.3056 5.19601 12.2923 5.19601C12.279 5.19601 12.2657 5.19601 12.2524 5.19601C12.2391 5.19601 12.2259 5.19601 12.2126 5.19601C12.1993 5.19601 12.186 5.19601 12.1727 5.19601C12.1594 5.19601 12.1461 5.19601 12.1328 5.19601C12.1195 5.19601 12.1063 5.19601 12.093 5.19601L12.1195 4.66445L12.1461 4.13289L12.1727 3.60133L12.1993 3.06977L12.2259 2.53821L12.2524 2.00664L12.279 1.47508L12.3056 0.943522L12.1993 0.797342L12.0797 0.677741L11.9601 0.571429L11.8405 0.451827L11.7209 0.332226L11.6013 0.212625L11.4817 0.0930233L11.3621 0L11.2558 0.119601L11.1494 0.239203L11.0431 0.358804L10.9368 0.478405L10.8305 0.598007L10.7242 0.717608L10.6179 0.837209L10.5116 0.956811L10.5381 1.48837L10.5647 2.01993L10.5913 2.5515L10.6179 3.08306L10.6445 3.61462L10.671 4.14618L10.6976 4.67774L10.7242 5.2093C10.7109 5.2093 10.6976 5.2093 10.6843 5.2093C10.671 5.2093 10.6577 5.2093 10.6445 5.2093C10.6312 5.2093 10.6179 5.2093 10.6046 5.2093C10.5913 5.2093 10.578 5.2093 10.5647 5.2093C10.5514 5.2093 10.5381 5.2093 10.5249 5.2093C10.5116 5.2093 10.4983 5.2093 10.485 5.22259C10.4717 5.22259 10.4584 5.22259 10.4451 5.23588C10.4318 5.23588 10.4185 5.23588 10.4053 5.24917L10.3787 4.74419L10.3654 4.21263L10.3388 3.70764L10.3122 3.18937L10.2857 2.68439L10.2591 2.1794L10.2325 1.67442L10.2059 1.16944L10.1528 1.19601L10.0996 1.24917L10.0465 1.28904L9.99329 1.3289L9.94014 1.36877L9.88698 1.40864L9.83383 1.44851L9.78067 1.48837L9.83383 1.99336L9.87369 2.47176L9.91356 2.95017L9.95343 3.42857L9.99329 3.90698L10.0332 4.38538L10.073 4.86379L10.1129 5.34219C10.073 5.35548 10.0199 5.36877 9.98001 5.38206C9.94014 5.39535 9.88698 5.40864 9.84711 5.42193C9.80725 5.43522 9.76738 5.44851 9.71422 5.46179C9.67436 5.47508 9.63449 5.48837 9.58133 5.50166C9.54147 5.51495 9.5016 5.52824 9.46173 5.55482C9.42187 5.56811 9.382 5.59469 9.34213 5.60797C9.30226 5.62126 9.2624 5.64784 9.22253 5.66113C9.18266 5.67442 9.1428 5.701 9.10293 5.71429L8.81057 5.38206L8.50492 5.02326L8.21256 4.69103L7.9202 4.3588L7.62785 4.02658L7.33549 3.69435L7.04313 3.36213L6.77735 3.0299H6.7109H6.64446H6.57801H6.51157H6.44512H6.37868H6.31223H6.24579L6.56472 3.3887L6.88366 3.74751L7.2026 4.10631L7.52153 4.46512L7.84047 4.82392L8.15941 5.18273L8.47834 5.54153L8.79728 5.90033C8.78399 5.91362 8.7707 5.91362 8.75741 5.92691C8.74413 5.9402 8.73084 5.9402 8.71755 5.95349C8.70426 5.96678 8.69097 5.96678 8.67768 5.98007C8.66439 5.99336 8.6511 5.99336 8.63781 6.00665C8.62452 6.01993 8.61123 6.01993 8.59795 6.03322C8.58466 6.04651 8.57137 6.04651 8.55808 6.0598C8.54479 6.07309 8.5315 6.07309 8.51821 6.08638C8.50492 6.09967 8.49163 6.09967 8.47834 6.11296L8.11954 5.72758L7.73416 5.31562L7.37535 4.93023L7.01655 4.54485L6.65775 4.15947L6.29894 3.77409L5.94014 3.3887L5.58133 3.00332H5.43515H5.31555H5.16937H5.02319H4.87701H4.73084H4.58466H4.43848L4.45177 3.16279L4.46505 3.32226L4.47834 3.48173L4.49163 3.6412L4.50492 3.80067L4.51821 3.96013L4.5315 4.1196L4.54479 4.27907L4.93017 4.62459L5.31555 4.9701L5.70094 5.31562L6.08632 5.66113L6.4717 6.00665L6.85708 6.35216L7.24246 6.69768L7.52153 7.01661Z" fill="#CD242B"/>
<path opacity="0.6" d="M28.5226 0H28.2026V32H28.5226V0Z" fill="white"/>
<path d="M33.5227 3.85778C33.5227 3.66018 33.6824 3.5 33.8794 3.5H61.166C61.363 3.5 61.5227 3.66018 61.5227 3.85778V28.1422C61.5227 28.3398 61.363 28.5 61.166 28.5H33.8794C33.6824 28.5 33.5227 28.3398 33.5227 28.1422V3.85778Z" fill="#D3B271"/>
<path d="M34.9036 5.24676C34.9036 5.04916 35.0633 4.88898 35.2603 4.88898H59.7814C59.9784 4.88898 60.1381 5.04916 60.1381 5.24676V26.7534C60.1381 26.951 59.9784 27.1112 59.7814 27.1112H35.2603C35.0633 27.1112 34.9036 26.951 34.9036 26.7534V5.24676Z" fill="url(#paint0_radial_1088_18169)"/>
<path fill-rule="evenodd" clip-rule="evenodd" d="M44.3382 15.9034V23.778C44.3382 23.9497 44.2939 24.0575 44.1412 24.0575C43.9886 24.0575 43.9246 23.9497 43.9246 23.778V22.7386H43.5356C43.256 22.7386 42.3553 23.433 41.7827 23.8745L41.7827 23.8745L41.7827 23.8745C41.5991 24.0161 41.4492 24.1316 41.3644 24.1899C40.7342 23.8222 39.9513 23.4544 39.3654 23.2583C39.2608 23.3562 39.1649 23.4449 39.078 23.5253L39.0778 23.5254L39.0772 23.526L39.0771 23.526L39.0771 23.5261L39.0771 23.5261C38.8944 23.695 38.7515 23.8272 38.6515 23.93C38.6143 23.9671 38.5824 24.0003 38.5545 24.0295L38.5544 24.0295L38.5542 24.0297L38.5542 24.0298L38.5541 24.0298C38.4676 24.1199 38.4192 24.1703 38.3709 24.1703C38.2626 24.1703 38.1296 24.0428 38.1296 23.93C38.1296 23.8222 38.3709 23.5623 39.4787 22.4297C40.2369 21.65 40.5422 20.7184 40.5422 19.2867C40.5422 16.9233 39.523 14.9032 38.3512 14.9032C37.9622 14.9032 37.7653 15.0552 37.7013 15.4474C37.6816 15.6436 37.593 15.7073 37.5044 15.7073C37.332 15.7073 37.2434 15.4229 37.2434 14.9473C37.2434 13.8637 38.0016 12.9958 38.9371 12.9958C39.3716 12.9958 39.6661 13.187 39.9206 13.3522C40.1362 13.4921 40.3231 13.6134 40.5422 13.5842V12.0004C40.5422 11.5886 40.3895 11.2404 40.0843 10.9806C39.8233 10.7648 38.4792 9.85282 37.977 9.85282C37.8809 9.85282 37.8108 9.87265 37.7488 9.89019L37.7488 9.89019C37.6997 9.9041 37.6556 9.91656 37.6077 9.91656C37.5437 9.91656 37.5191 9.89695 37.5191 9.85282C37.5191 9.79629 37.554 9.75518 37.6512 9.64056L37.6914 9.59295L39.4048 7.90133C39.4205 7.89002 39.4347 7.87933 39.4479 7.86939C39.509 7.82332 39.5486 7.79346 39.6215 7.79346C39.9677 7.79346 40.9279 8.44593 41.7133 8.97967C42.2569 9.34907 42.7168 9.66159 42.8316 9.66159C43.0394 9.66159 43.6556 9.27762 44.3225 8.86202C45.1092 8.37181 45.9665 7.83759 46.3076 7.83759C46.4694 7.83759 46.6356 7.97167 47.7485 8.86953L47.9767 9.05359C48.0304 9.09618 48.0975 9.15235 48.174 9.21641C48.4059 9.41052 48.7243 9.67709 49.0204 9.85772C49.37 10.0735 49.3897 10.1176 49.3897 10.5295C49.6063 10.4853 49.8476 10.3137 51.2114 9.20559C51.6004 8.88198 52.7525 7.94546 52.8411 7.94546C52.9494 7.94546 53.9046 8.33772 55.3176 8.9212C55.7312 9.09282 55.7952 9.13695 55.7952 9.39682V20.6155C55.7952 20.9832 55.8395 21.1156 55.9921 21.2431C56.642 21.8069 57.0359 22.0227 57.2525 22.0227C57.3165 22.0227 57.4052 21.9982 57.4692 21.9344C57.5775 21.7824 57.6021 21.7628 57.6661 21.7628C57.7301 21.7628 57.799 21.8511 57.799 21.9344C57.799 22.0668 56.8242 23.2779 55.8247 24.0624C55.2191 23.8467 54.1753 23.1308 53.5895 22.5228C53.3925 22.3071 53.3531 22.2629 53.3531 21.8952V13.8637C53.3531 12.9321 53.6535 12.2995 54.7416 10.8482C55.3078 10.1127 55.3471 9.89205 55.2388 9.89205C55.186 9.89205 54.6949 10.2312 54.2511 10.5377L54.251 10.5377L54.251 10.5377L54.251 10.5378C53.9497 10.7458 53.6703 10.9387 53.5648 11.0002L53.4273 10.9213C52.3645 10.3114 52.0181 10.1127 51.4133 10.1127C51.0686 10.1127 50.8274 10.2843 50.8274 10.505V23.8467C50.8274 24.0183 50.7387 24.1507 50.6107 24.1507C50.5024 24.1507 50.4384 24.0428 50.4384 23.8712V22.8709C49.8269 22.9703 49.2912 23.4677 48.9329 23.8004C48.7431 23.9766 48.6031 24.1066 48.5281 24.1066C48.2918 24.1066 46.8787 22.4149 46.8787 22.2826V15.9034H44.3382ZM43.9447 10.3725C43.9447 9.93609 43.9004 9.78899 43.8167 9.78899C43.6247 9.78899 42.9256 10.2254 42.9256 10.3725V16.379C42.9256 19.2933 42.594 19.6417 41.8427 20.4312L41.7981 20.4781C41.4485 20.8458 41.3648 20.9341 41.1039 21.2381C41.5618 21.8657 43.0782 22.1501 43.9497 22.106V10.3725H43.9447ZM46.8767 13.844H44.3362V10.2009C44.3362 9.91647 44.4642 9.76447 44.7054 9.76447C45.247 9.76447 46.8767 11.0001 46.8767 11.4561V13.844ZM50.4387 10.76C50.4387 10.7159 50.419 10.6963 50.3501 10.6963C50.2861 10.6963 50.1778 10.7404 50.1089 10.7845L49.6116 11.0885C49.331 11.2602 49.2424 11.3484 49.2424 11.4808V13.648C49.2424 13.8 49.4393 13.9079 49.592 13.9079H50.4387V10.76ZM49.6125 15.8593H50.4346V22.1501C49.6322 22.0864 49.2629 21.6745 49.2629 20.8066V16.3594C49.2629 16.0358 49.3762 15.8593 49.6125 15.8593Z" fill="white"/>
<defs>
<radialGradient id="paint0_radial_1088_18169" cx="0" cy="0" r="1" gradientUnits="userSpaceOnUse" gradientTransform="translate(48.0762 6.06267) scale(44.8007 39.4527)">
<stop stop-color="#C01617"/>
<stop offset="0.5051" stop-color="#BE181B"/>
<stop offset="1" stop-color="#C7120C"/>
</radialGradient>
</defs>
</svg>
