<svg width="438" height="154" viewBox="0 0 438 154" fill="none" xmlns="http://www.w3.org/2000/svg">
<path d="M413.6 128.275C417.195 127.739 417.981 125.874 417.981 122.681V119.316C417.981 115.778 415.146 114.006 409.476 114C403.806 113.994 400.971 115.766 400.971 119.316V123.28C400.971 126.067 401.588 127.524 404.861 128.081C401.588 128.812 400.971 130.848 400.971 133.826V138.179C400.971 141.758 403.806 143.545 409.476 143.537C415.146 143.53 417.981 141.744 417.981 138.179V133.871C417.981 130.584 417.195 128.725 413.6 128.275ZM409.434 126.411C408.179 126.411 407.562 125.81 407.562 124.635V118.977C407.562 117.82 408.179 117.262 409.434 117.262C410.688 117.262 411.348 117.842 411.348 118.977V124.635C411.348 125.81 410.708 126.411 409.434 126.411ZM409.434 140.106C408.179 140.106 407.562 139.507 407.562 138.33V131.916C407.562 130.695 408.179 130.095 409.434 130.095C410.688 130.095 411.348 130.695 411.348 131.916V138.325C411.348 139.507 410.708 140.106 409.434 140.106Z" fill="white"/>
<path d="M433.106 128.275C436.701 127.739 437.489 125.874 437.489 122.681V119.316C437.489 115.778 434.652 114.006 428.977 114C423.295 114 420.466 115.777 420.466 119.316V123.28C420.466 126.067 421.081 127.524 424.358 128.081C421.081 128.812 420.466 130.848 420.466 133.826V138.179C420.466 141.758 423.295 143.537 428.977 143.537C434.66 143.537 437.489 141.761 437.489 138.179V133.871C437.489 130.584 436.701 128.725 433.106 128.275ZM428.935 126.411C427.678 126.411 427.061 125.81 427.061 124.635V118.977C427.061 117.82 427.678 117.262 428.935 117.262C430.192 117.262 430.849 117.842 430.849 118.977V124.635C430.869 125.81 430.232 126.411 428.935 126.411ZM428.935 140.106C427.678 140.106 427.061 139.507 427.061 138.33V131.916C427.061 130.695 427.678 130.095 428.935 130.095C430.192 130.095 430.849 130.695 430.849 131.916V138.325C430.869 139.507 430.232 140.106 428.935 140.106Z" fill="white"/>
<path d="M365.114 114.424C365.114 114.311 365.159 114.204 365.239 114.124C365.319 114.045 365.427 114 365.54 114H398.062C398.174 114 398.282 114.045 398.362 114.124C398.441 114.204 398.486 114.312 398.486 114.424V143.317C398.486 143.373 398.475 143.429 398.454 143.48C398.433 143.532 398.402 143.579 398.362 143.619C398.323 143.658 398.276 143.69 398.225 143.711C398.173 143.733 398.118 143.744 398.062 143.744H365.54C365.484 143.744 365.428 143.733 365.377 143.711C365.325 143.69 365.278 143.658 365.238 143.619C365.199 143.579 365.167 143.532 365.146 143.481C365.125 143.429 365.114 143.373 365.114 143.317V114.424Z" fill="#D4B372"/>
<path d="M366.761 116.078C366.761 115.965 366.806 115.857 366.886 115.777C366.966 115.697 367.074 115.652 367.187 115.652H396.414C396.47 115.652 396.525 115.663 396.577 115.684C396.628 115.706 396.675 115.737 396.714 115.777C396.754 115.817 396.785 115.864 396.806 115.915C396.827 115.967 396.838 116.022 396.838 116.078V141.665C396.838 141.721 396.827 141.776 396.806 141.828C396.785 141.88 396.754 141.927 396.714 141.966C396.675 142.006 396.628 142.037 396.577 142.059C396.525 142.08 396.47 142.091 396.414 142.091H367.187C367.074 142.091 366.966 142.046 366.886 141.966C366.806 141.886 366.761 141.778 366.761 141.665V116.078Z" fill="url(#paint0_radial_334_15411)"/>
<path fill-rule="evenodd" clip-rule="evenodd" d="M378.006 128.756V138.134C378.006 138.338 377.953 138.467 377.773 138.467C377.593 138.467 377.513 138.338 377.513 138.134V136.897H377.047C376.714 136.897 375.641 137.723 374.959 138.249C374.737 138.418 374.562 138.556 374.46 138.625C373.702 138.181 372.904 137.809 372.077 137.514L371.733 137.832C371.511 138.034 371.346 138.189 371.226 138.314C371.182 138.356 371.144 138.396 371.111 138.431C371.007 138.538 370.949 138.598 370.889 138.598C370.816 138.589 370.749 138.556 370.697 138.505C370.645 138.453 370.612 138.386 370.602 138.314C370.602 138.185 370.889 137.87 372.21 136.537C373.114 135.609 373.478 134.501 373.478 132.798C373.478 129.986 372.264 127.581 370.867 127.581C370.403 127.581 370.167 127.763 370.092 128.23C370.067 128.463 369.963 128.538 369.856 128.538C369.652 128.538 369.545 128.201 369.545 127.634C369.545 126.344 370.449 125.312 371.564 125.312C371.989 125.328 372.399 125.476 372.737 125.736C372.994 125.902 373.216 126.047 373.478 126.013V124.128C373.485 123.898 373.439 123.669 373.344 123.459C373.25 123.249 373.109 123.063 372.932 122.915C372.621 122.658 371.02 121.572 370.42 121.572C370.328 121.573 370.237 121.588 370.149 121.616C370.095 121.636 370.038 121.647 369.981 121.65C369.903 121.65 369.874 121.625 369.874 121.572C369.874 121.519 369.916 121.457 370.032 121.321L370.081 121.263L372.121 119.251L372.172 119.214C372.228 119.159 372.303 119.126 372.381 119.123C372.792 119.123 373.936 119.9 374.873 120.535C375.521 120.979 376.07 121.345 376.205 121.345C376.452 121.345 377.187 120.888 377.982 120.395C378.919 119.811 379.94 119.176 380.347 119.176C380.54 119.176 380.738 119.336 382.066 120.404L382.33 120.626L382.565 120.819C382.883 121.097 383.22 121.352 383.573 121.583C383.991 121.841 384.018 121.892 384.018 122.383C384.275 122.329 384.562 122.125 386.187 120.808C386.651 120.422 388.024 119.307 388.13 119.307C388.237 119.307 389.398 119.775 391.082 120.468C391.575 120.673 391.65 120.726 391.65 121.035V134.359C391.65 134.803 391.703 134.954 391.885 135.105C392.66 135.771 393.129 136.033 393.389 136.033C393.485 136.032 393.578 135.994 393.646 135.926C393.775 135.747 393.804 135.722 393.882 135.722C393.96 135.722 394.039 135.829 394.039 135.926C394.039 136.084 392.878 137.525 391.686 138.46C390.964 138.203 389.72 137.35 389.021 136.628C388.785 136.371 388.739 136.317 388.739 135.88V126.331C388.739 125.221 389.096 124.47 390.393 122.744C391.059 121.87 391.115 121.605 390.986 121.605C390.579 121.838 390.186 122.095 389.809 122.374C389.449 122.622 389.116 122.851 388.99 122.924L388.828 122.831C387.56 122.105 387.147 121.87 386.427 121.87C386.016 121.87 385.728 122.074 385.728 122.336V138.209C385.728 138.414 385.623 138.571 385.47 138.571C385.317 138.571 385.263 138.442 385.263 138.238V137.048C384.535 137.166 383.898 137.759 383.469 138.158C383.247 138.369 383.076 138.522 382.987 138.522C382.705 138.522 381.022 136.51 381.022 136.353V128.763L378.006 128.756ZM377.538 122.176C377.538 121.656 377.484 121.481 377.384 121.481C377.162 121.481 376.323 122.001 376.323 122.176V129.322C376.323 132.789 375.928 133.204 375.033 134.143L374.979 134.199C374.562 134.643 374.462 134.741 374.151 135.103C374.697 135.851 376.505 136.188 377.542 136.135V122.176H377.538ZM381.035 126.306H378.006V121.972C378.006 121.634 378.159 121.452 378.45 121.452C379.097 121.452 381.04 122.922 381.04 123.464L381.035 126.306ZM385.277 122.636C385.277 122.585 385.255 122.56 385.172 122.56C385.069 122.573 384.97 122.609 384.884 122.667L384.291 123.027C383.958 123.231 383.847 123.337 383.847 123.495V126.073C383.847 126.253 384.082 126.382 384.264 126.382H385.272L385.277 122.636ZM384.291 128.703H385.263V136.188C384.306 136.113 383.867 135.622 383.867 134.59V129.298C383.875 128.914 384.011 128.703 384.291 128.703Z" fill="white"/>
<path d="M347.142 128.061C347.138 128.276 347.098 128.489 347.022 128.69C346.943 128.909 346.833 129.117 346.695 129.305C346.558 129.491 346.389 129.651 346.196 129.778C346.007 129.906 345.785 129.979 345.556 129.987C345.805 130.007 346.047 130.077 346.269 130.191C346.508 130.313 346.722 130.478 346.902 130.677C347.092 130.886 347.247 131.123 347.362 131.381C347.482 131.648 347.543 131.938 347.541 132.232C347.554 132.693 347.473 133.151 347.302 133.58C347.159 133.924 346.935 134.229 346.649 134.468C346.366 134.698 346.036 134.864 345.683 134.954C345.298 135.054 344.901 135.103 344.504 135.101H340V125.348H344.29C344.663 125.345 345.036 125.383 345.401 125.461C345.73 125.528 346.04 125.669 346.307 125.874C346.578 126.094 346.789 126.379 346.92 126.702C347.084 127.136 347.159 127.598 347.142 128.061ZM341.865 129.32H344.157C344.326 129.325 344.493 129.287 344.643 129.212C344.777 129.144 344.895 129.048 344.99 128.932C345.087 128.814 345.162 128.68 345.212 128.536C345.26 128.393 345.285 128.243 345.285 128.092C345.285 127.95 345.258 127.809 345.205 127.677C345.152 127.549 345.077 127.431 344.983 127.328C344.894 127.23 344.788 127.149 344.67 127.089C344.553 127.027 344.423 126.995 344.29 126.995H341.865V129.32ZM344.504 133.451C344.659 133.45 344.811 133.411 344.948 133.338C345.091 133.261 345.218 133.157 345.321 133.031C345.427 132.903 345.512 132.759 345.574 132.605C345.635 132.454 345.667 132.294 345.667 132.132C345.67 131.976 345.639 131.821 345.575 131.678C345.512 131.535 345.418 131.408 345.301 131.306C345.02 131.071 344.66 130.952 344.295 130.973H341.852V133.451H344.504Z" fill="#FFFEFF"/>
<path d="M356.839 125.363C356.59 125.772 356.304 126.238 355.98 126.762L354.987 128.368L353.988 129.98C353.659 130.508 353.37 130.986 353.122 131.412V135.103H351.256V131.412C350.679 130.4 350.066 129.391 349.417 128.388C348.769 127.384 348.152 126.376 347.565 125.363H349.733C350.133 126.029 350.541 126.718 350.959 127.428C351.376 128.139 351.785 128.827 352.184 129.494C352.38 129.183 352.584 128.849 352.797 128.494C353.011 128.139 353.224 127.781 353.437 127.422L354.07 126.356L354.663 125.363H356.839Z" fill="#FFFEFF"/>
<path d="M157.485 142.28V140.839C154.242 140.478 154.062 140.118 153.882 136.335L153.522 120.485C153.522 117.062 153.522 116.702 156.944 116.342V114.721H148.478L140.193 133.273L132.087 114.721H123.441V116.162C127.043 116.522 127.404 117.062 127.043 121.926L126.323 130.211C125.963 134.714 125.783 136.876 125.422 138.137C125.242 139.578 124.342 140.298 122 140.658V142.099H132.087V140.658C129.385 140.478 128.484 139.938 128.304 138.137C128.124 136.876 128.124 134.894 128.304 131.292L128.845 120.304H129.025L137.491 141.919H138.752L147.938 119.944H148.118V136.155C148.118 140.118 147.938 140.298 144.696 140.658V142.099H157.485V142.28Z" fill="white"/>
<path d="M189.006 142.279V140.838C186.304 140.478 185.764 139.938 184.323 136.155C181.621 128.95 178.919 121.565 176.398 114.18L174.236 114.72L165.77 136.335C164.329 139.938 163.969 140.298 161.087 140.658V142.099H170.453V140.658C167.391 140.298 167.391 139.758 167.932 137.596C168.472 135.975 169.012 134.354 169.373 133.093H177.478C178.019 134.894 178.739 136.515 179.099 137.956C179.82 139.758 179.64 140.298 177.118 140.658V142.099H189.006V142.279ZM176.578 130.932H170.093C171.174 127.87 172.255 124.807 173.335 121.745H173.516L176.578 130.932Z" fill="white"/>
<path d="M222.329 114.721H212.062V116.162C215.124 116.342 216.025 117.062 216.205 118.863C216.205 120.124 216.565 122.106 216.565 125.708V133.093H216.385L200.534 114.721H192.789V116.162C194.59 116.342 195.491 116.702 196.211 117.603C196.932 118.503 197.112 119.404 197.112 122.106V130.932C197.112 134.714 196.932 136.516 196.752 137.957C196.572 139.758 195.671 140.478 193.329 140.658V142.099H203.597V140.658C200.534 140.478 199.814 139.758 199.634 137.957C199.454 136.696 199.274 134.894 199.274 131.112V121.565H199.454L216.926 142.64H218.907V125.888C218.907 122.106 219.087 120.124 219.267 118.863C219.447 116.882 220.348 116.342 222.69 116.162V114.721H222.329Z" fill="white"/>
<path d="M242.864 121.205C242.503 118.503 242.323 116.702 242.143 115.081C241.423 114.72 239.081 114 236.379 114C230.435 114 226.833 117.602 226.833 122.286C226.833 126.429 229.895 128.59 234.038 130.752C237.1 132.373 239.081 133.994 239.081 136.516C239.081 139.217 237.46 141.019 234.938 141.019C230.975 141.019 228.454 136.335 227.553 133.634L226.112 134.174C226.472 136.696 227.013 140.298 227.373 141.379C227.913 141.559 228.814 141.919 229.895 142.28C231.156 142.64 232.597 142.82 234.218 142.82C240.342 142.82 244.485 139.037 244.485 134.174C244.485 130.031 241.423 127.689 237.1 125.528C233.497 123.727 231.876 122.286 231.876 119.944C231.876 117.602 233.677 115.801 236.019 115.801C239.441 115.801 241.062 118.863 241.963 121.565L242.864 121.205Z" fill="white"/>
<path d="M260.336 142.28V140.839C257.274 140.478 256.913 140.298 256.913 136.696V120.485C256.913 116.882 257.274 116.522 260.336 116.342V114.721H247.727V116.162C250.789 116.522 251.149 116.702 251.149 120.304V136.516C251.149 140.118 250.789 140.298 247.727 140.658V142.099H260.336V142.28Z" fill="white"/>
<path d="M278.708 114.18C269.162 114.18 263.938 121.385 263.938 128.59C263.938 136.696 269.702 143 278.168 143C286.094 143 292.578 137.416 292.578 128.41C292.578 119.764 286.454 114.18 278.708 114.18ZM277.988 115.801C282.851 115.801 286.274 120.845 286.274 129.311C286.274 137.056 283.031 141.019 279.069 141.019C273.665 141.019 270.603 134.894 270.603 127.689C270.423 120.484 273.845 115.801 277.988 115.801Z" fill="white"/>
<path d="M325.901 114.721H315.634V116.162C318.696 116.342 319.597 117.062 319.777 118.863C319.777 120.124 320.137 122.106 320.137 125.708V133.093H319.957L303.926 114.721H296.18V116.162C297.982 116.342 298.882 116.702 299.603 117.603C300.323 118.503 300.503 119.404 300.503 122.106V130.932C300.503 134.714 300.323 136.516 300.143 137.957C299.963 139.758 299.062 140.478 296.721 140.658V142.099H306.988V140.658C303.926 140.478 303.205 139.758 303.025 137.957C302.845 136.696 302.665 134.894 302.665 131.112V121.565H302.845L320.317 142.64H322.298V125.888C322.298 122.106 322.479 120.124 322.659 118.863C322.839 116.882 323.739 116.342 326.081 116.162V114.721H325.901Z" fill="white"/>
<path d="M19.7995 52.841V52.9684V53.0957V53.223V53.3504V53.4777V53.605V53.7323V53.8597C19.7995 53.8597 19.7358 53.8597 19.6085 53.8597C19.4812 53.8597 19.3538 53.9233 19.1628 53.987C18.9718 54.0507 18.7172 54.1143 18.5262 54.2416C18.2715 54.369 18.0169 54.4963 17.7622 54.6873C17.5076 54.8783 17.2529 55.1329 16.9983 55.3876C16.7436 55.7059 16.5526 56.0242 16.3616 56.4062C16.1706 56.7882 15.9796 57.2975 15.916 57.8068C15.7887 58.3161 15.725 58.9528 15.725 59.6531L14.0061 60.9264L12.3508 62.0723L10.6955 63.2183L9.04028 64.3642L7.38502 65.5102L5.72975 66.7834L4.07449 67.9294L2.41923 69.0753H3.8835H5.34777H6.81204H8.27631H9.74058H11.2049H12.6691H14.1334L13.8787 70.0303L13.6241 70.9853L13.3694 71.9402L13.1148 72.8952L12.8601 73.8501L12.6055 74.8051L12.3508 75.7601L12.0961 76.715L10.6955 77.9883L9.29493 79.2616L7.89433 80.5348L6.49372 81.8081L5.09311 83.0814L3.69251 84.3547L2.2919 85.628L0.891295 86.9012H4.45647H7.95799H11.4595H14.961H18.4625H21.9641H25.4656H28.9671L28.3941 86.3283L27.8211 85.7553L27.2482 85.1823L26.6752 84.6093L26.1022 84.0364L25.5292 83.4634L24.9563 82.8904L24.3833 82.3174L24.8926 79.3252L25.4019 76.333L25.9112 73.3408L26.4205 70.3486L26.9298 67.3564L27.4391 64.3642L27.9485 61.372L28.4578 58.3798L31.5773 61.8813L34.6968 65.3828L37.8164 68.8843L40.9359 72.3859L44.0554 75.8874L47.175 79.3889L50.2945 82.8904L53.414 86.3919L56.6609 82.8904L59.9078 79.3889L63.1546 75.8874L66.4015 72.3859L69.6483 68.8843L72.8952 65.3828L76.1421 61.8813L79.3889 58.3798L80.0256 61.372L80.6622 64.3642L81.2988 67.3564L81.9355 70.3486L82.5721 73.3408L83.2087 76.333L83.8454 79.3252L84.482 82.3174L83.9727 82.9541L83.4634 83.5907L82.9541 84.2274L82.4448 84.864L81.9355 85.5006L81.4262 86.1373L80.9168 86.7739L80.4075 87.4106H83.7181H87.0286H90.3391H93.6496H96.9602H100.271H103.581H106.892L105.491 86.2009L104.091 84.9913L102.69 83.7817L101.289 82.5721L99.8887 81.3625L98.4881 80.1529L98.0424 78.3066L96.6418 77.097L96.4508 76.0784L96.2598 75.0597L96.0689 74.0411L95.8779 73.0225L95.6869 72.0039L95.4959 70.9853L95.3049 69.9666L95.1139 68.948L96.5782 68.8843L98.0424 68.8207L99.5067 68.757L100.971 68.6934L102.435 68.6297L103.9 68.566L105.364 68.5024L106.828 68.4387L105.236 67.4201L103.645 66.4015L102.053 65.3828L100.462 64.3642L98.8701 63.3456L97.2785 62.327L95.6869 61.3083L94.0953 60.2897C94.0953 60.2897 94.0953 60.2261 94.0953 60.0351C94.0953 59.8441 94.0316 59.6531 94.0316 59.3348C93.9679 59.0801 93.9043 58.6981 93.8406 58.3798C93.777 57.9978 93.6496 57.6795 93.5223 57.2975C93.395 56.9155 93.204 56.5335 93.013 56.2152C92.822 55.8332 92.5037 55.5149 92.249 55.2603C91.9307 55.0056 91.6124 54.751 91.1667 54.56C90.7211 54.369 90.2754 54.3053 89.7661 54.3053V54.1143V53.9233V53.7323V53.5413V53.3504V53.1594V52.9684V52.841H90.9757H92.1854H93.395H94.6046H95.8142H97.0238H98.2334H99.443L100.907 51.3768L102.372 49.9125L103.836 48.4482L105.3 46.984L106.764 45.5197L108.229 44.0554L109.693 42.5911L111.157 41.1269H107.592H104.027H100.462H96.8965H93.3313H89.7661H86.201H82.6358L79.1343 44.9467L75.6327 48.7665L72.1312 52.5864L68.6297 56.4062L65.1282 60.2261L61.6267 64.0459L58.1252 67.8657L54.6236 71.6856L51.3131 67.8657L48.0026 64.0459L44.6921 60.2261L41.3815 56.4062L38.071 52.5864L34.7605 48.7665L31.45 44.9467L28.1395 41.1269H24.6379H21.1364H17.6349H14.1334H10.6319H7.13036H3.50152H0L1.14595 42.5911L2.2919 44.0554L3.43785 45.5197L4.5838 46.984L5.72975 48.4482L6.8757 49.9125L8.02166 51.3768L9.1676 52.841H10.5045H11.8415H13.1784H14.5154H15.8523H17.1893H18.4625H19.7995Z" fill="#CD242B"/>
<path d="M11.9051 101.99H20.8181H29.731H38.6439H47.6206H56.5335H65.4465H74.3594H83.2724L82.3811 103.136L81.4261 104.281L80.4711 105.427L79.5162 106.573L78.6249 107.719L77.6699 108.865L76.715 110.011L75.76 111.157H72.8951H70.0303H67.1654H64.3005H61.372H58.5071H55.6422H52.7773V110.139V109.056V108.038V107.019V105.937V104.918V103.899V102.881L51.4404 104.027L50.1035 105.236L48.7665 106.446L47.4296 107.592L46.0926 108.802L44.692 110.011L43.3551 111.157L42.0181 112.367V117.46V122.617V127.71V132.867V137.96V143.116V148.21V153.303L44.1827 151.138L46.4109 148.974L48.5755 146.809L50.7401 144.644L52.9047 142.48L55.0692 140.252L57.2975 138.087L59.4621 135.922H58.5708H57.7431H56.9155H56.0242H55.1966H54.3053H53.4776H52.65V134.267V132.612V130.957V129.301V127.646V125.991V124.336V122.68H56.1515H59.7167H63.2819H66.7834H70.3486H73.9138H77.4789H80.9805L84.482 118.67L87.9198 114.722L91.3577 110.712L94.7955 106.764L98.2334 102.817L101.735 98.8064L105.173 94.8592L108.611 90.9121H95.1138H81.6808H68.184H54.6873H41.1905H27.7574H14.2607H0.763916L2.16452 92.3127L3.56513 93.6496L4.96573 95.0502L6.30268 96.4508L7.70328 97.8514L9.10389 99.252L10.5045 100.653L11.9051 101.99Z" fill="#CD242B"/>
<path d="M20.6907 111.476L22.9189 113.704L25.1471 115.932L27.3754 118.224L29.54 120.452L31.7682 122.744L33.9964 124.972L36.2247 127.201L38.4529 129.492V126.118V122.68V119.306V115.932V112.558V109.184V105.809V102.372L37.1796 103.518L35.9064 104.663L34.6331 105.809L33.2961 106.955L32.0229 108.038L30.7496 109.184L29.4763 110.33L28.203 111.476H27.3117H26.3568H25.4018H24.4468H23.5556H22.6006H21.6456H20.6907Z" fill="#CD242B"/>
<path d="M36.0337 33.6146C35.97 33.6782 35.97 33.7419 35.9064 33.8055C35.8427 33.8692 35.8427 33.9329 35.779 33.9965C35.7154 34.0602 35.7154 34.1239 35.6517 34.1875C35.5881 34.2512 35.5881 34.3149 35.5244 34.3785C35.4607 34.4422 35.4607 34.5058 35.3971 34.5695C35.3971 34.6332 35.3334 34.6968 35.3334 34.7605C35.3334 34.8242 35.2697 34.8878 35.2697 34.9515C35.2697 35.0152 35.2061 35.0788 35.2061 35.1425L33.4871 33.6146L31.8319 31.832L30.113 30.304L28.394 28.7761L26.6751 27.2482L24.9562 25.7202L23.2373 24.1923L21.5183 22.6644V22.9827V23.301V23.6193V23.9376V24.256V24.5743V24.8289V25.1472L23.1736 26.5479L24.8289 27.9485L26.4841 29.3491L28.1394 30.7497L29.7946 32.1503L31.4499 33.5509L33.1052 34.9515L34.7604 36.3521C34.6968 36.5431 34.6331 36.7341 34.5694 36.9251C34.5058 37.1161 34.4421 37.3071 34.3784 37.4981C34.3148 37.689 34.2511 37.88 34.2511 38.071C34.1874 38.262 34.1874 38.453 34.1238 38.644C34.0601 38.835 34.0601 39.026 33.9965 39.217C33.9965 39.408 33.9328 39.599 33.9328 39.8536C33.9328 40.0446 33.8691 40.2356 33.8691 40.4903C33.8691 40.6812 33.8691 40.8722 33.8691 41.1269V41.1906V41.2542V41.3179V41.3815V41.4452V41.5089V41.5725V41.6362L35.5881 43.4825L37.307 45.3287L39.0259 47.175L40.7448 49.0212L42.4638 50.8675L44.1827 52.7137L45.9016 54.56L47.6205 56.4062L48.5118 57.3612L49.4031 58.3162L50.2944 59.2711L51.1857 60.2261L52.077 61.181L52.9683 62.136L53.8596 63.0909L54.7509 64.0459L55.6422 63.0909L56.5335 62.136L57.4248 61.181L58.3161 60.2261L59.2074 59.2711L60.0987 58.3162L60.99 57.3612L61.8813 56.4062L63.7912 54.4327L65.7011 52.4591L67.611 50.4855L69.5209 48.5119L71.4308 46.5383L73.3408 44.5647L75.2507 42.5912L77.1606 40.6176C77.1606 40.3629 77.1606 40.1719 77.1606 39.9809C77.1606 39.79 77.1606 39.5353 77.0969 39.3443C77.0333 39.1533 77.0333 38.8987 77.0333 38.7077C76.9696 38.5167 76.9696 38.262 76.9059 38.071C76.8423 37.88 76.8423 37.6254 76.7786 37.4344C76.7149 37.2434 76.6513 36.9887 76.5876 36.7977C76.524 36.6068 76.4603 36.3521 76.3966 36.1611C76.333 35.9701 76.2693 35.7791 76.142 35.5245L77.7972 34.1239L79.4525 32.7233L81.1078 31.3227L82.763 29.922L84.4183 28.5214L86.0735 27.1208L87.7288 25.7202L89.3841 24.3196V24.0013V23.683V23.3647V23.5557V23.2373V22.919V22.6007V22.2824L87.6651 23.8103L85.9462 25.3382L84.2273 26.8662L82.5084 28.3941L80.7894 29.922L79.0705 31.45L77.3516 32.9779L75.6327 34.5058C75.6327 34.4422 75.569 34.3785 75.569 34.3149C75.569 34.2512 75.5053 34.1875 75.5053 34.1239C75.4417 34.0602 75.4417 33.9965 75.378 33.9329C75.3143 33.8692 75.3143 33.8055 75.2507 33.7419C75.187 33.6782 75.187 33.6146 75.1234 33.5509C75.0597 33.4872 75.0597 33.4236 74.996 33.4236C74.9324 33.3599 74.9324 33.2962 74.8687 33.2962C74.805 33.2326 74.805 33.1689 74.7414 33.1689L76.524 31.5136L78.3065 29.8584L80.0891 28.2031L81.8717 26.5479L83.6543 24.8926L85.4369 23.2373L87.2195 21.5821L89.0021 19.9268L89.0657 19.1628L89.1294 18.3989L89.1931 17.6349L89.2567 16.8709L89.3204 16.107L89.3841 15.343L89.4477 14.579L89.5114 13.8151H88.8111H88.1108H87.4105H86.7102H86.0099H84.6729H83.9726H83.2723L81.5534 15.6613L79.8345 17.5076L78.1156 19.3538L76.3966 21.2001L74.6777 23.0463L72.9588 24.8926L71.2399 26.7388L69.5209 28.5851C69.4573 28.5214 69.3936 28.5214 69.3299 28.4578C69.2663 28.3941 69.2026 28.3941 69.1389 28.3304C69.0753 28.2668 69.0116 28.2668 68.948 28.2031C68.8843 28.1395 68.8206 28.1395 68.757 28.0758C68.6933 28.0121 68.6296 28.0121 68.566 27.9485C68.5023 27.8848 68.4386 27.8848 68.375 27.8211C68.3113 27.7575 68.2476 27.7575 68.184 27.6938C68.1203 27.6301 68.0567 27.6301 67.993 27.5665L69.5209 25.8476L71.0489 24.1286L72.5768 22.4097L74.1047 20.6908L75.6327 18.9718L77.1606 17.2529L78.6885 15.534L80.2165 13.8151H79.8981H79.5798H79.2615H78.9432H78.6249H78.3065H77.9882H77.6699L76.2693 15.4067L74.8687 16.9983L73.4681 18.5899L72.0675 20.1815L70.6669 21.7731L69.2663 23.3647L67.8657 24.9563L66.4651 26.5479C66.2741 26.4205 66.0194 26.3569 65.8284 26.2295C65.6374 26.1022 65.3828 26.0385 65.1918 25.9749C65.0008 25.9112 64.7461 25.7839 64.4915 25.7202C64.2368 25.6566 64.0458 25.5292 63.7912 25.4656C63.5365 25.4019 63.3455 25.3382 63.0909 25.2109C62.8362 25.1472 62.6452 25.0836 62.3906 25.0199C62.1359 24.9563 61.8813 24.8926 61.6903 24.8289C61.4356 24.7653 61.181 24.7016 60.9263 24.6379L61.1173 22.346L61.3083 20.0541L61.4993 17.7622L61.6903 15.4703L61.8813 13.1784L62.0722 10.8865L62.2632 8.59463L62.4542 6.30273L62.1996 6.11174L61.9449 5.92074L61.6903 6.36639L61.4356 6.1754L61.181 5.98441L60.9263 5.79342L60.6716 5.60243L60.417 5.41143L60.2897 7.83066L60.1623 10.2499L60.035 12.6691L59.9077 15.0884L59.844 17.6349L59.7167 20.0541L59.5894 22.4734L59.462 24.8926C59.3984 24.8926 59.3347 24.8926 59.271 24.8926C59.2074 24.8926 59.1437 24.8926 59.08 24.8926C59.0164 24.8926 58.9527 24.8926 58.889 24.8926C58.8254 24.8926 58.7617 24.8926 58.6981 24.8926C58.6344 24.8926 58.5707 24.8926 58.5071 24.8926C58.4434 24.8926 58.3797 24.8926 58.3161 24.8926C58.2524 24.8926 58.1887 24.8926 58.1251 24.8926C58.0614 24.8926 57.9978 24.8926 57.9341 24.8926L58.0614 22.346L58.1887 19.7995L58.3161 17.2529L58.4434 14.7064L58.5707 12.1598L58.6981 9.61325L58.8254 7.0667L58.9527 4.52014L58.4434 3.81984L57.8704 3.24686L57.2975 2.73755L56.7245 2.16457L56.1515 1.5916L55.5785 1.01862L55.0056 0.445647L54.4326 0L53.9233 0.572975L53.414 1.14595L52.9046 1.71893L52.3953 2.2919L51.886 2.86488L51.3767 3.43785L50.8674 4.01083L50.3581 4.5838L50.4854 7.13036L50.6127 9.67692L50.7401 12.2235L50.8674 14.77L50.9947 17.3166L51.1221 19.8631L51.2494 22.4097L51.3767 24.9563C51.313 24.9563 51.2494 24.9563 51.1857 24.9563C51.1221 24.9563 51.0584 24.9563 50.9947 24.9563C50.9311 24.9563 50.8674 24.9563 50.8037 24.9563C50.7401 24.9563 50.6764 24.9563 50.6127 24.9563C50.5491 24.9563 50.4854 24.9563 50.4217 24.9563C50.3581 24.9563 50.2944 24.9563 50.2308 25.0199C50.1671 25.0199 50.1034 25.0199 50.0398 25.0836C49.9761 25.0836 49.9124 25.0836 49.8488 25.1472L49.7214 22.728L49.6578 20.1815L49.5305 17.7622L49.4031 15.2793L49.2758 12.8601L49.1485 10.4409L49.0211 8.02166L48.8938 5.60243L48.6392 5.72975L48.3845 5.98441L48.1298 6.1754L47.8752 6.36639L47.6205 6.55738L47.3659 6.74838L47.1112 6.93937L46.8566 7.13036L47.1112 9.54959L47.3022 11.8415L47.4932 14.1334L47.6842 16.4253L47.8752 18.7172L48.0662 21.0091L48.2572 23.301L48.4482 25.5929C48.2572 25.6566 48.0025 25.7202 47.8115 25.7839C47.6205 25.8476 47.3659 25.9112 47.1749 25.9749C46.9839 26.0385 46.7929 26.1022 46.5382 26.1659C46.3473 26.2295 46.1563 26.2932 45.9016 26.3569C45.7106 26.4205 45.5196 26.4842 45.3286 26.6115C45.1376 26.6752 44.9467 26.8025 44.7557 26.8662C44.5647 26.9298 44.3737 27.0572 44.1827 27.1208C43.9917 27.1845 43.8007 27.3118 43.6097 27.3755L42.2091 25.7839L40.7448 24.065L39.3442 22.4734L37.9436 20.8818L36.543 19.2902L35.1424 17.6986L33.7418 16.107L32.4685 14.5154H32.1502H31.8319H31.5136H31.1952H30.8769H30.5586H30.2403H29.922L31.4499 16.2343L32.9778 17.9532L34.5058 19.6722L36.0337 21.3911L37.5616 23.11L39.0896 24.8289L40.6175 26.5479L42.1454 28.2668C42.0818 28.3304 42.0181 28.3304 41.9544 28.3941C41.8908 28.4578 41.8271 28.4578 41.7635 28.5214C41.6998 28.5851 41.6361 28.5851 41.5725 28.6488C41.5088 28.7124 41.4451 28.7124 41.3815 28.7761C41.3178 28.8398 41.2541 28.8398 41.1905 28.9034C41.1268 28.9671 41.0632 28.9671 40.9995 29.0307C40.9358 29.0944 40.8722 29.0944 40.8085 29.1581C40.7448 29.2217 40.6812 29.2217 40.6175 29.2854L38.8986 27.4391L37.0523 25.4656L35.3334 23.6193L33.6145 21.7731L31.8955 19.9268L30.1766 18.0806L28.4577 16.2343L26.7388 14.388H26.0385H25.4655H24.7652H24.0649H23.3646H22.6643H21.964H21.2637L21.3273 15.152L21.391 15.916L21.4547 16.6799L21.5183 17.4439L21.582 18.2079L21.6457 18.9718L21.7093 19.7358L21.773 20.4998L23.6192 22.155L25.4655 23.8103L27.3117 25.4656L29.158 27.1208L31.0043 28.7761L32.8505 30.4314L34.6968 32.0866L36.0337 33.6146Z" fill="#CD242B"/>
<path d="M144.38 68.3141H139.103V88.8281H125V33.5489H144.38C153.552 33.5489 160.012 40.9951 160.012 50.9069C160.012 60.8187 153.552 68.3141 144.38 68.3141ZM142.605 46.0249H139.103V56.3312H142.605C144.33 56.3312 146.155 54.5067 146.155 51.1534C146.155 47.7509 144.281 46.0249 142.605 46.0249Z" fill="white"/>
<path d="M183.682 88.8281L181.265 77.4863H170.861L168.346 88.8281H154.933L170.072 33.5489H183.041L198.18 88.8281H183.682ZM176.778 55.2463C176.531 53.8656 176.137 50.8082 176.137 50.8082H175.989C175.989 50.8082 175.595 53.9149 175.348 55.2463L173.474 65.454H178.603L176.778 55.2463Z" fill="white"/>
<path d="M229.888 48.4906C228.112 47.3564 225.745 46.5674 223.082 46.5674C216.031 46.5674 212.776 53.5697 212.776 61.3611C212.776 69.1525 216.179 76.2535 223.97 76.2535C226.091 76.2535 228.852 75.711 230.529 74.7741L229.394 88.3843C227.471 89.2719 224.365 89.7651 221.11 89.7651C208.93 89.7651 197.982 79.6067 197.982 61.1639C197.982 42.8689 208.93 32.5626 221.11 32.5626C225.893 32.5626 229.937 33.6968 232.452 35.2255L229.888 48.4906Z" fill="white"/>
<path d="M275.6 101.501C275.008 101.6 274.614 101.6 274.071 101.6C270.324 101.6 266.28 100.367 262.335 97.2606C258.785 94.4991 254.79 91.4417 252.127 89.8144C241.525 87.7433 232.846 77.1411 232.846 61.2132C232.846 43.8059 243.054 32.2668 256.023 32.2668C268.894 32.2668 279.2 43.8059 279.2 61.2132C279.2 73.5906 272.641 83.1079 266.477 85.7215V85.8201C268.006 86.1653 268.894 86.4118 272 88.335C274.121 89.6171 276.784 90.5048 278.51 90.5048C280.235 90.5048 281.123 90.3075 282.307 89.913L275.6 101.501ZM256.023 46.5674C251.338 46.5674 247.837 52.7314 247.837 61.3118C247.837 69.9908 251.338 76.0562 256.023 76.0562C260.708 76.0562 264.209 69.9908 264.209 61.3118C264.209 52.7314 260.708 46.5674 256.023 46.5674Z" fill="white"/>
<path d="M303.61 89.9623C292.81 89.9623 283.688 83.3051 283.688 72.0126V33.5489H298.383V70.8784C298.383 74.8727 301.292 76.4014 303.807 76.4014C306.223 76.4014 309.182 74.8234 309.182 70.9277V33.5489H323.631V72.0126C323.532 83.3051 314.36 89.9623 303.61 89.9623Z" fill="white"/>
<path d="M329.548 88.8281V33.5489H344.243V88.8281H329.548Z" fill="white"/>
<path d="M376.296 88.8281L373.88 77.4863H363.524L361.009 88.8281H347.547L362.686 33.5489H375.655L390.794 88.8281H376.296ZM369.393 55.2463C369.146 53.8656 368.751 50.8082 368.751 50.8082H368.604C368.604 50.8082 368.209 53.9149 367.962 55.2463L366.089 65.454H371.217L369.393 55.2463Z" fill="white"/>
<path d="M413.823 90.1596C400.854 90.1596 390.646 78.6205 390.646 61.2132C390.646 43.8059 400.854 32.2668 413.823 32.2668C426.694 32.2668 437 43.8059 437 61.2132C437.049 78.6205 426.743 90.1596 413.823 90.1596ZM413.823 46.5674C409.138 46.5674 405.637 52.7314 405.637 61.3118C405.637 69.9908 409.138 76.0562 413.823 76.0562C418.508 76.0562 422.009 69.9908 422.009 61.3118C422.009 52.7314 418.557 46.5674 413.823 46.5674Z" fill="white"/>
<defs>
<radialGradient id="paint0_radial_334_15411" cx="0" cy="0" r="1" gradientUnits="userSpaceOnUse" gradientTransform="translate(382.499 117.167) scale(53.3253 46.875)">
<stop stop-color="#BF2026"/>
<stop offset="0.51" stop-color="#BE2126"/>
<stop offset="1" stop-color="#C62127"/>
</radialGradient>
</defs>
</svg>
