<svg width="196" height="14" viewBox="0 0 196 14" fill="none" xmlns="http://www.w3.org/2000/svg">
<path d="M169.15 9.59683C164.025 9.76594 159.032 10.0262 154.172 10.3524C144.344 10.0381 134.857 10.0203 126.3 10.8524C118.766 11.6973 105.668 10.9312 98.0926 12.8989C98.8936 12.9897 99.6667 13.0435 100.412 13.0712C99.309 13.2242 98.2603 13.4045 97.2833 13.6233C84.8948 13.6523 72.7433 13.5033 60.1064 13.0345C58.2333 12.9651 56.8046 13.3359 54.9388 13.2667C53.0731 13.1975 51.1727 13.1737 49.313 13.1371C49.3118 13.1694 49.329 13.1987 49.3789 13.2329C41.6574 13.1225 34.0599 13.1173 26.0538 13.2837C22.3025 13.2847 18.5542 13.0055 14.8117 12.8667C13.406 12.8146 13.4269 12.2514 12.4979 12.0625C8.77766 11.224 5.99076 10.5566 1.78762 10.1205L1.80319 9.70083C1.2353 9.72692 0.666117 9.70581 0.101719 9.63772C2.17561 8.13768 7.32701 7.75042 1.9339 6.47272C2.23868 6.43733 2.51047 6.4043 2.77157 6.36369L2.88111 6.36775C3.87941 6.26512 4.84765 5.97285 5.732 5.50721L3.24551 5.41497C3.32837 5.34354 3.39007 5.25146 3.42413 5.14843C3.4582 5.04539 3.46336 4.9352 3.43907 4.82945C3.50978 4.79615 3.57697 4.75913 3.65863 4.72623L4.33045 4.75115C4.43885 4.66126 4.53275 4.55574 4.60896 4.43819C6.77837 3.91158 10.1746 3.72504 9.54641 3.11621C9.05723 2.79992 7.47763 2.99996 5.68918 3.11323C5.57252 3.05485 5.45231 3.00361 5.32924 2.95979C7.67487 2.9067 5.36557 1.98047 6.77283 1.89258C8.64591 1.96205 10.5243 1.88803 12.3937 1.95738C20.0212 2.2403 26.4525 2.33877 33.9567 2.19684L34.9444 2.1832C38.6022 2.14286 42.0135 2.24065 45.562 2.48364C45.3322 2.56851 45.0914 2.65298 44.8472 2.73013C47.7062 2.95586 50.5752 3.0311 53.442 2.95554C60.4842 2.65279 67.5263 2.35363 75.0311 2.49191C82.8855 2.66831 90.4544 2.6545 98.4315 2.47983C95.1629 2.67469 91.8992 2.83741 88.5474 2.81007C87.0467 2.75441 85.5542 2.67749 84.1039 2.64525C85.6066 2.74409 87.0819 2.79163 88.5474 2.81007C94.318 3.07801 100.223 3.46588 104.734 2.31487C105.211 2.45112 105.206 2.59103 105.673 2.60836C108.96 2.73026 112.222 2.99136 115.051 2.53232C115.056 2.39242 116.465 2.4447 116.005 2.14742C118.821 2.11181 122.1 2.23342 124.918 2.05777C126.16 1.98797 127.391 1.80148 128.595 1.50087C138.675 1.12399 148.642 0.735744 159.501 0.423722C162.197 0.390811 165.301 0.498763 168.025 0.599799C163.991 0.920747 159.854 1.15526 155.65 1.34774C151.586 1.09283 147.69 0.951908 144.454 1.55031C143.704 1.65899 142.955 1.75811 142.206 1.84767C146.734 1.70311 151.229 1.55016 155.65 1.34774C158.047 1.4977 160.504 1.68585 162.917 1.77896L162.77 1.80223C160.872 1.91383 158.959 2.01408 157.03 2.10298C153.415 1.87549 149.935 1.73925 146.934 2.1344C146.566 2.18184 146.198 2.24004 145.83 2.30541C145.081 2.41171 144.331 2.50365 143.582 2.58125C146.374 2.49561 149.15 2.40102 151.911 2.29748C153.621 2.23158 155.331 2.16211 157.038 2.08532C158.099 2.14984 159.175 2.22208 160.247 2.29418C160.133 2.32227 160.011 2.35367 159.907 2.38933C158.96 2.49429 156.277 4.05077 157.664 4.5189C164.873 4.75038 175.016 4.4441 175.01 4.59835C175.456 5.17889 163.073 5.45596 163.536 5.60961C164.227 5.69513 164.918 5.77462 165.607 5.84809C164.946 5.93492 164.299 6.02946 163.703 6.13666C162.292 6.22442 160.416 6.01477 159.475 6.26003C156.158 6.98114 152.433 6.56279 148.666 6.98344C146.306 7.31978 143.478 7.77524 140.649 8.23429C140.638 8.51409 139.234 8.32192 139.695 8.61919C137.051 8.52114 133.995 8.40777 132.829 9.18713L132.639 9.20161C132.392 9.2049 132.146 9.23309 131.904 9.28574C127.528 8.97972 124.414 9.64371 120.407 10.0339C119.035 10.0549 117.639 10.0497 116.204 9.99652C117.142 10.0313 118.539 10.2232 119.49 10.1184C119.801 10.0941 120.11 10.0624 120.414 10.0342C123.977 9.97954 127.372 9.73188 130.765 9.55238C131.045 9.48017 131.503 9.36424 131.912 9.28601C132.156 9.29508 132.397 9.30401 132.641 9.34179C132.703 9.28642 132.768 9.23486 132.837 9.1874C136.087 8.90204 139.747 8.89412 142.519 8.58384C147.732 8.29588 153.263 8.7381 158.558 9.01354C155.912 9.1549 153.307 9.3121 150.741 9.48514C153.949 9.36344 156.966 9.23469 159.897 9.08117L161.244 9.13115L164.056 9.23543C163.182 9.14195 162.318 9.05963 161.454 8.98807C163.209 8.89152 164.942 8.78698 166.647 8.66342C176.062 8.3553 185.765 8.37396 195.262 8.94174C195.053 9.11726 194.833 9.27948 194.604 9.42742C190.022 9.34368 185.44 9.17371 181.666 9.78449C184.309 9.88254 186.148 9.70287 188.701 9.76884C188.698 9.84776 188.715 9.96695 188.498 10.0092C190.136 9.91188 192.048 9.83192 193.904 9.8505C193.3 10.1873 192.618 10.5212 191.944 10.8554C190.995 11.1004 189.589 11.0483 188.178 11.1396C182.09 11.1545 176.368 10.8704 170.367 10.989C165.038 10.7375 159.717 10.4862 154.491 10.3175C159.699 10.1659 164.487 9.93394 169.15 9.59683ZM11.8871 7.43462C12.3712 7.39511 12.8703 7.34537 13.355 7.28791C13.2803 7.2565 13.2071 7.22141 13.1359 7.18279C12.7058 7.17655 12.2797 7.26249 11.8871 7.43462ZM22.8357 7.97725C19.6279 7.61759 15.3842 7.78346 11.2867 7.8506C11.2627 7.88124 11.2486 7.91824 11.2462 7.95686C14.6699 8.21317 18.9071 8.0255 22.8363 7.9629L22.8357 7.97725ZM35.5726 11.3701L35.494 11.3205C35.495 11.3421 35.4942 11.3637 35.4916 11.3851L35.5726 11.3701ZM92.7962 9.01332C89.0241 9.57387 84.3396 9.4001 79.6445 9.50973C78.2425 9.45772 76.8197 9.96532 74.9429 9.89571C72.5973 9.9488 71.1811 10.18 69.3028 10.2505L70.6981 10.5824C67.4172 10.3206 65.5196 11.1088 62.2555 10.6895C62.2503 10.8294 61.7725 11.0955 61.3015 11.078C58.9558 11.1311 56.6221 10.7644 54.7241 10.9741C52.3784 11.0272 50.0417 10.9406 48.1545 11.1507C47.6835 11.1333 46.7368 11.522 45.7932 11.6271C44.6483 11.6421 43.5004 11.6355 42.3599 11.6291C42.4071 11.6665 42.452 11.7065 42.4944 11.749C43.4347 11.7974 44.3768 11.7976 45.317 11.7496C48.1388 11.574 51.4245 11.4121 54.2417 11.3622C61.277 11.3429 67.8555 11.023 74.4302 10.7065C75.8375 10.6186 77.2536 10.3909 78.6645 10.3032C82.8989 9.89627 88.0456 10.2273 90.8898 9.34851C91.3801 9.24097 92.3148 9.27565 92.7962 9.01332ZM98.2583 3.10922C93.2363 3.52257 88.1903 3.58628 83.1582 3.29987C79.4084 3.16078 68.6133 3.60451 70.4245 5.34206C75.1739 2.48643 101.392 6.4584 98.2577 3.12356L98.2583 3.10922ZM137.422 1.97916C135.394 2.1622 133.356 2.22695 131.32 2.17309C133.35 2.11429 135.382 2.05434 137.414 1.99323L137.422 1.97916ZM117.263 6.95375C123.383 6.20007 129.946 6.29982 136.053 5.96598C140.753 5.72004 145.875 6.61052 150.126 5.76956L150.141 5.34985L149.673 5.47255C148.029 5.32897 146.712 5.05381 145.34 4.88796L145.582 4.85743L145.165 4.8671C144.179 4.74346 143.184 4.71255 142.192 4.77479C141.686 4.82067 141.169 4.86973 140.651 4.91162C134.8 4.94244 128.738 4.93671 123.404 5.62252C120.102 5.92034 117.28 6.51969 113.985 6.81777C114.908 6.88074 116.312 7.07292 117.256 6.96783L117.263 6.95375Z" fill="#0038A8"/>
</svg>
