<svg width="300" height="28" viewBox="0 0 300 28" fill="none" xmlns="http://www.w3.org/2000/svg">
<path d="M259.893 13.9209C252.024 14.4793 244.362 15.1717 236.908 15.959C221.782 16.0372 207.195 16.5565 194.087 18.3434C182.552 20.0912 162.372 19.6556 150.838 23.1512C152.074 23.2462 153.266 23.2852 154.413 23.2852C152.726 23.5868 151.124 23.9274 149.635 24.3239C130.59 25.0833 111.9 25.5523 92.4452 25.5523C89.5616 25.5523 87.3862 26.2113 84.5138 26.2113C81.6414 26.2113 78.7184 26.2839 75.8572 26.3341C75.8572 26.3844 75.8853 26.429 75.964 26.4793C64.0866 26.7529 52.4058 27.1829 40.1068 27.9032C34.3395 28.121 28.561 27.9032 22.7993 27.9032C20.6352 27.9032 20.6352 27.0265 19.1962 26.7864C13.4289 25.6975 9.10624 24.8208 2.61945 24.3853V23.732C1.74786 23.8053 0.871591 23.8053 0 23.732C3.10287 21.2806 11.0006 20.3816 2.63631 18.7064C3.10287 18.6338 3.51883 18.5668 3.91793 18.4886H4.08657C5.6155 18.2715 7.08741 17.7613 8.42047 16.9865H4.59247C4.71578 16.8707 4.80539 16.724 4.85188 16.5619C4.89837 16.3997 4.90002 16.2281 4.85666 16.0651C4.96346 16.0093 5.06465 15.9479 5.18831 15.892H6.2226C6.38412 15.746 6.52247 15.5766 6.63294 15.3895C9.93817 14.4458 15.149 13.96 14.1484 13.0498C13.3783 12.5863 10.9612 12.9884 8.21811 13.2676C8.03543 13.1835 7.8477 13.1108 7.65599 13.0498C11.2591 12.832 7.65599 11.5254 9.81451 11.3076C12.6981 11.3076 15.5818 11.0842 18.4598 11.0842C30.2024 11.0842 40.0956 10.8664 51.6245 10.2131L53.1422 10.1349C58.7634 9.86133 64.0135 9.81665 69.4829 9.98975C69.1343 10.1349 68.769 10.2801 68.398 10.4141C72.8063 10.6002 77.2214 10.5517 81.6245 10.269C92.434 9.39227 103.243 8.52117 114.789 8.30339C126.875 8.12471 138.51 7.66681 150.764 6.93531C145.75 7.4267 140.742 7.86784 135.587 8.01861C133.277 8.01861 130.978 7.9851 128.746 8.01861C131.062 8.08561 133.333 8.07444 135.587 8.01861C144.474 8.10237 153.575 8.36482 160.444 6.31549C161.186 6.49977 161.186 6.71754 161.906 6.71754C166.965 6.71754 171.995 6.93531 176.318 6.05862C176.318 5.84084 178.488 5.84085 177.763 5.4053C182.091 5.18753 187.139 5.18752 191.461 4.75197C193.366 4.57189 195.248 4.21101 197.083 3.67426C212.558 2.50721 227.858 1.32898 244.536 0.217767C248.679 0.0111591 253.457 0 257.65 0C251.467 0.731503 245.121 1.33457 238.668 1.87621C232.406 1.71428 226.408 1.71986 221.467 2.83666C220.32 3.04885 219.174 3.24615 218.027 3.42856C224.98 2.94276 231.883 2.44578 238.668 1.87621C242.361 1.97114 246.15 2.12192 249.865 2.1275L249.64 2.17216C246.729 2.45509 243.792 2.72125 240.832 2.97067C235.261 2.82549 229.904 2.81432 225.312 3.60167C224.75 3.69659 224.188 3.80827 223.626 3.93112C222.479 4.13959 221.332 4.32572 220.186 4.48952C224.473 4.19543 228.735 3.88831 232.974 3.56816C235.599 3.36714 238.224 3.16053 240.843 2.94276C242.479 2.98185 244.137 3.0321 245.79 3.08236C245.616 3.13261 245.43 3.18845 245.273 3.24987C243.822 3.46765 239.786 6.04187 241.945 6.68961C253.041 6.63377 268.617 5.57283 268.617 5.81294C269.337 6.68963 250.315 7.83434 251.034 8.04654C252.102 8.1396 253.168 8.22335 254.233 8.2978C253.221 8.47091 252.232 8.65518 251.321 8.8562C249.157 9.07398 246.262 8.8562 244.829 9.29175C239.77 10.604 234.019 10.1684 228.252 11.0395C224.643 11.6985 220.32 12.5696 215.998 13.4462C215.998 13.8818 213.828 13.664 214.553 14.0996C210.483 14.0996 205.779 14.0996 204.03 15.3783L203.738 15.4118C203.358 15.4312 202.982 15.4892 202.614 15.5849C195.868 15.3616 191.119 16.5733 184.98 17.4109C182.872 17.5226 180.725 17.5951 178.516 17.5951C179.961 17.5951 182.119 17.8129 183.575 17.5951C184.053 17.5393 184.525 17.4723 184.992 17.4109C190.467 17.1205 195.672 16.5398 200.877 16.0651C201.304 15.9367 202.001 15.7301 202.625 15.5849C203.002 15.5849 203.373 15.5849 203.749 15.6296C203.841 15.54 203.939 15.456 204.042 15.3783C209.022 14.7473 214.649 14.524 218.893 13.8818C226.892 13.1335 235.419 13.5021 243.575 13.6249C239.517 13.9972 235.52 14.3918 231.585 14.8087C236.509 14.4346 241.141 14.0605 245.638 13.6529H247.712H252.04C250.691 13.5579 249.359 13.4798 248.027 13.4183C250.719 13.1671 253.378 12.9046 255.992 12.6142C270.45 11.5924 285.368 11.0619 300 11.3969C299.689 11.6818 299.361 11.9466 299.016 12.1898C291.967 12.3239 284.913 12.3239 279.146 13.4909C283.215 13.4909 286.031 13.1056 289.961 13.061C289.961 13.1838 289.994 13.3681 289.663 13.4462C292.175 13.2006 295.11 12.966 297.965 12.8878C297.055 13.4462 296.026 14.0046 295.008 14.563C293.564 14.9986 291.4 14.9986 289.236 15.222C279.876 15.5961 271.062 15.4844 261.844 16.0149C253.637 15.9311 245.441 15.8474 237.397 15.8864C245.396 15.3504 252.743 14.7138 259.893 13.9209ZM17.9933 19.6277C18.7352 19.5384 19.4997 19.4323 20.2417 19.315C20.125 19.2705 20.0105 19.2202 19.8988 19.1642C19.2373 19.1793 18.587 19.3375 17.9933 19.6277ZM34.8567 19.8399C29.9044 19.4658 23.3895 19.9684 17.0939 20.309C17.0587 20.358 17.0391 20.4163 17.0377 20.4765C22.3159 20.6775 28.8196 20.1415 34.8567 19.8176V19.8399ZM54.6318 24.3797L54.5081 24.3071C54.5109 24.3406 54.5109 24.3742 54.5081 24.4076L54.6318 24.3797ZM142.473 17.4165C136.706 18.5054 129.494 18.5053 122.282 18.9465C120.124 18.9465 117.965 19.8176 115.076 19.8176C111.473 20.0354 109.309 20.4765 106.425 20.6943L108.589 21.1298C103.53 20.9121 100.658 22.2466 95.6155 21.7831C95.6155 22.0009 94.896 22.4421 94.1709 22.4421C90.5677 22.6598 86.959 22.2243 84.0528 22.6598C80.4497 22.8776 76.8522 22.8776 73.9629 23.3132C73.2378 23.3132 71.8044 23.9721 70.3597 24.1898C68.6003 24.2792 66.8353 24.335 65.0815 24.3909C65.1562 24.4463 65.2275 24.5059 65.2951 24.5696C66.7435 24.5906 68.1919 24.5365 69.6346 24.4076C73.9629 23.9721 79.0051 23.5309 83.3333 23.2908C94.1484 22.8553 104.244 21.9786 114.334 21.1075C116.492 20.8897 118.657 20.4542 120.821 20.2364C127.307 19.3597 135.239 19.5775 139.562 18.0475C140.309 17.852 141.748 17.852 142.473 17.4165ZM150.534 7.92369C142.837 8.85581 135.083 9.2458 127.33 9.09074C121.557 9.09074 104.986 10.403 107.87 12.9995C115.008 8.28664 155.542 12.9493 150.534 7.94601V7.92369ZM210.68 3.90879C207.572 4.31027 204.443 4.52842 201.31 4.56211C204.428 4.35364 207.547 4.14331 210.669 3.93112L210.68 3.90879ZM179.972 12.8041C189.337 11.2797 199.432 11.0563 208.803 10.1852C216.015 9.53187 223.94 10.6207 230.427 9.0684V8.41506L229.713 8.63285C227.178 8.50442 225.138 8.15263 223.019 7.97394L223.39 7.91251L222.749 7.9516C221.226 7.81624 219.694 7.82558 218.173 7.97951C217.397 8.08002 216.605 8.18613 215.812 8.28105C206.818 8.66635 197.499 9.00698 189.337 10.3806C184.278 11.034 179.972 12.1284 174.924 12.7817C176.346 12.8264 178.516 13.0442 179.961 12.8264L179.972 12.8041Z" fill="#CD242B"/>
</svg>
