<svg width="534" height="51" viewBox="0 0 534 51" fill="none" xmlns="http://www.w3.org/2000/svg">
<path d="M462.35 24.93C448.35 25.93 434.72 27.17 421.46 28.58C394.55 28.72 368.6 29.65 345.28 32.85C324.76 35.98 288.86 35.2 268.34 41.46C270.54 41.63 272.66 41.7 274.7 41.7C271.7 42.24 268.85 42.85 266.2 43.56C232.32 44.92 199.07 45.76 164.46 45.76C159.33 45.76 155.46 46.94 150.35 46.94C145.24 46.94 140.04 47.07 134.95 47.16C134.95 47.25 135 47.33 135.14 47.42C114.01 47.91 93.23 48.68 71.35 49.97C61.09 50.36 50.81 49.97 40.56 49.97C36.71 49.97 36.71 48.4 34.15 47.97C23.89 46.02 16.2 44.45 4.66 43.67V42.5C3.10944 42.6313 1.55056 42.6313 0 42.5C5.52 38.11 19.57 36.5 4.69 33.5C5.52 33.37 6.26 33.25 6.97 33.11H7.27C9.98998 32.7212 12.6085 31.8076 14.98 30.42H8.17C8.38937 30.2126 8.54879 29.9499 8.6315 29.6595C8.71421 29.3692 8.71714 29.0619 8.64 28.77C8.83 28.67 9.01001 28.56 9.23001 28.46H11.07C11.3574 28.1985 11.6035 27.8951 11.8 27.56C17.68 25.87 26.95 25 25.17 23.37C23.8 22.54 19.5 23.26 14.62 23.76C14.295 23.6095 13.9611 23.4793 13.62 23.37C20.03 22.98 13.62 20.64 17.46 20.25C22.59 20.25 27.72 19.85 32.84 19.85C53.73 19.85 71.33 19.46 91.84 18.29L94.54 18.15C104.54 17.66 113.88 17.58 123.61 17.89C122.99 18.15 122.34 18.41 121.68 18.65C129.522 18.9832 137.377 18.8964 145.21 18.39C164.44 16.82 183.67 15.26 204.21 14.87C225.71 14.55 246.41 13.73 268.21 12.42C259.29 13.3 250.38 14.09 241.21 14.36C237.1 14.36 233.01 14.3 229.04 14.36C233.16 14.48 237.2 14.46 241.21 14.36C257.02 14.51 273.21 14.98 285.43 11.31C286.75 11.64 286.75 12.03 288.03 12.03C297.03 12.03 305.98 12.42 313.67 10.85C313.67 10.46 317.53 10.46 316.24 9.67999C323.94 9.28999 332.92 9.28998 340.61 8.50998C343.997 8.1875 347.346 7.54122 350.61 6.57999C378.14 4.48999 405.36 2.37998 435.03 0.389984C442.4 0.0199841 450.9 0 458.36 0C447.36 1.31 436.07 2.38999 424.59 3.35999C413.45 3.06999 402.78 3.07999 393.99 5.07999C391.95 5.45999 389.91 5.81332 387.87 6.13998C400.24 5.26998 412.52 4.37999 424.59 3.35999C431.16 3.52999 437.9 3.8 444.51 3.81L444.11 3.88998C438.93 4.39665 433.707 4.87331 428.44 5.31998C418.53 5.05998 409 5.03998 400.83 6.44998C399.83 6.61998 398.83 6.81998 397.83 7.03998C395.79 7.41331 393.75 7.74664 391.71 8.03998C399.337 7.51331 406.92 6.96332 414.46 6.38998C419.13 6.02998 423.8 5.65999 428.46 5.26999C431.37 5.33999 434.32 5.42999 437.26 5.51999C436.95 5.60999 436.62 5.70998 436.34 5.81998C433.76 6.20998 426.58 10.82 430.42 11.98C450.16 11.88 477.87 9.98 477.87 10.41C479.15 11.98 445.31 14.03 446.59 14.41C448.49 14.5767 450.387 14.7267 452.28 14.86C450.48 15.17 448.72 15.5 447.1 15.86C443.25 16.25 438.1 15.86 435.55 16.64C426.55 18.99 416.32 18.21 406.06 19.77C399.64 20.95 391.95 22.51 384.26 24.08C384.26 24.86 380.4 24.47 381.69 25.25C374.45 25.25 366.08 25.25 362.97 27.54L362.45 27.6C361.775 27.6346 361.104 27.7386 360.45 27.91C348.45 27.51 340 29.68 329.08 31.18C325.33 31.38 321.51 31.51 317.58 31.51C320.15 31.51 323.99 31.9 326.58 31.51C327.43 31.41 328.27 31.29 329.1 31.18C338.84 30.66 348.1 29.62 357.36 28.77C358.12 28.54 359.36 28.17 360.47 27.91C361.14 27.91 361.8 27.91 362.47 27.99C362.634 27.8295 362.808 27.6792 362.99 27.54C371.85 26.41 381.86 26.01 389.41 24.86C403.64 23.52 418.81 24.18 433.32 24.4C426.1 25.0667 418.99 25.7733 411.99 26.52C420.75 25.85 428.99 25.18 436.99 24.45H440.68H448.38C445.98 24.28 443.61 24.14 441.24 24.03C446.03 23.58 450.76 23.11 455.41 22.59C481.13 20.76 507.67 19.81 533.7 20.41C533.148 20.9202 532.563 21.3944 531.95 21.83C519.41 22.07 506.86 22.07 496.6 24.16C503.84 24.16 508.85 23.47 515.84 23.39C515.84 23.61 515.9 23.94 515.31 24.08C519.78 23.64 525 23.22 530.08 23.08C528.46 24.08 526.63 25.08 524.82 26.08C522.25 26.86 518.4 26.86 514.55 27.26C497.9 27.93 482.22 27.73 465.82 28.68C451.22 28.53 436.64 28.38 422.33 28.45C436.56 27.49 449.63 26.35 462.35 24.93ZM32.01 35.15C33.33 34.99 34.69 34.8 36.01 34.59C35.8023 34.5103 35.5987 34.4201 35.4 34.32C34.2231 34.347 33.0663 34.6303 32.01 35.15ZM62.01 35.53C53.2 34.86 41.61 35.76 30.41 36.37C30.3475 36.4578 30.3126 36.5622 30.31 36.67C39.7 37.03 51.27 36.07 62.01 35.49V35.53ZM97.19 43.66L96.97 43.53C96.9749 43.5899 96.9749 43.6501 96.97 43.71L97.19 43.66ZM253.46 31.19C243.2 33.14 230.37 33.14 217.54 33.93C213.7 33.93 209.86 35.49 204.72 35.49C198.31 35.88 194.46 36.67 189.33 37.06L193.18 37.84C184.18 37.45 179.07 39.84 170.1 39.01C170.1 39.4 168.82 40.19 167.53 40.19C161.12 40.58 154.7 39.8 149.53 40.58C143.12 40.97 136.72 40.97 131.58 41.75C130.29 41.75 127.74 42.93 125.17 43.32C122.04 43.48 118.9 43.58 115.78 43.68C115.913 43.7792 116.04 43.886 116.16 44C118.737 44.0377 121.313 43.9408 123.88 43.71C131.58 42.93 140.55 42.14 148.25 41.71C167.49 40.93 185.45 39.36 203.4 37.8C207.24 37.41 211.09 36.63 214.94 36.24C226.48 34.67 240.59 35.06 248.28 32.32C249.61 31.97 252.17 31.97 253.46 31.19ZM267.8 14.19C254.106 15.8593 240.312 16.5577 226.52 16.28C216.25 16.28 186.77 18.63 191.9 23.28C204.6 14.84 276.71 23.19 267.8 14.23V14.19ZM374.8 7C369.271 7.71897 363.705 8.10964 358.13 8.16998C363.677 7.79665 369.227 7.41998 374.78 7.03998L374.8 7ZM320.17 22.93C336.83 20.2 354.79 19.8 371.46 18.24C384.29 17.07 398.39 19.02 409.93 16.24V15.07L408.66 15.46C404.15 15.23 400.52 14.6 396.75 14.28L397.41 14.17L396.27 14.24C393.561 13.9976 390.836 14.0143 388.13 14.29C386.75 14.47 385.34 14.66 383.93 14.83C367.93 15.52 351.35 16.13 336.83 18.59C327.83 19.76 320.17 21.72 311.19 22.89C313.72 22.97 317.58 23.36 320.15 22.97L320.17 22.93Z" fill="#CD242B"/>
</svg>
