<svg width="24" height="24" viewBox="0 0 24 24" fill="none" xmlns="http://www.w3.org/2000/svg">
<path d="M14.6433 12L23.6166 3.02576C23.8634 2.77872 23.9996 2.44914 24 2.0977C24 1.74606 23.8638 1.41609 23.6166 1.16944L22.8302 0.383244C22.583 0.135619 22.2535 0 21.9017 0C21.5504 0 21.2209 0.135619 20.9737 0.383244L12.0004 9.3569L3.02673 0.383244C2.7799 0.135619 2.45015 0 2.09854 0C1.74732 0 1.41756 0.135619 1.17073 0.383244L0.384 1.16944C-0.128 1.68148 -0.128 2.51431 0.384 3.02576L9.35746 12L0.384 20.9739C0.136976 21.2213 0.00097561 21.5509 0.00097561 21.9023C0.00097561 22.2537 0.136976 22.5833 0.384 22.8306L1.17054 23.6168C1.41737 23.8642 1.74732 24 2.09834 24C2.44995 24 2.77971 23.8642 3.02654 23.6168L12.0002 14.6429L20.9735 23.6168C21.2207 23.8642 21.5502 24 21.9015 24H21.9019C22.2533 24 22.5828 23.8642 22.83 23.6168L23.6164 22.8306C23.8632 22.5835 23.9994 22.2537 23.9994 21.9023C23.9994 21.5509 23.8632 21.2213 23.6164 20.974L14.6433 12Z" fill="white"/>
</svg>
