<svg width="40" height="40" viewBox="0 0 40 40" fill="none" xmlns="http://www.w3.org/2000/svg">
<path fill-rule="evenodd" clip-rule="evenodd" d="M12.2 2.47741C13.7409 2.47741 15.2913 2.70946 16.579 3.13595C19.3808 4.06414 21.1448 5.03475 22.5393 6.44945L22.7134 6.63029L22.8099 6.64149C27.431 7.18641 31.5807 9.0084 32.6446 10.3303L32.7095 10.4151L32.8629 10.6311L33.0148 10.6824C33.154 10.7344 33.2885 10.792 33.4182 10.856L33.6081 10.9576C35.251 11.8922 36.625 13.2837 37.5837 14.9809C38.8335 17.1957 39.4964 19.3754 39.5407 21.4599C39.5802 23.5387 38.949 25.7432 37.6802 28.0173C36.5032 30.1273 35.2961 31.2788 33.3771 31.7749L33.1532 31.8293L32.8669 31.8933L32.7546 32.0253C31.6709 33.24 30.1964 33.9873 28.6887 34.0521L28.4435 34.0569L28.3747 34.1234C27.238 35.1684 25.7137 35.7925 24.1024 35.8637L23.9252 35.8685L23.7907 35.979C23.5265 36.1838 23.237 36.3654 22.9238 36.5295L22.6841 36.6495C22.3361 36.8135 22.0434 36.9296 21.6083 37.0776L20.9296 37.3016C20.2541 37.5273 19.5675 37.6417 18.8856 37.6417C17.5409 37.6417 16.2674 37.1936 15.2311 36.3606L15.1853 36.323L14.6703 36.1846C14.5564 36.155 14.4512 36.1246 14.3302 36.0886L13.4759 35.8293L13.2662 35.7853L12.8549 35.7165C12.158 35.6093 11.7736 35.5229 11.2903 35.322C10.3355 34.9235 9.59988 34.2234 9.15453 33.1488L9.07385 32.9423C8.70049 31.9165 8.08587 30.8379 7.4578 30.0873L7.30118 29.9065C6.06166 28.5382 5.99521 27.1627 6.61774 25.7696L6.71266 25.5671L6.87482 25.2391C6.92861 25.127 6.95234 25.0686 6.96342 25.0278L6.96895 25.0054C6.9824 24.9286 6.99427 24.8494 7.00613 24.7526L7.05755 24.3005L7.09947 23.9052L6.98082 23.8172C6.79572 23.6771 6.60904 23.5323 6.41129 23.3739L5.81011 22.8818L4.7897 22.0304C4.45826 21.7559 4.22412 21.5703 3.9615 21.3734C2.36998 20.1788 1.07824 18.556 0.495264 16.9941C-1.12316 12.6508 1.39544 6.93436 5.57122 4.16257L5.7848 4.02414L5.87814 3.96812L5.92085 3.94412C7.83828 2.9047 10.0073 2.47741 12.2 2.47741ZM30.0809 13.4718C26.4169 13.4718 20.5713 15.2049 17.5164 18.0047L17.355 18.1528L17.1604 18.252C16.8899 18.3912 16.5822 18.4616 16.2444 18.4616C15.6037 18.4616 14.7945 18.2136 13.5273 17.8095L12.9839 17.6374C12.0156 17.3358 11.0403 16.9517 10.4819 16.7228C10.205 16.6092 10.0286 16.5332 10.008 16.5236L9.97324 16.5084C9.23443 18.2416 9.19409 20.2604 9.55242 22.1432L10.2414 22.901L10.6701 23.3731C11.0395 23.7796 11.4714 24.1196 11.9539 24.3837C12.1177 24.4741 12.4547 24.5941 12.7806 24.711C14.0755 25.1751 16.2421 25.9512 16.4319 28.1413L16.9951 34.6379C17.9127 35.2444 19.0486 35.3564 20.1671 34.9827C21.0507 34.6867 22.306 34.3578 22.8186 33.4872C23.2916 31.9805 23.9561 29.9073 24.3903 28.5102C24.5027 28.1517 24.9393 29.5016 24.4188 31.5428C24.0621 32.9439 24.1681 32.3926 23.8342 33.4272C25.2612 33.4128 26.6787 32.7167 27.3962 31.5252C27.8597 30.0513 28.468 28.1485 28.8754 26.8426C28.9869 26.4825 29.4236 27.8348 28.9031 29.8737C28.5614 31.2131 28.6476 30.7562 28.3652 31.6116C29.6743 31.6636 30.8806 30.7642 31.5134 29.5968C31.5308 29.596 32.1502 28.7014 32.7182 25.94C32.8289 25.5815 33.2663 26.9322 32.7451 28.9719C32.6968 29.1639 32.658 29.3183 32.6248 29.4448C33.9474 29.1455 34.6878 28.4045 35.5737 26.8178C36.4826 25.1879 37.1574 23.3699 37.1218 21.5111C37.0822 19.6411 36.394 17.8087 35.4812 16.1923C34.9132 15.1857 34.157 14.3111 33.2339 13.623L30.6631 13.487C30.474 13.4774 30.2802 13.4726 30.0809 13.4726V13.4718ZM9.45038 24.6781C9.42744 24.8926 9.40133 25.107 9.36732 25.3223C9.36099 25.3599 9.35704 25.3975 9.34992 25.4351C9.12685 26.6978 8.09932 27.1675 9.08493 28.2565C10.0421 29.3103 10.8647 30.7811 11.3441 32.0981C11.8029 33.3544 12.7885 33.1544 14.0351 33.452C14.2265 33.4976 14.4528 33.5704 14.6956 33.6457C14.8863 33.7057 15.0864 33.7681 15.292 33.8233L14.8111 28.2837C14.6766 26.7354 12.215 26.3969 11.1787 25.8288C10.9984 25.7312 10.6883 25.6127 10.3996 25.4231C10.1109 25.2335 9.45038 24.6789 9.45038 24.6789V24.6781ZM15.826 5.45884C13.5004 4.68908 9.78814 4.62106 7.06625 6.09898C3.95913 8.0594 1.4611 12.65 2.75916 16.1331C3.21953 17.367 4.34515 18.6177 5.40432 19.4122C6.22302 20.0268 6.9911 20.7085 7.78686 21.3526C7.5638 19.349 7.79636 17.459 8.47822 15.8587C8.52093 15.7594 8.56285 15.6602 8.60794 15.5626L8.81282 15.1273L8.81835 15.1169L8.81993 15.1129L9.24076 14.1943C11.1202 10.8936 16.5854 8.40747 20.2399 7.64251C19.1332 6.73672 17.7173 6.08538 15.826 5.45884ZM22.257 9.03961C19.5105 9.03961 12.8968 11.5265 10.8006 14.7752C10.7492 14.8544 10.6978 14.9345 10.6519 15.0145C10.6519 15.0145 10.8884 15.1169 11.2571 15.2657C11.8029 15.4866 12.6413 15.8107 13.4656 16.0675C14.6466 16.4356 16.1084 16.9493 16.424 16.7877C19.9163 13.587 26.5427 11.6234 30.7485 11.8458C30.7303 11.8218 30.4068 11.5793 29.7938 11.2441C28.7417 10.6688 26.8354 9.81737 24.1443 9.31407C23.5534 9.20364 22.9238 9.11002 22.2577 9.03961H22.257Z" fill="white"/>
</svg>
