<svg width="40" height="40" viewBox="0 0 40 40" fill="none" xmlns="http://www.w3.org/2000/svg">
<path fill-rule="evenodd" clip-rule="evenodd" d="M20 -0.00012207C8.955 -0.00012207 0 8.95404 0 19.9999C0 31.0457 8.955 39.9999 20 39.9999C31.0458 39.9999 40 31.0457 40 19.9999C40 8.95404 31.0458 -0.00012207 20 -0.00012207ZM36.81 18.0949C33.1767 16.3249 27.21 14.8499 23.695 14.2282C23.0208 14.1082 22.345 14.0149 21.6742 13.944C22.2375 9.33821 25.6075 8.20321 27.1333 7.92988C29.0625 7.58654 31.0633 7.96821 32.6625 8.81071C34.9092 11.3499 36.4125 14.5524 36.8108 18.0949H36.81ZM20.045 3.09321V3.07988C23.7567 3.08988 27.18 4.31071 29.9658 6.35488C28.9508 6.22154 27.9 6.22821 26.8608 6.41488C23.05 7.09821 20.625 9.83321 20.1467 13.8282C18.55 13.7349 16.98 13.7574 15.47 13.864C15.8583 3.91238 19.03 3.09321 20.045 3.09321ZM6.77167 9.39321L6.8075 9.42738C9.2225 6.41738 12.6408 4.24404 16.5575 3.43238C15.2408 5.12821 14.1333 8.26821 13.9292 13.994C12.735 14.1249 11.5875 14.2974 10.5125 14.4982C10.1808 13.0732 9.44833 11.7382 8.29417 10.7249L6.80833 9.42488L6.72333 9.54154L6.76917 9.39238L6.77083 9.39404L6.77167 9.39321ZM5.895 10.6699L7.28167 11.8815C8.1775 12.6674 8.7525 13.7015 9.01667 14.8015C6.66083 15.3174 4.75 15.9174 3.4825 16.3599C3.93417 14.2982 4.76083 12.3765 5.89333 10.6699H5.895ZM3.07833 19.9999C3.07833 19.3582 3.1225 18.7257 3.19 18.1032C4.25917 17.7082 6.39 16.9799 9.16583 16.3624C9.1275 17.5424 8.74583 18.7132 7.97 19.6832L3.805 24.8924C3.33583 23.344 3.07917 21.7024 3.07917 20.0007V19.9999H3.07833ZM20 36.924C13.0083 36.924 6.99167 32.659 4.415 26.594L9.17083 20.649C10.24 19.3099 10.7175 17.674 10.6908 16.049C11.705 15.8574 12.7825 15.6899 13.9 15.5624C13.9 15.6932 13.8933 15.8115 13.8933 15.9457C13.8933 25.3049 18.955 33.8749 20.9433 36.8757C20.6283 36.8965 20.3183 36.9249 20 36.9249V36.9232V36.924ZM22.6792 36.6899C21.3375 34.7515 15.4292 25.6499 15.4292 15.9465C15.4292 15.7599 15.4383 15.6007 15.4383 15.4215C16.9325 15.3074 18.4783 15.2799 20.0483 15.3674C20.09 24.034 29.1825 28.3632 33.6475 29.9682C31.0683 33.4882 27.1708 35.9699 22.6783 36.6882V36.6899H22.6792ZM21.6 15.4865C22.2083 15.5524 22.8183 15.6349 23.425 15.7415C29.7542 16.8624 34.6108 18.6174 36.9192 19.8665C36.9192 19.9107 36.925 19.9549 36.925 19.9999C36.925 23.1549 36.0433 26.0965 34.5308 28.6299C30.5825 27.2399 21.7375 23.2649 21.6 15.4857V15.4865Z" fill="white"/>
</svg>
