<svg width="40" height="40" viewBox="0 0 40 40" fill="none" xmlns="http://www.w3.org/2000/svg">
<path fill-rule="evenodd" clip-rule="evenodd" d="M17.28 30.4707C16.3558 30.139 15.4 29.7957 14.5091 29.4024C12.5233 28.5265 10.7791 27.1532 9.19078 25.8007C8.11162 24.8815 7.04078 23.9032 6.00578 22.9557L5.94662 22.9015L5.24328 22.2599C3.60662 20.7699 2.60578 18.7915 2.42662 16.6915C2.33662 15.6524 2.45412 14.6982 2.74578 14.0774C3.76245 11.954 5.36078 10.1715 6.63912 8.85488C8.87662 6.55238 11.405 4.56904 13.5825 2.93238C14.0341 2.59238 14.4525 2.43488 14.8991 2.43488C14.9633 2.43488 15.0291 2.43821 15.095 2.44488C15.6958 2.50821 15.88 2.68238 16.0641 3.04988C17.3116 5.53571 18.6141 7.95238 20.1875 10.8149C20.5358 11.4482 21.0308 11.949 21.4675 12.3915L21.5791 12.5049C21.965 12.8965 22.5441 13.0365 22.9225 13.0365C23.2325 13.0365 23.5191 12.9499 23.7516 12.7865C24.2483 12.439 24.6783 11.6582 24.4983 10.8965C24.3541 10.2865 24.1691 9.64071 23.7983 9.05738C23.3683 8.38238 23.04 7.85738 22.7508 7.39321C22.2075 6.52321 21.7675 5.81821 20.9849 4.65404C21.125 4.62488 21.3099 4.63488 21.5308 4.68488C22.5483 4.91321 23.4033 5.52404 24.4141 6.29821C24.5666 6.41488 24.7183 6.51488 24.8525 6.60404L25.0025 6.70404L25.0108 6.71071C26.2066 7.56154 27.2675 8.56321 28.1641 9.68654C28.2525 9.79738 28.3391 9.90821 28.4258 10.0199C29.9816 12.0232 30.9224 13.7774 31.3858 15.5374C31.7133 16.7824 31.7474 17.7065 31.4941 18.5357C31.3958 18.859 31.2358 19.164 31.0533 19.3857L18.9349 31.0807C18.3816 30.8682 17.8233 30.6665 17.28 30.4715V30.4707ZM32.2133 24.9215L33.4108 23.7757L36.1716 26.7332L36.0949 26.809L34.6699 28.1865C33.0866 29.7174 31.4491 31.3007 29.8158 32.8674C29.3733 33.2915 28.8158 33.5257 28.2466 33.5257C27.9016 33.5257 27.5691 33.4415 27.2583 33.2757C26.6775 32.9674 26.275 32.4157 26.1808 31.8007C26.0949 31.239 26.2625 30.7249 26.6666 30.3149C28.2075 28.7507 30.315 26.7365 32.1758 24.9565L32.2133 24.9215ZM38.935 26.1799L38.5283 25.7449C37.5791 24.6332 36.6208 23.6199 35.6099 22.5549C35.2033 22.1249 34.7816 21.6807 34.3591 21.2274L33.5275 20.3349L33.5008 20.3599L33.3675 20.2174C33.5391 19.909 33.6841 19.5757 33.7874 19.234C34.2924 17.5757 33.9816 15.9824 33.7041 14.9274C33.1558 12.844 32.0799 10.8174 30.32 8.54904C30.2266 8.42904 30.1324 8.30988 30.0374 8.19071C29.0016 6.89321 27.7791 5.73821 26.4008 4.75738L26.3658 4.73238C26.3033 4.68904 26.24 4.64738 26.1741 4.60404C26.0633 4.53071 25.9583 4.46071 25.8716 4.39488C24.6666 3.47238 23.5474 2.68154 22.0583 2.34571C21.7491 2.27571 21.4475 2.24071 21.1625 2.24071C20.2791 2.24071 19.4974 2.58071 18.9041 3.22404L18.865 3.26821C18.6433 2.83738 18.4241 2.40654 18.2075 1.97488C17.6316 0.82821 16.6958 0.202376 15.345 0.0607097C15.1975 0.0448764 15.0483 0.0373764 14.9008 0.0373764C13.9341 0.0373764 13.0058 0.366543 12.1425 1.01571C9.89078 2.70738 7.27162 4.76404 4.91995 7.18488C3.51412 8.63154 1.75078 10.6057 0.580785 13.0499C0.104118 14.0615 -0.088382 15.4274 0.0374513 16.8957C0.269951 19.5999 1.54578 22.134 3.62912 24.0324L4.34995 24.6907L4.39162 24.729C5.44162 25.6882 6.52662 26.6807 7.63662 27.6257C9.36328 29.0965 11.2741 30.5949 13.5408 31.5957C14.5091 32.0224 15.5049 32.3807 16.4683 32.7274C17.0716 32.944 17.695 33.1682 18.2933 33.4032C18.4483 33.464 18.5933 33.5082 18.735 33.5365L25.7733 39.0482C26.42 39.6465 27.2775 39.9624 28.2566 39.9624C29.63 39.9624 31.1316 39.304 32.2716 38.204L38.0841 32.594C39.2366 31.4824 39.9241 30.0115 39.9241 28.6599C39.9241 27.6749 39.5825 26.8182 38.935 26.1807V26.1799Z" fill="white"/>
</svg>
