<svg width="32" height="32" viewBox="0 0 32 32" fill="none" xmlns="http://www.w3.org/2000/svg">
<g clip-path="url(#clip0_64_6480)">
<path fill-rule="evenodd" clip-rule="evenodd" d="M29.1383 10.3208L31.805 12.9295C32.053 13.1735 32.0663 13.5622 31.8344 13.8218L27.1678 19.0391C27.0478 19.1748 26.8744 19.2557 26.6891 19.2609H26.6664C26.4891 19.2609 26.3197 19.1917 26.1944 19.0704L22.8611 15.8096C22.7371 15.687 22.6664 15.5213 22.6664 15.3479V14.4544C21.8851 14.3865 20.2105 15.3074 19.0318 16.0874L14.6758 11.8261C15.1918 11.2848 15.9998 10.2218 15.9998 8.82609C15.9998 7.14611 15.3771 4.91305 9.9999 4.91305C9.73059 4.91305 9.48659 4.7539 9.38391 4.51C9.27991 4.26605 9.33722 3.98565 9.5279 3.79911L9.5316 3.7955C10.7406 2.61542 12.3955 1 15.9998 1C19.6104 1 21.4023 2.75294 22.4717 3.79896L22.4718 3.79905L27.805 9.01643C27.929 9.13901 27.9997 9.30471 27.9997 9.47816V10.1304H28.6663C28.8436 10.1304 29.013 10.1982 29.1383 10.3208ZM0 27.6348C0 26.6591 0.358683 25.8139 1.00799 25.1787L13.7238 12.7392L18.0225 16.9457L5.98524 29.8991C5.33463 30.5982 4.40664 31 3.43996 31C1.54267 31 0 29.4908 0 27.6348Z" fill="#222939"/>
</g>
<defs>
<clipPath id="clip0_64_6480">
<rect width="32" height="32" fill="white"/>
</clipPath>
</defs>
</svg>
